<?xml version="1.0" encoding="UTF-8"?><svg id="_レイヤー_2" xmlns="http://www.w3.org/2000/svg" viewBox="0 0 686.131 486.627"><defs><style>.cls-1{fill:none;stroke:#dcdcdc;stroke-miterlimit:10;}</style></defs><g id="_レイヤー_1-2"><path class="cls-1" d="m259.098,382.571c-108.665,36.978-191.327,41.484-200.683,5.789-10.562-40.296,75.729-118.472,200.683-186.462v-19.651C100.154,265.816-11.593,364.848,1.549,414.984c11.704,44.652,118.937,36.978,257.549-12.741v-19.671Z"/><path class="cls-1" d="m684.582,95.198c-12.025-45.878-124.876-36.531-269.019,16.927v-61.397l-72.497-25.013v323.928c-12.608,5.569-25.046,10.789-37.263,15.645V12.858L270.568.701v435.198l35.235,12.157v-63.687c12.26-4.98,24.692-10.253,37.263-15.816v92.359l72.497,25.013v-152.005c165.021-84.772,282.476-187.386,269.019-238.723Zm-269.019,219.31v-182.96c114.322-40.645,202.469-46.676,212.154-9.726,10.885,41.527-80.996,123.311-212.154,192.686Z"/></g></svg>