<?xml version="1.0" encoding="UTF-8"?><svg id="_レイヤー_2" xmlns="http://www.w3.org/2000/svg" viewBox="0 0 1304.588 451.996"><defs><style>.cls-1{fill:#ebf0f5;}.cls-2{fill:#d7dce1;}.cls-3{fill:none;}</style></defs><g id="_レイヤー_1-2"><path class="cls-3" d="m1049.348,430.627v-5.245h-7.73c-6.35,0-9.524,2.118-9.524,6.35,0,1.75.666,3.199,2.001,4.349,1.333,1.151,3.151,1.726,5.453,1.726,2.209,0,4.187-.598,5.936-1.795,1.747-1.194,3.037-2.989,3.865-5.384Z"/><path class="cls-3" d="m888.805,417.237h-19.603v15.185h19.603c7.178,0,10.768-2.53,10.768-7.593s-3.59-7.592-10.768-7.592Z"/><path class="cls-3" d="m460.845,450.736h3.894v-5.476c-1.013,2.129-2.317,3.947-3.894,5.476Z"/><polygon class="cls-3" points="336.2 450.736 349.748 450.736 336.2 417.051 336.2 450.736"/><path class="cls-3" d="m462.53,430.627v-5.245h-7.73c-6.35,0-9.524,2.118-9.524,6.35,0,1.75.666,3.199,2.001,4.349,1.333,1.151,3.151,1.726,5.453,1.726,2.209,0,4.187-.598,5.936-1.795,1.747-1.194,3.037-2.989,3.865-5.384Z"/><path class="cls-3" d="m276.448,402.604c-3.589,0-6.535,1.29-8.835,3.865-2.301,2.577-3.451,6.212-3.451,10.905s1.15,8.352,3.451,10.975c2.3,2.623,5.246,3.935,8.835,3.935s6.533-1.312,8.835-3.935c2.299-2.623,3.451-6.281,3.451-10.975s-1.152-8.328-3.451-10.905c-2.302-2.575-5.246-3.865-8.835-3.865Z"/><path class="cls-3" d="m191.828,450.736v-33.222c0-7.882-2.571-12.162-7.689-12.862v46.084h7.689Z"/><path class="cls-3" d="m1182.006,404.537c-3.499,0-6.328,1.221-8.49,3.658-2.163,2.439-3.243,6.281-3.243,11.526v31.014h20.982v-33.222c0-8.649-3.085-12.977-9.249-12.977Z"/><path class="cls-3" d="m238.21,437.599c-3.774-5.936-5.66-12.677-5.66-20.224s1.886-14.287,5.66-20.224c.26-.409.544-.797.818-1.194-5.602,2.371-11.189,4.693-16.739,6.955.487,2.83.737,5.897.737,9.217v38.606h29.366c-5.96-3.284-10.698-7.654-14.183-13.137Z"/><path class="cls-3" d="m557.71,127.852c-1.922-7.333-6.925-13.181-14.87-17.382-32.289-17.077-109.528-6.679-206.64,27.808v190.694c66.714-35.35,125.742-74.941,166.273-111.532,41.05-37.058,60.666-68.874,55.236-89.588Z"/><path class="cls-3" d="m214.536,386.729c3.801,3.771,6.32,8.833,7.568,15.177,5.987-2.442,12.015-4.947,18.059-7.514,3.556-4.623,8.118-8.335,13.714-11.114,6.672-3.313,14.195-4.97,22.57-4.97,8.466,0,16.035,1.656,22.708,4.97,6.672,3.313,11.872,7.938,15.6,13.873,3.727,5.937,5.591,12.679,5.591,20.224s-1.864,14.288-5.591,20.224c-3.443,5.483-8.16,9.853-14.115,13.137h34.56v-36.171l-14.026-34.875h14.026v-29.835l.271-.139c174.522-89.654,295.702-197.039,281.875-249.786-2.339-8.923-8.464-16.016-18.205-21.083-40.472-21.052-141.348-6.04-263.268,39.177l-.674.25V53.522l-75.03-25.888v339.341l-.298.131c-13.096,5.785-26.25,11.308-39.097,16.416l-.685.272V13.807L184.139,1.402v377.747c2.533-.559,5.188-.841,7.966-.841,9.294,0,16.771,2.809,22.432,8.421Zm120.664-249.157l.332-.118c97.531-34.676,175.205-45.094,207.775-27.868,8.203,4.337,13.374,10.397,15.369,18.012,11.315,43.166-82.361,128.392-222.743,202.646l-.733.388v-193.06Z"/><path class="cls-3" d="m94.922,417.514c0-8.649-3.085-12.977-9.249-12.977-3.499,0-6.328,1.221-8.49,3.658-2.163,2.439-3.243,6.281-3.243,11.526v7.146c6.762-1.223,13.764-2.647,20.982-4.267v-5.088Z"/><path class="cls-3" d="m895.017,388.524c0-4.784-3.544-7.179-10.63-7.179h-15.185v14.356h15.185c7.086,0,10.63-2.392,10.63-7.178Z"/><path class="cls-3" d="m79.071,450.736h15.851v-4.127c-5.353,1.45-10.64,2.828-15.851,4.127Z"/><path class="cls-3" d="m126.12,437.546v13.19h13.527v-17.473c-4.544,1.474-9.052,2.899-13.527,4.283Z"/><path class="cls-3" d="m1047.662,450.736h3.894v-5.476c-1.013,2.129-2.317,3.947-3.894,5.476Z"/><path class="cls-3" d="m751.729,402.26c-2.118-1.795-4.786-2.692-8.007-2.692s-5.891.876-8.007,2.623c-2.118,1.749-3.498,4.234-4.142,7.454h24.296c-.645-3.127-2.025-5.591-4.141-7.385Z"/><path class="cls-3" d="m182.579,404.537c-3.499,0-6.328,1.221-8.49,3.658-.813.917-1.472,2.032-1.979,3.344v10.624l-.331.119c-.312.112-.621.221-.933.332v28.122h12.293v-46.173c-.187-.008-.367-.025-.56-.025Z"/><path class="cls-2" d="m222.104,401.906c.065.332.126.668.185,1.006,5.549-2.262,11.137-4.584,16.739-6.955.367-.532.744-1.055,1.136-1.565-6.044,2.567-12.072,5.072-18.059,7.514Z"/><path class="cls-2" d="m184.139,404.652c-.323-.044-.656-.074-1-.089v46.173h1v-46.084Z"/><path class="cls-2" d="m184.139,1.402l35.952,12.404v369.988l.685-.272c12.847-5.108,26.001-10.631,39.097-16.416l.298-.131V27.635l75.03,25.888v64.751l.674-.25c121.92-45.217,222.796-60.229,263.268-39.177,9.741,5.067,15.866,12.16,18.205,21.083,13.827,52.747-107.353,160.132-281.875,249.786l-.271.139v29.835h1v-29.224c84.139-43.246,159.099-92.343,211.087-138.259,52.638-46.49,77.862-86.454,71.026-112.531-2.413-9.206-8.709-16.514-18.71-21.716-40.643-21.141-141.529-6.241-263.403,38.876V52.81l-77.03-26.577v340.091c-12.754,5.63-25.559,11.009-38.079,15.997V13.094L183.139,0v379.393c.332-.084.664-.169,1-.244V1.402Z"/><path class="cls-2" d="m558.677,127.598c-1.995-7.614-7.166-13.675-15.369-18.012-32.57-17.226-110.244-6.808-207.775,27.868l-.332.118v193.06l.733-.388c140.382-74.255,234.059-159.48,222.743-202.646Zm-222.477,10.68c97.111-34.486,174.351-44.885,206.64-27.808,7.945,4.201,12.948,10.049,14.87,17.382,5.43,20.714-14.187,52.53-55.236,89.588-40.531,36.591-99.56,76.183-166.273,111.532v-190.694Z"/><polygon class="cls-2" points="335.2 414.564 335.2 450.736 336.2 450.736 336.2 417.051 335.2 414.564"/><path class="cls-1" d="m94.922,446.608v4.127h31.198v-13.19c-10.616,3.282-21.03,6.308-31.198,9.062Z"/><path class="cls-1" d="m73.939,419.722c0-5.245,1.08-9.087,3.243-11.526,2.162-2.438,4.991-3.658,8.49-3.658,6.164,0,9.249,4.327,9.249,12.977v5.088c9.997-2.242,20.411-4.86,31.198-7.852v-2.62c0-11.32-2.83-19.786-8.49-25.4-5.66-5.612-13.138-8.421-22.432-8.421-4.511,0-8.697.737-12.562,2.209-3.865,1.473-7.271,3.682-10.215,6.626v-7.454h-29.68v51.573c9.71-.925,20.137-2.394,31.198-4.394v-7.146Z"/><path class="cls-1" d="m139.647,433.263v17.473h31.198v-28.122c-10.543,3.771-20.955,7.326-31.198,10.649Z"/><path class="cls-1" d="m191.828,417.514v33.222h28.263v-48.004l.312-.126c.565-.229,1.136-.468,1.702-.699-1.248-6.344-3.767-11.406-7.568-15.177-5.66-5.612-13.138-8.421-22.432-8.421-2.778,0-5.433.282-7.966.841v25.502c5.119.7,7.689,4.98,7.689,12.862Z"/><path class="cls-1" d="m172.109,400.483v11.056c.507-1.312,1.167-2.428,1.979-3.344,2.162-2.438,4.991-3.658,8.49-3.658.192,0,.373.017.56.025v-25.169c-1.227.311-2.428.68-3.597,1.125-3.865,1.473-7.271,3.682-10.215,6.626v-7.454h-29.68v31.172c10.311-3.067,20.923-6.452,31.801-10.153l.661-.225Z"/><path class="cls-1" d="m222.289,402.913c-.398.163-.8.331-1.198.493v47.331h1.936v-38.606c0-3.32-.25-6.388-.737-9.217Z"/><path class="cls-1" d="m220.402,402.605l-.312.126v48.004h1v-47.331c.398-.162.8-.33,1.198-.493-.058-.338-.119-.675-.185-1.006-.566.231-1.137.47-1.702.699Z"/><path class="cls-1" d="m184.139,404.652v-25.502c-.336.074-.668.159-1,.244v25.169c.344.016.677.045,1,.089Z"/><path class="cls-1" d="m314.756,437.599c3.727-5.936,5.591-12.677,5.591-20.224s-1.864-14.287-5.591-20.224c-3.728-5.936-8.928-10.56-15.6-13.873-6.673-3.313-14.242-4.97-22.708-4.97-8.375,0-15.898,1.656-22.57,4.97-5.597,2.779-10.158,6.492-13.714,11.114,6.438-2.733,12.887-5.528,19.304-8.368l.702-.311v65.022h40.471c5.956-3.284,10.672-7.654,14.115-13.137Zm-29.473-9.249c-2.302,2.623-5.246,3.935-8.835,3.935s-6.535-1.312-8.835-3.935c-2.301-2.623-3.451-6.281-3.451-10.975s1.15-8.328,3.451-10.905c2.3-2.575,5.246-3.865,8.835-3.865s6.533,1.29,8.835,3.865c2.299,2.577,3.451,6.212,3.451,10.905s-1.152,8.352-3.451,10.975Z"/><path class="cls-1" d="m259.17,387.249c-6.698,2.959-13.427,5.866-20.142,8.708-.274.396-.558.785-.818,1.194-3.774,5.937-5.66,12.679-5.66,20.224s1.886,14.288,5.66,20.224c3.485,5.483,8.222,9.853,14.183,13.137h6.777v-63.487Z"/><path class="cls-1" d="m259.468,386.024c-6.417,2.84-12.866,5.635-19.304,8.368-.392.51-.769,1.033-1.136,1.565,6.715-2.842,13.444-5.749,20.142-8.708v63.487h1v-65.022l-.702.311Z"/><polygon class="cls-1" points="349.748 450.736 385.641 450.736 414.215 379.689 384.674 379.689 368.385 420.136 353.199 379.689 336.2 379.689 336.2 417.051 349.748 450.736"/><polygon class="cls-1" points="335.2 414.564 335.2 379.689 321.174 379.689 335.2 414.564"/><polygon class="cls-1" points="335.2 414.564 336.2 417.051 336.2 379.689 335.2 379.689 335.2 414.564"/><path class="cls-1" d="m464.739,445.26v5.476h28.989v-36.122c0-12.331-3.498-21.466-10.491-27.401-6.995-5.937-17.117-8.904-30.37-8.904-6.073,0-12.171.76-18.29,2.277-6.122,1.519-11.344,3.613-15.669,6.281l9.939,20.568c2.485-1.84,5.475-3.289,8.973-4.348,3.497-1.058,6.948-1.588,10.354-1.588,8.466,0,13.205,2.946,14.219,8.835h-12.562c-11.596,0-20.247,1.933-25.952,5.798-5.707,3.865-8.559,9.525-8.559,16.979,0,4.417,1.081,8.399,3.244,11.94,1.325,2.172,3.034,4.064,5.121,5.683h37.16c1.577-1.529,2.882-3.347,3.894-5.476Zm-12.01-7.454c-2.302,0-4.12-.574-5.453-1.726-1.335-1.149-2.001-2.599-2.001-4.349,0-4.231,3.175-6.35,9.524-6.35h7.73v5.245c-.828,2.395-2.118,4.189-3.865,5.384-1.749,1.197-3.727,1.795-5.936,1.795Z"/><path class="cls-1" d="m555.433,430.903c-2.024,1.381-4.372,2.071-7.04,2.071-1.933,0-3.498-.644-4.693-1.933-1.197-1.288-1.795-3.083-1.795-5.384v-19.051h15.461v-22.777h-15.461v-21.12h-31.197v21.12h-10.354v22.777h10.354v19.326c0,10.216,2.852,17.877,8.559,22.984.723.647,1.486,1.252,2.287,1.818h40.702l-6.822-19.833Z"/><path class="cls-1" d="m586.354,341.865c-5.614,0-10.146,1.497-13.597,4.486-3.451,2.991-5.177,6.788-5.177,11.389s1.726,8.399,5.177,11.389c3.45,2.991,7.982,4.486,13.597,4.486,5.705,0,10.261-1.54,13.667-4.625,3.403-3.082,5.107-7.016,5.107-11.803,0-4.508-1.704-8.189-5.107-11.043-3.406-2.852-7.962-4.279-13.667-4.279Z"/><rect class="cls-1" x="570.755" y="379.689" width="31.198" height="71.046"/><polygon class="cls-1" points="699.824 379.689 670.283 379.689 653.994 420.136 638.809 379.689 606.783 379.689 635.357 450.736 671.25 450.736 699.824 379.689"/><path class="cls-1" d="m779.337,444.432l-16.289-16.427c-2.67,2.025-5.132,3.451-7.386,4.279-2.256.828-5.038,1.242-8.352,1.242-3.865,0-7.088-.76-9.663-2.277-2.577-1.519-4.417-3.704-5.521-6.558h52.457c.275-4.417.414-6.854.414-7.316,0-8.189-1.864-15.23-5.591-21.12-3.728-5.889-8.744-10.354-15.047-13.391-6.305-3.037-13.276-4.556-20.914-4.556-8.099,0-15.392,1.656-21.88,4.97s-11.596,7.938-15.323,13.873c-3.727,5.937-5.591,12.679-5.591,20.224,0,7.454,1.886,14.174,5.66,20.154,3.485,5.527,8.324,9.919,14.48,13.207h50.743c2.941-1.722,5.544-3.821,7.802-6.304Zm-43.622-42.241c2.116-1.747,4.784-2.623,8.007-2.623s5.889.897,8.007,2.692c2.115,1.794,3.496,4.258,4.141,7.385h-24.296c.644-3.22,2.023-5.705,4.142-7.454Z"/><path class="cls-1" d="m921.936,448.228c6.992-4.646,10.491-11.203,10.491-19.671,0-5.705-1.566-10.582-4.693-14.633-3.13-4.049-7.548-7.131-13.253-9.249,4.418-2.208,7.752-5.107,10.009-8.696,2.254-3.589,3.382-7.638,3.382-12.148,0-7.638-3.291-13.757-9.87-18.359-6.581-4.601-16.312-6.902-29.196-6.902h-51.629v92.167h80.176c1.652-.745,3.184-1.578,4.584-2.508Zm-52.733-66.882h15.185c7.086,0,10.63,2.395,10.63,7.179s-3.544,7.178-10.63,7.178h-15.185v-14.356Zm19.603,51.076h-19.603v-15.185h19.603c7.178,0,10.768,2.532,10.768,7.592s-3.59,7.593-10.768,7.593Z"/><path class="cls-1" d="m974.115,421.654c0-10.857,5.336-16.289,16.013-16.289,2.116,0,4.417.186,6.902.553v-27.609c-10.768,0-18.912,3.175-24.434,9.525v-8.145h-29.68v71.046h31.198v-29.082Z"/><path class="cls-1" d="m1051.557,445.26v5.476h28.989v-36.122c0-12.331-3.498-21.466-10.491-27.401-6.995-5.937-17.117-8.904-30.37-8.904-6.073,0-12.171.76-18.29,2.277-6.122,1.519-11.344,3.613-15.669,6.281l9.939,20.568c2.485-1.84,5.475-3.289,8.973-4.348,3.497-1.058,6.948-1.588,10.354-1.588,8.466,0,13.205,2.946,14.219,8.835h-12.562c-11.596,0-20.247,1.933-25.952,5.798-5.707,3.865-8.559,9.525-8.559,16.979,0,4.417,1.081,8.399,3.244,11.94,1.325,2.172,3.034,4.064,5.121,5.683h37.16c1.577-1.529,2.882-3.347,3.894-5.476Zm-12.01-7.454c-2.302,0-4.12-.574-5.453-1.726-1.335-1.149-2.001-2.599-2.001-4.349,0-4.231,3.175-6.35,9.524-6.35h7.73v5.245c-.828,2.395-2.118,4.189-3.865,5.384-1.749,1.197-3.727,1.795-5.936,1.795Z"/><rect class="cls-1" x="1094.073" y="379.689" width="31.198" height="71.046"/><path class="cls-1" d="m1096.075,369.129c3.45,2.991,7.982,4.486,13.597,4.486,5.705,0,10.261-1.54,13.667-4.625,3.403-3.082,5.107-7.016,5.107-11.803,0-4.508-1.704-8.189-5.107-11.043-3.406-2.852-7.962-4.279-13.667-4.279-5.614,0-10.146,1.497-13.597,4.486-3.451,2.991-5.177,6.788-5.177,11.389s1.726,8.399,5.177,11.389Z"/><path class="cls-1" d="m1170.272,419.722c0-5.245,1.08-9.087,3.243-11.526,2.162-2.438,4.991-3.658,8.49-3.658,6.164,0,9.249,4.327,9.249,12.977v33.222h31.198v-38.606c0-11.32-2.83-19.786-8.49-25.4-5.66-5.612-13.138-8.421-22.432-8.421-4.511,0-8.697.737-12.562,2.209-3.865,1.473-7.271,3.682-10.215,6.626v-7.454h-29.68v71.046h31.198v-31.014Z"/><path class="cls-1" d="m1300.171,443.88c2.944-3.865,4.417-8.145,4.417-12.838,0-6.165-1.635-10.906-4.9-14.219-3.268-3.313-7.04-5.567-11.319-6.765-4.279-1.194-9.504-2.161-15.668-2.898-3.958-.46-6.857-.942-8.697-1.45-1.842-.504-2.761-1.356-2.761-2.554,0-2.392,3.404-3.589,10.216-3.589,7.913,0,15.185,1.842,21.811,5.521l8.559-20.568c-3.865-2.023-8.537-3.565-14.012-4.624-5.476-1.058-11.066-1.588-16.771-1.588-8.192,0-15.209,1.152-21.052,3.451-5.846,2.302-10.239,5.384-13.184,9.249-2.946,3.865-4.417,8.237-4.417,13.114,0,6.167,1.633,10.905,4.9,14.219,3.266,3.312,7.062,5.545,11.389,6.694,4.324,1.152,9.57,2.095,15.736,2.83,4.049.462,6.972.921,8.767,1.381,1.794.462,2.691,1.29,2.691,2.484s-.714,2.095-2.14,2.692c-1.428.6-3.935.897-7.523.897-4.51,0-9.158-.598-13.942-1.795-4.786-1.195-8.928-2.852-12.424-4.97l-8.559,20.568c.987.564,2.055,1.101,3.198,1.611h57.503c3.417-1.918,6.157-4.198,8.183-6.856Z"/><path class="cls-3" d="m12.743,320.002c38.201-35.229,94.434-73.787,158.366-108.596v-19.483C105.736,226.342,46.396,264.179,0,300.812v31.486c3.967-4.015,8.206-8.113,12.743-12.296Z"/><path class="cls-3" d="m139.647,432.21v-20.307c-4.57,1.357-9.079,2.649-13.527,3.88v20.708c4.478-1.386,8.98-2.804,13.527-4.281Z"/><path class="cls-3" d="m42.741,432.244c-5.124.485-10.052.823-14.77,1.007v17.485h14.77v-18.492Z"/><path class="cls-3" d="m74.833,450.736c6.579-1.603,13.277-3.328,20.089-5.175v-21.945c-7.217,1.614-14.219,3.034-20.982,4.253v22.867h.894Z"/><path class="cls-3" d="m170.846,421.553c.088-.031.175-.061.264-.093v-5.804c-.17,1.249-.264,2.596-.264,4.066v1.831Z"/><path class="cls-1" d="m73.939,450.736v-22.867c-11.056,1.992-21.482,3.454-31.198,4.375v18.492h31.198Z"/><path class="cls-1" d="m126.12,436.491v-20.708c-10.785,2.985-21.199,5.597-31.198,7.833v21.945c10.17-2.759,20.579-5.783,31.198-9.069Z"/><path class="cls-1" d="m170.846,421.553v-1.831c0-1.47.094-2.817.264-4.066v-13.776c-10.758,3.652-21.257,6.993-31.462,10.023v20.307c10.244-3.327,20.654-6.882,31.198-10.658Z"/><path class="cls-2" d="m170.846,421.553v1.062c.311-.111.621-.22.933-.332l.331-.119v-10.624c-.464,1.202-.792,2.582-1,4.116v5.804c-.088.032-.175.062-.264.093Z"/><path class="cls-2" d="m139.647,411.903v-1.042c-4.57,1.359-9.08,2.655-13.527,3.889v1.033c4.448-1.231,8.957-2.522,13.527-3.88Z"/><path class="cls-2" d="m94.922,422.602c-7.218,1.619-14.22,3.044-20.982,4.267v1c6.764-1.219,13.766-2.639,20.982-4.253v-1.014Z"/><path class="cls-2" d="m126.12,436.491v1.055c4.475-1.383,8.983-2.809,13.527-4.283v-1.053c-4.547,1.477-9.05,2.895-13.527,4.281Z"/><path class="cls-2" d="m42.741,432.244v-.981c-5.125.489-10.055.828-14.77,1.013v.976c4.717-.184,9.646-.521,14.77-1.007Z"/><path class="cls-2" d="m94.922,445.561c-6.812,1.848-13.51,3.572-20.089,5.175h4.238c5.211-1.3,10.498-2.677,15.851-4.127v-1.048Z"/><path class="cls-1" d="m94.922,445.561v1.048c10.168-2.755,20.582-5.78,31.198-9.062v-1.055c-10.619,3.286-21.029,6.311-31.198,9.069Z"/><path class="cls-1" d="m94.922,423.616c9.999-2.236,20.413-4.848,31.198-7.833v-1.033c-10.788,2.992-21.201,5.609-31.198,7.852v1.014Z"/><path class="cls-1" d="m73.939,427.869v-1c-11.061,2-21.488,3.469-31.198,4.394v.981c9.716-.921,20.143-2.383,31.198-4.375Z"/><path class="cls-1" d="m171.109,401.88v13.776c.208-1.534.536-2.914,1-4.116v-11.056l-.661.225c-10.878,3.702-21.49,7.086-31.801,10.153v1.042c10.205-3.03,20.704-6.372,31.462-10.023Z"/><path class="cls-1" d="m139.647,432.21v1.053c10.243-3.323,20.655-6.877,31.198-10.649v-1.062c-10.544,3.776-20.955,7.331-31.198,10.658Z"/><path class="cls-2" d="m13.421,320.737c38.194-35.222,94.458-73.788,158.428-108.595l.261-.143v-21.733l-.732.386C105.954,225.049,46.528,262.884,0,299.542v1.271c46.396-36.634,105.736-74.47,171.109-108.89v19.483c-63.933,34.809-120.165,73.367-158.366,108.596-4.537,4.184-8.776,8.281-12.743,12.296v1.443c4.159-4.251,8.634-8.589,13.421-13.004Z"/><path class="cls-1" d="m27.972,433.25c-10.378.404-19.744.075-27.972-1.005v18.49h27.972v-17.485Z"/><path class="cls-1" d="m27.972,432.275v-73.707H0v72.69c8.21,1.091,17.579,1.424,27.972,1.017Z"/><path class="cls-1" d="m27.972,433.25v-.976c-10.392.407-19.761.075-27.972-1.017v.987c8.228,1.08,17.594,1.409,27.972,1.005Z"/><path class="cls-2" d="m73.939,450.953c.298-.072.595-.144.894-.217h-.894v.217Z"/><path class="cls-2" d="m73.939,450.953v1.043c1.703-.412,3.412-.831,5.131-1.26h-4.238c-.298.073-.596.145-.894.217Z"/></g></svg>