<?xml version="1.0" encoding="UTF-8"?><svg id="_レイヤー_2" xmlns="http://www.w3.org/2000/svg" xmlns:xlink="http://www.w3.org/1999/xlink" viewBox="0 0 401.065 248.118"><defs><style>.cls-1{fill:#ebf0f5;}.cls-2,.cls-3,.cls-4{fill:none;}.cls-3{clip-path:url(#clippath);}.cls-4{stroke:#d7dce1;stroke-miterlimit:10;stroke-width:.75px;}</style><clipPath id="clippath"><rect class="cls-2" x=".132" width="400" height="246.523"/></clipPath></defs><g id="_レイヤー_1-2"><g class="cls-3"><path class="cls-4" d="m45.387,217.003c-61.335,20.872-107.994,23.416-113.274,3.267-5.962-22.745,42.745-66.871,113.274-105.247v-11.092c-89.715,47.17-152.79,103.068-145.372,131.367,6.606,25.204,67.133,20.872,145.372-7.192v-11.103Z"/><path class="cls-4" d="m285.549,54.797c-6.788-25.896-70.485-20.62-151.846,9.554V29.696l-40.92-14.118v182.839c-7.117,3.143-14.137,6.09-21.033,8.831V8.321L51.861,1.459v245.645l19.888,6.862v-35.948c6.92-2.811,13.937-5.787,21.033-8.927v52.131l40.92,14.118v-85.798c93.145-47.849,159.442-105.769,151.846-134.746Zm-151.846,123.788v-103.27c64.528-22.942,114.282-26.346,119.749-5.49,6.144,23.439-45.718,69.602-119.749,108.76Z"/></g><path class="cls-1" d="m0,218.092h9.98v29.603H0v-29.603Z"/><path class="cls-1" d="m37.447,226.719c1.733,1.721,2.601,4.313,2.601,7.781v13.194h-9.558v-11.545c0-2.649-.945-3.976-2.833-3.976-1.072,0-1.939.374-2.601,1.121-.663.747-.994,1.924-.994,3.531v10.868h-9.558v-23.132h9.093v2.283c.901-.901,1.945-1.578,3.129-2.029,1.185-.451,2.467-.677,3.849-.677,2.847,0,5.138.86,6.872,2.579Z"/><path class="cls-1" d="m67.134,226.719c1.733,1.721,2.601,4.313,2.601,7.781v13.194h-9.558v-11.545c0-2.649-.945-3.976-2.833-3.976-1.072,0-1.939.374-2.601,1.121-.663.747-.994,1.924-.994,3.531v10.868h-9.558v-23.132h9.093v2.283c.901-.901,1.945-1.578,3.129-2.029,1.185-.451,2.467-.677,3.849-.677,2.847,0,5.138.86,6.872,2.579Z"/><path class="cls-1" d="m79.186,246.574c-2.045-1.028-3.645-2.452-4.8-4.271-1.156-1.818-1.734-3.884-1.734-6.195s.578-4.377,1.734-6.195c1.155-1.818,2.755-3.235,4.8-4.25,2.044-1.016,4.349-1.522,6.914-1.522,2.594,0,4.912.507,6.957,1.522,2.043,1.015,3.637,2.432,4.778,4.25s1.713,3.884,1.713,6.195-.571,4.377-1.713,6.195-2.735,3.242-4.778,4.271c-2.045,1.03-4.363,1.544-6.957,1.544-2.565,0-4.87-.514-6.914-1.544Zm9.62-7.104c.705-.803,1.058-1.924,1.058-3.361s-.353-2.552-1.058-3.341c-.704-.789-1.606-1.185-2.706-1.185s-2.002.396-2.706,1.185c-.705.789-1.058,1.902-1.058,3.341s.353,2.559,1.058,3.361c.704.804,1.606,1.206,2.706,1.206s2.002-.402,2.706-1.206Z"/><path class="cls-1" d="m128.304,224.563l-9.304,23.132h-9.896l-9.304-23.132h9.812l4.651,12.391,4.99-12.391h9.05Z"/><path class="cls-1" d="m149.449,226.868c2.142,1.818,3.214,4.616,3.214,8.395v12.433h-8.881v-3.045c-1.1,2.312-3.285,3.468-6.555,3.468-1.833,0-3.391-.317-4.673-.951-1.283-.635-2.256-1.494-2.918-2.58-.663-1.085-.994-2.305-.994-3.658,0-2.283.873-4.017,2.622-5.201,1.747-1.185,4.397-1.776,7.95-1.776h3.849c-.311-1.804-1.763-2.706-4.356-2.706-1.043,0-2.101.162-3.171.486-1.072.324-1.988.769-2.749,1.332l-3.045-6.301c1.325-.817,2.925-1.459,4.8-1.925,1.874-.465,3.742-.697,5.604-.697,4.06,0,7.16.909,9.304,2.728Zm-7.528,14.949c.535-.366.931-.916,1.185-1.649v-1.607h-2.368c-1.945,0-2.918.649-2.918,1.945,0,.536.204.98.613,1.332.408.354.965.529,1.67.529.677,0,1.283-.184,1.818-.55Z"/><path class="cls-1" d="m173.85,246.891c-1.438.817-3.398,1.227-5.879,1.227-3.242,0-5.737-.782-7.484-2.347-1.749-1.565-2.622-3.912-2.622-7.041v-5.921h-3.172v-6.978h3.172v-6.471h9.557v6.471h4.737v6.978h-4.737v5.836c0,.705.184,1.255.55,1.649s.847.592,1.438.592c.817,0,1.536-.211,2.156-.634l2.284,6.639Z"/><path class="cls-1" d="m176.872,221.328c-1.057-.916-1.586-2.079-1.586-3.489s.529-2.572,1.586-3.488c1.058-.916,2.445-1.374,4.166-1.374,1.747,0,3.143.437,4.187,1.311,1.042.874,1.564,2.002,1.564,3.383,0,1.467-.522,2.672-1.564,3.616-1.044.944-2.439,1.416-4.187,1.416-1.721,0-3.108-.458-4.166-1.374Zm-.613,3.235h9.558v23.132h-9.558v-23.132Z"/><path class="cls-1" d="m215.799,224.563l-9.304,23.132h-9.896l-9.304-23.132h9.812l4.651,12.391,4.99-12.391h9.05Z"/><path class="cls-1" d="m241.765,238.349h-16.069c.338.874.901,1.543,1.691,2.009.789.465,1.776.697,2.96.697,1.015,0,1.867-.127,2.559-.38.69-.254,1.444-.691,2.263-1.312l4.99,5.032c-2.256,2.481-5.625,3.722-10.107,3.722-2.791,0-5.244-.514-7.358-1.544-2.114-1.028-3.75-2.459-4.905-4.292-1.156-1.832-1.734-3.891-1.734-6.174,0-2.312.571-4.377,1.713-6.195s2.707-3.235,4.694-4.25c1.987-1.016,4.222-1.522,6.703-1.522,2.34,0,4.475.465,6.406,1.396,1.931.93,3.468,2.298,4.609,4.102,1.142,1.805,1.713,3.962,1.713,6.471,0,.142-.042.888-.127,2.241Zm-14.97-6.894c-.649.536-1.072,1.298-1.27,2.284h7.443c-.197-.958-.62-1.713-1.269-2.263-.649-.55-1.467-.824-2.453-.824s-1.805.268-2.452.803Z"/><path class="cls-1" d="m285.618,235.05c.958,1.241,1.438,2.735,1.438,4.482,0,2.595-1.071,4.604-3.214,6.026-2.143,1.424-5.244,2.136-9.304,2.136h-16.662v-29.603h15.816c3.946,0,6.928.705,8.944,2.114,2.015,1.41,3.023,3.285,3.023,5.625,0,1.382-.346,2.622-1.036,3.722-.691,1.1-1.713,1.987-3.065,2.664,1.747.648,3.101,1.593,4.06,2.833Zm-17.931-9.98v4.398h4.651c2.171,0,3.257-.732,3.257-2.199s-1.086-2.199-3.257-2.199h-4.651Zm9.304,13.321c0-1.55-1.1-2.326-3.299-2.326h-6.005v4.652h6.005c2.199,0,3.299-.775,3.299-2.326Z"/><path class="cls-1" d="m306.847,224.14v8.458c-.761-.113-1.466-.17-2.114-.17-3.271,0-4.905,1.664-4.905,4.99v10.276h-9.558v-23.132h9.093v2.495c1.691-1.945,4.187-2.918,7.484-2.918Z"/><path class="cls-1" d="m329.218,226.868c2.142,1.818,3.214,4.616,3.214,8.395v12.433h-8.881v-3.045c-1.1,2.312-3.285,3.468-6.555,3.468-1.833,0-3.391-.317-4.673-.951-1.283-.635-2.256-1.494-2.918-2.58-.663-1.085-.994-2.305-.994-3.658,0-2.283.873-4.017,2.622-5.201,1.747-1.185,4.397-1.776,7.95-1.776h3.849c-.311-1.804-1.763-2.706-4.356-2.706-1.043,0-2.101.162-3.171.486-1.072.324-1.988.769-2.749,1.332l-3.045-6.301c1.325-.817,2.925-1.459,4.8-1.925,1.874-.465,3.742-.697,5.604-.697,4.06,0,7.16.909,9.304,2.728Zm-7.528,14.949c.535-.366.931-.916,1.185-1.649v-1.607h-2.368c-1.945,0-2.918.649-2.918,1.945,0,.536.204.98.613,1.332.408.354.965.529,1.67.529.677,0,1.283-.184,1.818-.55Z"/><path class="cls-1" d="m337.188,221.328c-1.057-.916-1.586-2.079-1.586-3.489s.529-2.572,1.586-3.488c1.058-.916,2.445-1.374,4.166-1.374,1.747,0,3.143.437,4.187,1.311,1.042.874,1.564,2.002,1.564,3.383,0,1.467-.522,2.672-1.564,3.616-1.044.944-2.439,1.416-4.187,1.416-1.721,0-3.108-.458-4.166-1.374Zm-.613,3.235h9.558v23.132h-9.558v-23.132Z"/><path class="cls-1" d="m373.304,226.719c1.733,1.721,2.601,4.313,2.601,7.781v13.194h-9.558v-11.545c0-2.649-.945-3.976-2.833-3.976-1.072,0-1.939.374-2.601,1.121-.663.747-.994,1.924-.994,3.531v10.868h-9.558v-23.132h9.093v2.283c.901-.901,1.945-1.578,3.129-2.029,1.185-.451,2.467-.677,3.849-.677,2.847,0,5.138.86,6.872,2.579Z"/><path class="cls-1" d="m383.262,247.483c-1.917-.423-3.468-.973-4.651-1.648l2.622-6.302c1.071.649,2.34,1.156,3.806,1.522,1.466.367,2.89.55,4.271.55,1.1,0,1.867-.091,2.305-.274.437-.184.655-.458.655-.825s-.274-.619-.824-.761c-.55-.141-1.445-.281-2.686-.423-1.89-.226-3.496-.515-4.821-.867s-2.488-1.036-3.488-2.051c-1.002-1.015-1.502-2.467-1.502-4.355,0-1.494.451-2.834,1.354-4.018.902-1.185,2.248-2.129,4.039-2.834,1.79-.704,3.939-1.057,6.448-1.057,1.748,0,3.461.162,5.139.486,1.677.324,3.108.797,4.292,1.416l-2.622,6.302c-2.029-1.128-4.257-1.691-6.682-1.691-2.086,0-3.129.366-3.129,1.099,0,.367.281.628.846.783.563.155,1.451.303,2.664.443,1.889.227,3.489.522,4.8.889s2.467,1.057,3.468,2.072c1,1.015,1.501,2.467,1.501,4.355,0,1.438-.451,2.749-1.353,3.933-.903,1.185-2.256,2.129-4.061,2.833-1.805.705-3.989,1.058-6.555,1.058-1.974,0-3.919-.211-5.836-.635Z"/></g></svg>