<?xml version="1.0" encoding="UTF-8"?><svg id="_レイヤー_2" xmlns="http://www.w3.org/2000/svg" viewBox="0 0 395.13 239.912"><defs><style>.cls-1{fill:#fff;}.cls-2{fill:none;}</style></defs><g id="_レイヤー_1-2"><path class="cls-2" d="m198.069,180.918l-.298.131c-7.197,3.179-14.416,6.209-21.455,9.008l-.685.272V0h-19.27v229.858l19.27,6.648v-36.273l.312-.127c7.084-2.878,14.292-5.937,21.424-9.093l.702-.311v49.208h40.706v-68.67l.271-.14c95.643-49.132,162.066-107.928,154.509-136.763-1.267-4.83-4.588-8.673-9.872-11.421-22.145-11.519-77.412-3.281-144.234,21.501l-.674.25V8.986L212.729,0h-14.66v180.918Zm40.706-126.146l.332-.118c53.562-19.042,96.236-24.751,114.158-15.274,4.558,2.41,7.432,5.783,8.543,10.023,6.233,23.78-45.201,70.638-122.3,111.418l-.733.388V54.772Z"/><path class="cls-2" d="m360.841,49.656c-1.038-3.958-3.744-7.119-8.044-9.393-17.646-9.33-59.878-3.642-113.022,15.214v104.071c76.287-40.474,127.163-86.631,121.066-109.893Z"/><path class="cls-2" d="m149.763,95.894l-.261.142c-72.606,39.506-121.058,84.381-115.207,106.703,1.025,3.909,3.68,7.04,7.892,9.303,16.691,8.973,56.661,4.121,106.915-12.98l.661-.225v12.367l-.331.119c-44.554,15.98-82.896,24.342-109.618,24.342-12.288,0-22.117-1.768-28.964-5.376-5.463-2.879-8.906-6.91-10.235-11.979-7.533-28.736,54.885-85.285,148.416-134.46l.732-.385v12.43Z"/><path class="cls-2" d="m197.069,180.267V0h-20.438v188.856c6.714-2.679,13.584-5.566,20.438-8.589Z"/><path class="cls-2" d="m1.581,218.055c1.255,4.788,4.53,8.605,9.735,11.349,21.134,11.137,73.778,3.894,137.446-18.904v-10.267c-50.201,17.005-90.192,21.751-107.05,12.689-4.466-2.401-7.287-5.742-8.385-9.93-6.056-23.102,41.4-67.368,115.435-107.693v-10.18c-44.227,23.313-83.401,49.47-110.373,73.702C11.074,183.361-1.999,204.398,1.581,218.055Z"/><path class="cls-1" d="m.615,218.309c1.329,5.07,4.772,9.101,10.235,11.979,6.847,3.608,16.676,5.376,28.964,5.376,26.722,0,65.064-8.361,109.618-24.342l.331-.119v-12.367l-.661.225c-50.254,17.101-90.224,21.953-106.915,12.98-4.212-2.264-6.866-5.394-7.892-9.303-5.851-22.322,42.601-67.197,115.207-106.703l.261-.142v-12.43l-.732.385C55.499,133.024-6.919,189.573.615,218.309Zm148.148-123.009c-74.034,40.326-121.49,84.592-115.435,107.693,1.098,4.188,3.919,7.529,8.385,9.93,16.857,9.062,56.849,4.315,107.05-12.689v10.267c-63.668,22.797-116.312,30.041-137.446,18.904-5.205-2.743-8.48-6.561-9.735-11.349-3.58-13.657,9.492-34.694,36.809-59.234,26.972-24.231,66.146-50.388,110.373-73.702v10.18Z"/><path class="cls-1" d="m198.069,190.704l-.702.311c-7.132,3.156-14.34,6.215-21.424,9.093l-.312.127v36.273l-19.27-6.648V0h-1v230.571l21.27,7.338v-37.003c6.761-2.75,13.631-5.664,20.438-8.667v47.673h1v-49.208Z"/><path class="cls-1" d="m355.491,96.042c28.942-25.562,42.804-47.564,39.031-61.956-1.341-5.115-4.832-9.171-10.378-12.055-22.312-11.607-77.595-3.48-144.369,21.202V8.273L215.795,0h-3.066l26.046,8.986v35.683l.674-.25c66.822-24.782,122.09-33.021,144.234-21.501,5.284,2.749,8.605,6.591,9.872,11.421,7.558,28.835-58.866,87.631-154.509,136.763l-.271.14v68.67h1v-68.06c46.122-23.716,87.209-50.633,115.716-75.811Z"/><path class="cls-1" d="m175.631,190.33l.685-.272c7.039-2.799,14.258-5.829,21.455-9.008l.298-.131V0h-1v180.267c-6.854,3.023-13.724,5.911-20.438,8.589V0h-1v190.33Z"/><path class="cls-1" d="m361.808,49.403c-1.111-4.241-3.985-7.613-8.543-10.023-17.922-9.477-60.597-3.768-114.158,15.274l-.332.118v106.438l.733-.388c77.099-40.78,128.533-87.639,122.3-111.418Zm-122.033,6.075c53.145-18.856,95.377-24.544,113.022-15.214,4.3,2.274,7.006,5.434,8.044,9.393,6.097,23.262-44.779,69.419-121.066,109.893V55.478Z"/></g></svg>