<?xml version="1.0" encoding="UTF-8"?><svg id="_レイヤー_2" xmlns="http://www.w3.org/2000/svg" viewBox="0 0 320.019 55.884"><defs><style>.cls-1{fill:#0068b6;}.cls-2{fill:#4c4948;}</style></defs><g id="_レイヤー_1-2"><path class="cls-2" d="m146.808,39.17h-15.862c-.367,0-.668-.249-.668-.554v-14.337c0-.305-.301-.554-.668-.554h-3.997c-.367,0-.668.249-.668.554v17.913c0,.305.301.554.668.554h21.195c.367,0,.668-.249.668-.554v-2.467c0-.305-.301-.554-.668-.554Z"/><path class="cls-2" d="m187.422,23.725h-3.997c-.367,0-.668.249-.668.554v14.337c0,.305-.301.554-.668.554h-13.863c-.367,0-.668-.249-.668-.554v-14.337c0-.305-.301-.554-.668-.554h-3.998c-.367,0-.668.249-.668.554v13.97c0,1.556.329,2.639.948,3.302.079.109.162.204.253.274.089.069.21.132.347.192.851.477,2.209.73,4.141.73h14.489c1.932,0,3.29-.253,4.141-.73.138-.06.258-.123.347-.192.09-.07.174-.165.253-.274.619-.663.948-1.746.948-3.302v-13.97c0-.305-.301-.554-.668-.554Z"/><path class="cls-2" d="m272.648,39.17h-17.017c-.367,0-.668-.249-.668-.554v-3.61c0-.305.301-.554.668-.554h9.24c.367,0,.668-.249.668-.554v-2.135c0-.305-.301-.554-.668-.554h-9.24c-.367,0-.668-.249-.668-.554v-3.131c0-.305.301-.554.668-.554h16.795c.367,0,.668-.249.668-.554v-2.136c0-.305-.301-.554-.668-.554h-22.129c-.367,0-.668.249-.668.554v17.913c0,.305.301.554.668.554h22.351c.367,0,.668-.249.668-.554v-2.467c0-.305-.301-.554-.668-.554Z"/><path class="cls-2" d="m319.351,23.725h-2.93c-.367,0-.85.198-1.073.441l-9.767,10.62c-.223.242-.59.244-.816.003l-9.978-10.627c-.226-.24-.711-.437-1.079-.437h-2.975c-.367,0-.668.249-.668.554v17.913c0,.305.301.554.668.554h2.975c.367,0,.668-.249.668-.554v-10.651c0-.305-.009-.803-.02-1.108l-.063-.921c-.028-.304.082-.329.245-.056l.709.997c.204.253.552.66.772.904l7.821,8.66c.22.244.641.444.934.444s.714-.199.935-.443l7.818-8.625c.221-.244.56-.655.753-.914l.676-1.027c.168-.271.278-.244.243.059l-.086.922c-.016.305-.029.803-.029,1.108v10.651c0,.305.301.554.668.554h3.597c.367,0,.668-.249.668-.554v-17.913c0-.305-.301-.554-.668-.554Z"/><path class="cls-2" d="m230.412,32.056c-.091-.068-.213-.132-.352-.191-.864-.477-2.232-.73-4.168-.73h-13.675c-.367,0-.668-.249-.668-.554v-2.984c0-.305.301-.554.668-.554h13.729c.367,0,.668.249.668.554v1.067c0,.305.293.497.65.427l2.824-.552h0c1.317-.258,1.177-1.495,1.177-1.495-.131-1.134-.524-1.956-1.206-2.433-.096-.067-.221-.129-.362-.187-.876-.456-2.21-.698-4.059-.698h-13.022c-1.933,0-3.291.253-4.141.73-.137.06-.258.123-.347.192-.091.07-.174.165-.253.274-.619.663-.947,1.745-.947,3.301v2.101c0,1.556.328,2.639.947,3.301.079.11.163.205.253.274.09.069.21.132.348.192.851.477,2.208.729,4.14.729h13.642c.367,0,.668.249.668.554v3.242c0,.305-.301.554-.668.554h-14.886c-.367,0-.668-.249-.668-.554v-1.141c0-.305-.294-.503-.654-.441l-2.573.443c-1.664.287-1.426,1.693-1.426,1.693.111,1.114.434,1.928.962,2.45.064.079.131.15.202.204.091.069.213.132.352.192.862.477,2.227.73,4.159.73h14.176c1.932,0,3.297-.253,4.159-.729.139-.06.261-.123.352-.192.092-.07.178-.165.258-.274.63-.663.965-1.746.965-3.302v-2.617c0-1.557-.335-2.639-.967-3.302-.08-.109-.165-.204-.257-.274Z"/><path class="cls-2" d="m104.642,23.725h-18.975c-.367,0-.668.249-.668.554v17.913c0,.305.301.554.668.554h3.908c.367,0,.668-.249.668-.554v-6.301c0-.305.301-.554.668-.554h13.731c3.437,0,5.156-1.229,5.156-3.686v-4.239c0-2.458-1.719-3.686-5.156-3.686Zm0,6.281c0,.305-.05.8-.112,1.1,0,0-.11.538-.554.761-.053.024-.123.043-.188.064-.36.097-.878.126-.878.126-.367.02-.967.036-1.335.036h-10.663c-.367,0-.668-.249-.668-.554v-4.016c0-.305.301-.554.668-.554h10.663c.367,0,.968.016,1.335.035,0,0,.517.029.878.125.066.02.136.039.189.063.444.225.554.762.554.762.062.3.112.796.112,1.1v.95Z"/><path class="cls-2" d="m29.783,43.98c-12.515,4.259-22.035,4.778-23.113.667-1.216-4.641,8.722-13.645,23.113-21.475v-2.263C11.477,30.534-1.393,41.939.121,47.713c1.348,5.143,13.698,4.259,29.662-1.467v-2.266Z"/><path class="cls-1" d="m78.787,10.883c-1.385-5.284-14.382-4.207-30.983,1.95v-7.071l-8.35-2.881v37.307c-1.452.641-2.885,1.243-4.292,1.802V1.4l-4.058-1.4v50.122l4.058,1.4v-7.335c1.412-.574,2.844-1.181,4.292-1.822v10.637l8.35,2.881v-17.507c19.006-9.763,32.533-21.582,30.983-27.494Zm-30.983,25.258V15.07c13.167-4.681,23.319-5.376,24.434-1.12,1.254,4.783-9.328,14.202-24.434,22.192Z"/></g></svg>