<?xml version="1.0" encoding="UTF-8"?><svg id="_レイヤー_2" xmlns="http://www.w3.org/2000/svg" viewBox="0 0 72.224 58.447"><defs><style>.cls-1{fill:#0068b6;}</style></defs><g id="_レイヤー_1-2"><path class="cls-1" d="m67.567,58.447H4.659C2.092,58.447.003,56.358.003,53.79V4.657C.003,2.089,2.092,0,4.659,0h62.908c2.567,0,4.657,2.089,4.657,4.657v49.133c0,2.568-2.09,4.657-4.657,4.657ZM4.659,2.157c-1.378,0-2.5,1.121-2.5,2.5v49.133c0,1.379,1.121,2.5,2.5,2.5h62.908c1.379,0,2.5-1.121,2.5-2.5V4.657c0-1.379-1.121-2.5-2.5-2.5H4.659Z"/><path class="cls-1" d="m71.143,13.042H1.078c-.595,0-1.078-.483-1.078-1.078v-7.305C0,2.09,2.09.001,4.657.001h62.908c2.567,0,4.657,2.089,4.657,4.657v7.305c0,.596-.483,1.078-1.079,1.078ZM2.157,10.885h67.908v-6.227c0-1.379-1.122-2.5-2.5-2.5H4.657c-1.379,0-2.5,1.121-2.5,2.5v6.227Z"/><path class="cls-1" d="m6.504,7.597c-.281,0-.561-.115-.755-.317-.208-.194-.324-.475-.324-.762,0-.28.115-.561.324-.762.244-.244.618-.359.971-.295.064.014.137.036.201.065.065.029.122.057.187.1.057.036.108.079.158.129.202.202.317.482.317.762,0,.072-.007.144-.022.215-.014.065-.029.137-.057.202-.029.065-.065.13-.1.187-.036.058-.087.108-.137.158-.05.05-.1.101-.158.137-.065.043-.122.072-.187.101-.064.029-.137.051-.201.065-.072.007-.144.015-.216.015Z"/><path class="cls-1" d="m15.153,7.597c-.071,0-.144-.007-.208-.022-.072-.007-.137-.029-.202-.057-.065-.029-.13-.057-.187-.101-.057-.036-.115-.086-.165-.13-.051-.05-.093-.108-.137-.165-.036-.057-.072-.122-.094-.187-.029-.065-.05-.137-.065-.202-.014-.072-.022-.144-.022-.215,0-.065.008-.137.022-.209.015-.065.036-.137.065-.201.022-.065.057-.13.094-.187.043-.058.086-.115.137-.166.051-.05.108-.093.165-.129.057-.043.122-.072.187-.1.065-.029.129-.051.202-.065.136-.029.28-.029.416,0,.072.014.137.036.209.065.065.029.122.057.18.1.065.036.115.079.166.129.051.051.093.108.136.166.037.057.072.122.094.187.029.064.05.136.065.201.014.072.021.144.021.209,0,.072-.007.144-.021.215-.015.065-.036.137-.065.202-.022.065-.057.13-.094.187-.043.058-.085.115-.136.165-.051.043-.101.094-.166.13-.058.043-.114.072-.18.101-.071.029-.136.051-.209.057-.064.015-.136.022-.208.022Z"/><path class="cls-1" d="m10.832,7.604c-.287,0-.568-.122-.762-.324-.202-.194-.316-.475-.316-.762,0-.065.007-.137.022-.209.014-.065.036-.137.057-.201.029-.065.065-.13.1-.187.044-.058.086-.115.137-.166.244-.244.618-.359.97-.295.072.014.137.036.202.065.065.029.129.057.187.1.058.036.115.079.166.129.05.051.094.108.129.166.043.057.079.122.1.187.029.064.051.136.065.201.014.072.021.144.021.209,0,.288-.115.568-.316.762-.051.05-.108.101-.166.137-.057.043-.122.072-.187.101-.065.029-.129.051-.202.065-.071.015-.136.022-.208.022Z"/><path class="cls-1" d="m62.822,51.126H9.402c-.595,0-1.079-.483-1.079-1.078s.483-1.079,1.079-1.079h53.42c.595,0,1.078.483,1.078,1.079s-.483,1.078-1.078,1.078Z"/><path class="cls-1" d="m20.597,51.126h-7.487c-.595,0-1.078-.483-1.078-1.078v-8.916c0-.595.483-1.078,1.078-1.078h7.487c.595,0,1.078.483,1.078,1.078v8.916c0,.595-.483,1.078-1.078,1.078Zm-6.409-2.157h5.33v-6.759h-5.33v6.759Z"/><path class="cls-1" d="m33.436,51.126h-7.487c-.595,0-1.078-.483-1.078-1.078v-19.615c0-.596.483-1.078,1.078-1.078h7.487c.596,0,1.078.483,1.078,1.078v19.615c0,.595-.483,1.078-1.078,1.078Zm-6.409-2.157h5.331v-17.458h-5.331v17.458Z"/><path class="cls-1" d="m46.275,51.126h-7.487c-.596,0-1.078-.483-1.078-1.078v-13.909c0-.596.483-1.078,1.078-1.078h7.487c.595,0,1.079.483,1.079,1.078v13.909c0,.595-.483,1.078-1.079,1.078Zm-6.409-2.157h5.331v-11.752h-5.331v11.752Z"/><path class="cls-1" d="m59.114,51.126h-7.487c-.595,0-1.079-.483-1.079-1.078v-26.748c0-.596.483-1.078,1.079-1.078h7.487c.595,0,1.078.483,1.078,1.078v26.748c0,.595-.483,1.078-1.078,1.078Zm-6.409-2.157h5.33v-24.591h-5.33v24.591Z"/></g></svg>