<?xml version="1.0" encoding="UTF-8"?><svg id="_レイヤー_2" xmlns="http://www.w3.org/2000/svg" viewBox="0 0 62.542 67.614"><defs><style>.cls-1{fill:#0068b6;}</style></defs><g id="_レイヤー_1-2"><path class="cls-1" d="m31.003,67.614c-3.804,0-6.89-2.978-7.025-6.779l-.03-.824c-.242-6.778-2.417-13.427-6.29-19.227-2.158-3.23-3.068-7.002-2.634-10.909.834-7.502,6.883-13.55,14.383-14.382,4.727-.524,9.256.919,12.766,4.061,3.462,3.1,5.448,7.541,5.448,12.185,0,3.359-1.013,6.584-2.928,9.329-4.108,5.887-6.413,12.722-6.665,19.766-.135,3.801-3.222,6.779-7.026,6.779Zm.287-50.015c-.542,0-1.09.03-1.64.091-6.481.719-11.708,5.946-12.428,12.429-.377,3.382.41,6.645,2.274,9.437,4.102,6.142,6.406,13.188,6.662,20.376l.03.824c.093,2.606,2.208,4.647,4.816,4.647s4.724-2.041,4.817-4.647c.267-7.47,2.709-14.715,7.061-20.952,1.655-2.372,2.53-5.161,2.53-8.064,0-4.016-1.718-7.857-4.712-10.538-2.627-2.352-5.919-3.602-9.408-3.602Z"/><path class="cls-1" d="m31.039,55.733c-3.962,0-6.644-1.496-6.81-1.591-.53-.303-.713-.978-.41-1.508.304-.53.979-.712,1.505-.412h0c.213.12,5.281,2.899,11.677-.043.553-.255,1.211-.013,1.465.542.256.555.013,1.211-.542,1.466-2.518,1.158-4.868,1.546-6.885,1.546Z"/><path class="cls-1" d="m31.271,11.037c-.61,0-1.105-.495-1.105-1.105V1.106c0-.611.495-1.106,1.105-1.106s1.105.495,1.105,1.106v8.826c0,.61-.495,1.105-1.105,1.105Z"/><path class="cls-1" d="m17.256,16.138c-.316,0-.629-.135-.848-.395l-5.674-6.761c-.392-.468-.331-1.165.137-1.557.467-.393,1.165-.331,1.557.136l5.674,6.761c.392.468.331,1.165-.137,1.557-.207.174-.459.259-.71.259Z"/><path class="cls-1" d="m9.799,29.055c-.064,0-.128-.005-.194-.017l-8.692-1.533c-.601-.106-1.003-.679-.897-1.28.106-.602.679-1.003,1.281-.897l8.692,1.533c.601.106,1.002.679.897,1.28-.095.536-.561.913-1.087.913Z"/><path class="cls-1" d="m4.744,48.157c-.381,0-.753-.198-.958-.553-.305-.529-.124-1.205.405-1.51l7.644-4.413c.528-.304,1.206-.125,1.51.405.306.529.125,1.205-.404,1.51l-7.644,4.413c-.174.101-.364.148-.552.148Z"/><path class="cls-1" d="m57.797,48.157c-.188,0-.378-.048-.552-.148l-7.643-4.413c-.529-.305-.71-.981-.404-1.51.305-.529.982-.709,1.51-.405l7.643,4.413c.529.306.71.981.404,1.51-.204.355-.576.553-.958.553Z"/><path class="cls-1" d="m52.743,29.055c-.526,0-.992-.377-1.088-.913-.106-.601.296-1.175.897-1.28l8.692-1.533c.598-.106,1.174.295,1.281.897.106.601-.296,1.174-.897,1.28l-8.692,1.533c-.065.012-.129.017-.193.017Z"/><path class="cls-1" d="m45.285,16.138c-.25,0-.502-.085-.71-.258-.467-.393-.529-1.09-.136-1.557l5.673-6.761c.392-.467,1.088-.53,1.557-.136.467.392.529,1.089.136,1.557l-5.673,6.761c-.219.26-.531.395-.848.395Z"/><polygon class="cls-1" points="24.476 53.253 30.85 54.718 37.913 53.426 36.707 63.417 31.367 66.776 25.252 63.158 24.476 53.253"/></g></svg>