<?xml version="1.0" encoding="utf-8"?>
<!-- Generator: Adobe Illustrator 28.1.0, SVG Export Plug-In . SVG Version: 6.00 Build 0)  -->
<svg version="1.1" id="_レイヤー_2" xmlns="http://www.w3.org/2000/svg" xmlns:xlink="http://www.w3.org/1999/xlink" x="0px"
	 y="0px" viewBox="0 0 164.6 164.6" style="enable-background:new 0 0 164.6 164.6;" xml:space="preserve">
<style type="text/css">
	.st0{fill:#005AAA;}
	.st1{fill:#FFFFFF;}
	.st2{enable-background:new    ;}
	.st3{fill:#0068B6;}
</style>
<g id="_レイヤー_1-2">
	<path class="st0" d="M82.3,0C36.9,0,0,36.8,0,82.3s36.9,82.3,82.3,82.3s82.3-36.9,82.3-82.3S127.8,0,82.3,0z M82.3,139.8
		c-31.7,0-57.5-25.7-57.5-57.5s25.7-57.5,57.5-57.5s57.5,25.7,57.5,57.5S114.1,139.8,82.3,139.8z"/>
	<circle class="st1" cx="82.3" cy="82.3" r="63.9"/>
	<circle class="st1" cx="82.3" cy="82.3" r="63.9"/>
	<g class="st2">
		<path class="st3" d="M52,44.9v2.5H57v2.4H52v3.8h-3.2V42.5h8.8v2.4H52z"/>
		<path class="st3" d="M59,41.8h3v11.9h-3V41.8z"/>
		<path class="st3" d="M65.8,53.2c-0.7-0.4-1.3-0.9-1.8-1.6s-0.6-1.5-0.6-2.3c0-0.9,0.2-1.6,0.6-2.3s1-1.2,1.7-1.6
			c0.7-0.4,1.6-0.6,2.5-0.6c0.9,0,1.8,0.2,2.5,0.6s1.3,0.9,1.7,1.6c0.4,0.7,0.6,1.4,0.6,2.3c0,0.9-0.2,1.6-0.6,2.3s-1,1.2-1.7,1.6
			c-0.7,0.4-1.6,0.6-2.5,0.6C67.4,53.8,66.6,53.6,65.8,53.2z M69.6,50.9c0.3-0.4,0.5-0.9,0.5-1.5c0-0.6-0.2-1.1-0.5-1.5
			c-0.3-0.4-0.8-0.5-1.3-0.5c-0.5,0-1,0.2-1.3,0.5c-0.3,0.4-0.5,0.9-0.5,1.5c0,0.7,0.2,1.2,0.5,1.5c0.3,0.4,0.8,0.6,1.3,0.6
			C68.9,51.4,69.3,51.2,69.6,50.9z"/>
		<path class="st3" d="M88.8,45l-3.1,8.7h-2.9L81.1,49l-1.7,4.7h-2.9L73.4,45h2.9l1.8,5.2l1.8-5.2h2.6l1.8,5.3l1.8-5.3H88.8z"/>
		<path class="st3" d="M96.3,53.2c-0.7-0.5-1.3-1.1-1.8-2c-0.4-0.9-0.6-1.9-0.6-3.1c0-1.2,0.2-2.2,0.6-3.1c0.4-0.9,1-1.5,1.8-2
			c0.7-0.5,1.6-0.7,2.6-0.7c0.9,0,1.8,0.2,2.5,0.7c0.7,0.5,1.3,1.1,1.8,2c0.4,0.9,0.6,1.9,0.6,3.1c0,1.2-0.2,2.2-0.6,3.1
			c-0.4,0.9-1,1.5-1.8,2c-0.7,0.5-1.6,0.7-2.5,0.7C97.9,53.9,97,53.7,96.3,53.2z M100.1,50.5c0.3-0.5,0.5-1.3,0.5-2.5
			c0-1.1-0.2-1.9-0.5-2.5c-0.3-0.5-0.7-0.8-1.3-0.8c-0.5,0-1,0.3-1.3,0.8c-0.3,0.5-0.5,1.3-0.5,2.5c0,1.1,0.2,1.9,0.5,2.5
			c0.3,0.5,0.7,0.8,1.3,0.8C99.4,51.3,99.8,51.1,100.1,50.5z"/>
		<path class="st3" d="M115.4,51.5h-1.7v2.1h-3.1v-2.1h-5.9v-2.1l5-7h3.3l-4.6,6.5h2.3v-1.9h3V49h1.7V51.5z"/>
	</g>
	<path class="st3" d="M112.4,118.5H53.3c-2.4,0-4.3-1.9-4.3-4.3V67.9c0-2.4,1.9-4.3,4.3-4.3h59.1c2.4,0,4.3,1.9,4.3,4.3v46.2
		C116.7,116.5,114.8,118.5,112.4,118.5z M53.3,65.6c-1.3,0-2.3,1-2.3,2.3v46.2c0,1.3,1,2.3,2.3,2.3h59.1c1.3,0,2.3-1,2.3-2.3V67.9
		c0-1.3-1-2.3-2.3-2.3H53.3z"/>
	<path class="st3" d="M115.7,75.8H49.9c-0.6,0-1-0.4-1-1V68c0-2.4,1.9-4.3,4.3-4.3h59.1c2.4,0,4.3,1.9,4.3,4.3v6.9
		C116.7,75.4,116.3,75.8,115.7,75.8z M50.9,73.8h63.8v-5.9c0-1.3-1-2.3-2.3-2.3H53.2c-1.3,0-2.3,1-2.3,2.3L50.9,73.8L50.9,73.8z"/>
	<path class="st3" d="M55,70.7c-0.3,0-0.5-0.1-0.7-0.3C54.1,70.3,54,70,54,69.7s0.1-0.5,0.3-0.7c0.4-0.4,1-0.4,1.4,0
		c0.2,0.2,0.3,0.4,0.3,0.7s-0.1,0.5-0.3,0.7C55.5,70.6,55.3,70.7,55,70.7z"/>
	<path class="st3" d="M63.1,70.7c-0.3,0-0.5-0.1-0.7-0.3c-0.2-0.2-0.3-0.4-0.3-0.7s0.1-0.5,0.3-0.7c0.4-0.4,1-0.4,1.4,0
		c0.2,0.2,0.3,0.4,0.3,0.7s-0.1,0.5-0.3,0.7C63.7,70.6,63.4,70.7,63.1,70.7z"/>
	<path class="st3" d="M59.1,70.7c-0.3,0-0.5-0.1-0.7-0.3c-0.2-0.2-0.3-0.4-0.3-0.7s0.1-0.5,0.3-0.7c0.4-0.4,1-0.4,1.4,0
		c0.2,0.2,0.3,0.4,0.3,0.7s-0.1,0.5-0.3,0.7C59.6,70.6,59.3,70.7,59.1,70.7z"/>
	<path class="st3" d="M72,105.4c-1.9,0-3.8-0.8-5.1-2.4c-2.3-2.8-1.8-6.9,1-9.2c1.4-1.1,3.1-1.6,4.8-1.4s3.3,1,4.4,2.4
		c2.3,2.8,1.8,6.9-1,9.2C74.9,104.9,73.5,105.4,72,105.4L72,105.4z M72,94.4c-1,0-2,0.3-2.8,1c-1.9,1.6-2.2,4.4-0.7,6.3
		c1.6,1.9,4.4,2.2,6.3,0.7s2.2-4.4,0.7-6.3c-0.8-0.9-1.8-1.5-3-1.7C72.4,94.4,72.2,94.4,72,94.4L72,94.4z"/>
	<path class="st3" d="M71.6,112.5c-0.1,0-0.2,0-0.3,0l-1.5-0.2c-1.4-0.1-2.4-1.4-2.2-2.8l0.1-0.8c-0.6-0.2-1.1-0.5-1.6-0.9l-0.7,0.5
		c-0.5,0.4-1.2,0.6-1.9,0.5c-0.7-0.1-1.3-0.4-1.7-0.9l-0.9-1.2c-0.9-1.1-0.7-2.7,0.4-3.5l0.7-0.5c-0.2-0.6-0.4-1.1-0.5-1.7l-0.8-0.1
		c-1.4-0.1-2.4-1.4-2.2-2.8l0.2-1.5c0.1-0.7,0.4-1.3,0.9-1.7c0.5-0.4,1.2-0.6,1.8-0.5l0.8,0.1c0.2-0.6,0.5-1.1,0.9-1.6l-0.5-0.7
		c-0.4-0.5-0.6-1.2-0.5-1.9c0.1-0.7,0.4-1.3,0.9-1.7l1.2-0.9c0.5-0.4,1.2-0.6,1.8-0.5c0.7,0.1,1.3,0.4,1.7,0.9l0.5,0.7
		c0.6-0.2,1.1-0.4,1.7-0.5l0.1-0.8c0.1-1.4,1.4-2.4,2.8-2.2l1.5,0.2c0.7,0.1,1.3,0.4,1.7,0.9c0.4,0.5,0.6,1.2,0.5,1.9l-0.1,0.8
		c0.6,0.2,1.1,0.5,1.6,0.9l0.7-0.5l0,0c1.1-0.9,2.7-0.7,3.5,0.4l0.9,1.2c0.9,1.1,0.7,2.7-0.4,3.5L82.1,95c0.2,0.6,0.4,1.1,0.5,1.7
		l0.8,0.1c0.7,0.1,1.3,0.4,1.7,0.9s0.6,1.2,0.5,1.9l-0.2,1.5c-0.1,1.4-1.4,2.4-2.8,2.2l-0.8-0.1c-0.2,0.6-0.5,1.1-0.9,1.6l0.5,0.7
		c0.9,1.1,0.7,2.7-0.4,3.5L80,110c-0.5,0.4-1.2,0.6-1.8,0.5s-1.3-0.4-1.7-0.9l-0.5-0.7c-0.6,0.2-1.1,0.4-1.7,0.5l-0.1,0.8
		C74,111.6,72.9,112.5,71.6,112.5L71.6,112.5z M66.1,105.6c0.2,0,0.4,0.1,0.6,0.2c0.7,0.6,1.6,1,2.4,1.3c0.4,0.2,0.7,0.6,0.7,1.1
		l-0.2,1.6c0,0.3,0.2,0.5,0.5,0.6l1.5,0.2c0.3,0,0.5-0.2,0.6-0.5l0.2-1.6c0.1-0.5,0.4-0.8,0.9-0.9c0.9-0.1,1.8-0.4,2.7-0.8
		c0.4-0.2,0.9-0.1,1.2,0.3l1,1.3c0.1,0.1,0.3,0.2,0.3,0.2c0.1,0,0.2,0,0.4-0.1l1.2-0.9c0.2-0.2,0.3-0.5,0.1-0.7l-1-1.3
		c-0.3-0.4-0.3-0.9,0-1.2c0.6-0.7,1-1.6,1.3-2.4c0.2-0.4,0.6-0.7,1.1-0.7l1.6,0.2c0.3,0,0.5-0.2,0.6-0.5l0.2-1.5
		c0-0.2-0.1-0.3-0.1-0.4s-0.2-0.2-0.3-0.2l-1.5-0.2c-0.5,0-0.9-0.4-0.9-0.9c0,0,0,0,0,0c-0.1-0.9-0.4-1.8-0.8-2.6
		c-0.2-0.4-0.1-0.9,0.3-1.2l1.3-1c0.2-0.2,0.3-0.5,0.1-0.7L80.6,91c-0.2-0.2-0.5-0.3-0.7-0.1l-1.3,1c-0.4,0.3-0.9,0.3-1.2,0
		c-0.7-0.6-1.6-1-2.4-1.3c-0.4-0.2-0.7-0.6-0.7-1.1l0.2-1.6c0-0.2-0.1-0.3-0.1-0.4c-0.1-0.1-0.2-0.2-0.3-0.2l-1.5-0.2
		c-0.3,0-0.5,0.2-0.6,0.5l-0.2,1.6c-0.1,0.5-0.4,0.8-0.9,0.9c-0.9,0.1-1.8,0.4-2.7,0.8c-0.4,0.2-0.9,0.1-1.2-0.3l-1-1.3
		c-0.1-0.1-0.3-0.2-0.3-0.2c-0.1,0-0.2,0-0.4,0.1l-1.2,0.9C64,90.4,64,90.6,64,90.7s0,0.2,0.1,0.4l1,1.3c0.3,0.4,0.3,0.9,0,1.2
		c-0.6,0.7-1,1.6-1.3,2.4c-0.2,0.4-0.6,0.7-1.1,0.7l-1.6-0.2c-0.2,0-0.3,0.1-0.4,0.1s-0.2,0.2-0.2,0.3l-0.2,1.5
		c0,0.3,0.2,0.5,0.5,0.6l1.6,0.2c0.5,0.1,0.8,0.4,0.9,0.9c0.1,0.9,0.4,1.8,0.8,2.7c0.2,0.4,0.1,0.9-0.3,1.2l-1.3,1
		c-0.2,0.2-0.3,0.5-0.1,0.7l0.9,1.2c0.1,0.1,0.3,0.2,0.3,0.2c0.1,0,0.2,0,0.4-0.1l1.3-1C65.6,105.7,65.9,105.6,66.1,105.6
		L66.1,105.6z"/>
	<path class="st3" d="M95.8,97.2c-0.9,0-1.7-0.2-2.5-0.6c-1.3-0.7-2.2-1.8-2.6-3.2s-0.3-2.9,0.4-4.1c0.7-1.3,1.8-2.2,3.2-2.6
		s2.9-0.3,4.1,0.4c2.6,1.4,3.6,4.7,2.2,7.3C99.6,96.2,97.7,97.2,95.8,97.2z M95.8,88.4c-0.3,0-0.7,0-1,0.1c-0.9,0.3-1.6,0.9-2,1.7
		s-0.5,1.7-0.3,2.6c0.3,0.9,0.9,1.6,1.7,2c1.7,0.9,3.7,0.3,4.6-1.4c0.9-1.7,0.3-3.7-1.4-4.6l0,0C96.9,88.5,96.4,88.4,95.8,88.4
		L95.8,88.4z"/>
	<path class="st3" d="M97.9,103.2c-1,0-1.9-0.6-2.2-1.6l-0.2-0.6c-0.4,0-0.9-0.1-1.3-0.1l-0.3,0.5c-0.6,1.1-2,1.5-3.1,0.9l-1.1-0.6
		c-1.1-0.6-1.5-2-0.9-3.1l0.3-0.5c-0.3-0.3-0.6-0.7-0.8-1l-0.6,0.2c-0.6,0.2-1.2,0.1-1.7-0.2c-0.5-0.3-0.9-0.8-1.1-1.4l-0.4-1.2
		c-0.4-1.2,0.3-2.5,1.5-2.8l0.6-0.2c0-0.4,0.1-0.9,0.1-1.3l-0.5-0.3c-1.1-0.6-1.5-2-0.9-3.1l0.6-1.1c0.6-1.1,2-1.5,3.1-0.9l0.5,0.3
		c0.3-0.3,0.7-0.6,1-0.8l-0.2-0.6c-0.2-0.6-0.1-1.2,0.2-1.7c0.3-0.5,0.8-0.9,1.4-1.1l1.2-0.4c0.6-0.2,1.2-0.1,1.7,0.2
		c0.5,0.3,0.9,0.8,1.1,1.4l0.2,0.6c0.4,0,0.9,0.1,1.3,0.1l0.3-0.5c0.3-0.5,0.8-0.9,1.4-1.1s1.2-0.1,1.7,0.2l1.1,0.6
		c0.5,0.3,0.9,0.8,1.1,1.4s0.1,1.2-0.2,1.7l-0.3,0.5c0.3,0.3,0.6,0.7,0.8,1l0.6-0.2c1.2-0.4,2.5,0.3,2.8,1.5l0.4,1.2
		c0.2,0.6,0.1,1.2-0.2,1.7c-0.3,0.5-0.8,0.9-1.4,1.1L105,92c0,0.4-0.1,0.9-0.1,1.3l0.5,0.3c0.5,0.3,0.9,0.8,1.1,1.4s0.1,1.2-0.2,1.7
		l-0.6,1.1c-0.6,1.1-2,1.5-3.1,0.9l-0.5-0.3c-0.3,0.3-0.7,0.6-1,0.8l0.2,0.6c0.4,1.2-0.3,2.5-1.5,2.8l-1.2,0.4
		C98.4,103.2,98.1,103.2,97.9,103.2L97.9,103.2z M96.3,99c0.4,0,0.8,0.3,1,0.7l0.4,1.3c0,0.1,0.2,0.2,0.3,0.2l1.2-0.4
		c0.1,0,0.2-0.2,0.2-0.3L99,99.2c-0.1-0.4,0.1-0.9,0.5-1.2c0.7-0.4,1.3-0.9,1.8-1.4c0.3-0.3,0.8-0.4,1.2-0.2l1.2,0.6
		c0.1,0.1,0.3,0,0.4-0.1l0.6-1.1c0-0.1,0-0.2,0-0.2s-0.1-0.1-0.1-0.2l-1.2-0.6c-0.4-0.2-0.6-0.7-0.5-1.1c0.2-0.7,0.3-1.5,0.2-2.3
		c0-0.5,0.3-0.9,0.7-1l1.3-0.4c0.1,0,0.1-0.1,0.2-0.1c0,0,0-0.1,0-0.2l-0.4-1.2c0-0.1-0.2-0.2-0.3-0.2l-1.3,0.4
		c-0.4,0.1-0.9-0.1-1.2-0.5c-0.4-0.7-0.9-1.3-1.4-1.8c-0.3-0.3-0.4-0.8-0.2-1.2L101,84c0-0.1,0-0.2,0-0.2c0-0.1-0.1-0.1-0.1-0.2
		L99.8,83c-0.1,0-0.2,0-0.2,0c0,0-0.1,0.1-0.2,0.1l0,0l-0.6,1.2c-0.2,0.4-0.7,0.6-1.1,0.5c-0.7-0.2-1.5-0.3-2.3-0.2
		c-0.5,0-0.9-0.3-1-0.7L94,82.6c0-0.1-0.1-0.1-0.1-0.2c0,0-0.1,0-0.2,0l-1.2,0.4c-0.1,0-0.1,0.1-0.2,0.1c0,0,0,0.1,0,0.2l0.4,1.3
		c0.1,0.4-0.1,0.9-0.5,1.2c-0.7,0.4-1.3,0.9-1.8,1.4c-0.3,0.3-0.8,0.4-1.2,0.2L88,86.6c-0.1-0.1-0.3,0-0.4,0.1L87,87.8
		c-0.1,0.1,0,0.3,0.1,0.4l1.2,0.6c0.4,0.2,0.6,0.7,0.5,1.1c-0.2,0.7-0.3,1.5-0.2,2.3c0,0.5-0.3,0.9-0.7,1l-1.3,0.4
		c-0.1,0-0.2,0.2-0.2,0.3l0.4,1.2c0,0.1,0.1,0.1,0.1,0.2c0,0,0.1,0,0.2,0l1.3-0.4c0.4-0.1,0.9,0.1,1.2,0.5c0.4,0.7,0.9,1.3,1.4,1.8
		c0.3,0.3,0.4,0.8,0.2,1.2l-0.6,1.2c-0.1,0.1,0,0.3,0.1,0.4l1.1,0.6c0.1,0.1,0.3,0,0.4-0.1l0.6-1.2c0.2-0.4,0.7-0.6,1.1-0.5
		C94.7,99,95.5,99,96.3,99C96.3,99,96.3,99,96.3,99L96.3,99z M98.5,82.6L98.5,82.6L98.5,82.6z"/>
</g>
</svg>
