<?xml version="1.0" encoding="utf-8"?>
<!-- Generator: Adobe Illustrator 28.1.0, SVG Export Plug-In . SVG Version: 6.00 Build 0)  -->
<svg version="1.1" id="_レイヤー_2" xmlns="http://www.w3.org/2000/svg" xmlns:xlink="http://www.w3.org/1999/xlink" x="0px"
	 y="0px" viewBox="0 0 164.6 164.6" style="enable-background:new 0 0 164.6 164.6;" xml:space="preserve">
<style type="text/css">
	.st0{fill:#0078C8;}
	.st1{fill:#FFFFFF;}
	.st2{enable-background:new    ;}
	.st3{fill:#0068B6;}
</style>
<g id="_レイヤー_1-2">
	<path class="st0" d="M82.3,0C36.9,0,0,36.8,0,82.3s36.9,82.3,82.3,82.3s82.3-36.9,82.3-82.3S127.8,0,82.3,0z M82.3,139.8
		c-31.7,0-57.5-25.7-57.5-57.5s25.7-57.5,57.5-57.5s57.5,25.7,57.5,57.5S114.1,139.8,82.3,139.8z"/>
	<circle class="st1" cx="82.3" cy="82.3" r="63.9"/>
	<circle class="st1" cx="82.3" cy="82.3" r="63.9"/>
	<g class="st2">
		<path class="st3" d="M52.8,44.9v2.5h4.9v2.4h-4.9v3.8h-3.2V42.5h8.8v2.4H52.8z"/>
		<path class="st3" d="M59.8,41.8h3v11.9h-3V41.8z"/>
		<path class="st3" d="M66.7,53.2c-0.7-0.4-1.3-0.9-1.8-1.6s-0.6-1.5-0.6-2.3c0-0.9,0.2-1.6,0.6-2.3s1-1.2,1.7-1.6
			c0.7-0.4,1.6-0.6,2.5-0.6c0.9,0,1.8,0.2,2.5,0.6s1.3,0.9,1.7,1.6c0.4,0.7,0.6,1.4,0.6,2.3c0,0.9-0.2,1.6-0.6,2.3s-1,1.2-1.7,1.6
			c-0.7,0.4-1.6,0.6-2.5,0.6C68.2,53.8,67.4,53.6,66.7,53.2z M70.5,50.9c0.3-0.4,0.5-0.9,0.5-1.5c0-0.6-0.2-1.1-0.5-1.5
			c-0.3-0.4-0.8-0.5-1.3-0.5c-0.5,0-1,0.2-1.3,0.5c-0.3,0.4-0.5,0.9-0.5,1.5c0,0.7,0.2,1.2,0.5,1.5c0.3,0.4,0.8,0.6,1.3,0.6
			C69.7,51.4,70.1,51.2,70.5,50.9z"/>
		<path class="st3" d="M89.6,45l-3.1,8.7h-2.9L81.9,49l-1.7,4.7h-2.9L74.2,45h2.9l1.8,5.2l1.8-5.2h2.6l1.8,5.3l1.8-5.3H89.6z"/>
		<path class="st3" d="M97.1,53.2c-0.7-0.5-1.3-1.1-1.8-2c-0.4-0.9-0.6-1.9-0.6-3.1c0-1.2,0.2-2.2,0.6-3.1c0.4-0.9,1-1.5,1.8-2
			c0.7-0.5,1.6-0.7,2.6-0.7c0.9,0,1.8,0.2,2.5,0.7c0.7,0.5,1.3,1.1,1.8,2c0.4,0.9,0.6,1.9,0.6,3.1c0,1.2-0.2,2.2-0.6,3.1
			c-0.4,0.9-1,1.5-1.8,2c-0.7,0.5-1.6,0.7-2.5,0.7C98.7,53.9,97.9,53.7,97.1,53.2z M101,50.5c0.3-0.5,0.5-1.3,0.5-2.5
			c0-1.1-0.2-1.9-0.5-2.5c-0.3-0.5-0.7-0.8-1.3-0.8c-0.5,0-1,0.3-1.3,0.8s-0.5,1.3-0.5,2.5c0,1.1,0.2,1.9,0.5,2.5
			c0.3,0.5,0.7,0.8,1.3,0.8C100.2,51.3,100.7,51.1,101,50.5z"/>
		<path class="st3" d="M114.2,51.2v2.5h-8.7v-2l4.2-3.9c0.4-0.4,0.7-0.7,0.8-1c0.1-0.3,0.2-0.5,0.2-0.8c0-0.4-0.1-0.6-0.4-0.8
			c-0.2-0.2-0.6-0.3-1.1-0.3c-0.4,0-0.8,0.1-1.1,0.3s-0.6,0.5-0.9,0.8l-2.4-1.3c0.4-0.7,1.1-1.3,1.8-1.7s1.7-0.6,2.8-0.6
			c0.9,0,1.6,0.1,2.3,0.4c0.7,0.3,1.2,0.7,1.5,1.2c0.4,0.5,0.6,1.1,0.6,1.8c0,0.6-0.1,1.2-0.4,1.7c-0.3,0.5-0.8,1.1-1.5,1.8l-2.1,2
			H114.2z"/>
	</g>
	<path class="st3" d="M100.3,123.1H64c-2.6,0-4.6-2.1-4.6-4.6V68.9c0-2.6,2.1-4.6,4.6-4.6h36.3c2.6,0,4.6,2.1,4.6,4.6v49.6
		C104.9,121,102.8,123.1,100.3,123.1z M64,66.1c-1.5,0-2.7,1.2-2.7,2.7v49.6c0,1.5,1.2,2.7,2.7,2.7h36.3c1.5,0,2.7-1.2,2.7-2.7V68.9
		c0-1.5-1.2-2.7-2.7-2.7C100.3,66.1,64,66.1,64,66.1z"/>
	<path class="st3" d="M97.8,71.8H66.5c-0.5,0-1-0.4-1-1v-5.7c0-0.5,0.4-1,1-1h31.3c0.5,0,1,0.4,1,1v5.7
		C98.7,71.4,98.3,71.9,97.8,71.8z M67.5,69.9h29.4v-3.8H67.5V69.9z"/>
	<path class="st3" d="M71.4,87.4c-0.2,0-0.5-0.1-0.7-0.3l-2.4-2.4c-0.4-0.4-0.4-1,0-1.3s1-0.4,1.3,0l1.7,1.7l4.1-4.1
		c0.4-0.4,1-0.4,1.3,0s0.4,1,0,1.3l-4.8,4.8C71.9,87.3,71.7,87.4,71.4,87.4L71.4,87.4z"/>
	<path class="st3" d="M71.4,99.4c-0.2,0-0.5-0.1-0.7-0.3l-2.4-2.4c-0.4-0.4-0.4-1,0-1.3s1-0.4,1.3,0l1.7,1.7l4.1-4.1
		c0.4-0.4,1-0.4,1.3,0s0.4,1,0,1.3l-4.8,4.8C71.9,99.3,71.7,99.4,71.4,99.4L71.4,99.4z"/>
	<path class="st3" d="M71.4,111.4c-0.2,0-0.5-0.1-0.7-0.3l-2.4-2.4c-0.4-0.4-0.4-1,0-1.3s1-0.4,1.3,0l1.7,1.7l4.1-4.1
		c0.4-0.4,1-0.4,1.3,0c0.4,0.4,0.4,1,0,1.3l-4.8,4.8C71.9,111.3,71.7,111.4,71.4,111.4z"/>
	<path class="st3" d="M95.3,87.4H81.6c-0.5,0-1-0.4-1-1s0.4-1,1-1h13.6c0.5,0,1,0.4,1,1S95.8,87.4,95.3,87.4z"/>
	<path class="st3" d="M95.3,99.4H81.6c-0.5,0-1-0.4-1-1s0.4-1,1-1h13.6c0.5,0,1,0.4,1,1S95.8,99.4,95.3,99.4z"/>
	<path class="st3" d="M95.3,111.4H81.6c-0.5,0-1-0.4-1-1s0.4-1,1-1h13.6c0.5,0,1,0.4,1,1S95.8,111.4,95.3,111.4z"/>
</g>
</svg>
