<?xml version="1.0" encoding="UTF-8"?><svg id="_レイヤー_2" xmlns="http://www.w3.org/2000/svg" viewBox="0 0 114.141 68.156"><defs><style>.cls-1{fill:#0068b6;}</style></defs><g id="_レイヤー_1-2"><path class="cls-1" d="m101.347,59.11H12.794c-.857,0-1.551-.694-1.551-1.55V5.543c0-3.057,2.487-5.543,5.543-5.543h80.568c3.057,0,5.543,2.486,5.543,5.543v52.017c0,.856-.695,1.55-1.551,1.55Zm-87.003-3.101h85.453V5.543c0-1.347-1.096-2.442-2.442-2.442H16.787c-1.347,0-2.442,1.096-2.442,2.442v50.467Z"/><path class="cls-1" d="m112.59,68.156H1.551c-.658,0-1.244-.415-1.463-1.035-.218-.62-.021-1.312.49-1.724l11.243-9.045c.276-.222.619-.342.973-.342h88.553c.353,0,.696.121.972.342l11.243,9.045c.512.412.709,1.103.491,1.724-.219.62-.804,1.035-1.463,1.035Zm-106.638-3.101h102.237l-7.388-5.944H13.34l-7.387,5.944Z"/><path class="cls-1" d="m67.86,51.542H21.026c-.603,0-1.151-.349-1.405-.895-.254-.546-.169-1.191.217-1.652l23.417-27.9c.589-.702,1.787-.702,2.376,0l23.417,27.9c.387.461.471,1.106.217,1.652-.254.546-.802.895-1.405.895Zm-43.508-3.101h40.181l-20.091-23.937-20.09,23.937Z"/><path class="cls-1" d="m93.061,51.542h-34.305c-.856,0-1.551-.694-1.551-1.55s.695-1.551,1.551-1.551h30.979l-13.827-16.473-10.693,12.74c-.55.656-1.529.742-2.185.191-.656-.551-.742-1.529-.192-2.185l11.881-14.156c.59-.702,1.787-.702,2.377,0l17.152,20.437c.387.461.471,1.106.217,1.652-.254.546-.803.895-1.405.895Z"/><path class="cls-1" d="m62.809,18.196c-2.885,0-5.232-2.346-5.232-5.231s2.347-5.231,5.232-5.231,5.23,2.347,5.23,5.231-2.346,5.231-5.23,5.231Zm0-7.361c-1.174,0-2.13.955-2.13,2.13s.956,2.13,2.13,2.13,2.129-.956,2.129-2.13-.955-2.13-2.129-2.13Z"/><polygon class="cls-1" points="44.118 22.873 21.812 49.979 66.706 49.696 44.118 22.873"/></g></svg>