<?xml version="1.0" encoding="UTF-8"?><svg id="_レイヤー_2" xmlns="http://www.w3.org/2000/svg" viewBox="0 0 140.526 68.114"><defs><style>.cls-1{fill:#0068b6;}</style></defs><g id="_レイヤー_1-2"><path class="cls-1" d="m63.468,46.419c-1.559,0-2.819-1.219-2.87-2.776-.018-.529-.042-1.067-.068-1.608-.111-2.403-.226-4.887.219-7.225,1.119-5.87,7.03-5.87,9.555-5.87h10.642c5.193,0,8.519,2.766,8.68,7.218.071,1.978.047,3.98.024,5.915l-.016,1.492c-.013,1.574-1.302,2.854-2.873,2.854h-.004l-2.933-.003c-.489,0-.95-.124-1.352-.34-.386.218-.831.342-1.303.342h-12.102c-.47,0-.913-.122-1.297-.338-.402.214-.86.336-1.346.337l-2.952.003h-.003Zm6.836-14.59c-4.407,0-6.227.955-6.716,3.521-.382,2.004-.275,4.316-.171,6.551.025.554.051,1.104.068,1.646l2.92-.02v-4.516c0-.798.647-1.445,1.445-1.445s1.445.647,1.445,1.445v4.517h11.645l.011-4.521c.002-.796.648-1.441,1.445-1.441h.002c.798,0,1.443.648,1.443,1.445v4.531l2.918-.012v-1.491c.024-1.902.047-3.869-.022-5.777-.133-3.664-3.223-4.433-5.792-4.433h-10.642Z"/><path class="cls-1" d="m75.125,27.533c-3.49,0-6.329-2.839-6.329-6.329s2.84-6.329,6.329-6.329,6.329,2.839,6.329,6.329-2.84,6.329-6.329,6.329Zm0-9.769c-1.896,0-3.439,1.543-3.439,3.44s1.543,3.44,3.439,3.44,3.44-1.543,3.44-3.44-1.543-3.44-3.44-3.44Z"/><path class="cls-1" d="m75.052,57.328c-13.952,0-25.303-11.351-25.303-25.303s11.351-25.304,25.303-25.304,25.303,11.352,25.303,25.304-11.351,25.303-25.303,25.303Zm0-47.718c-12.358,0-22.413,10.055-22.413,22.414s10.055,22.414,22.413,22.414,22.414-10.055,22.414-22.414-10.055-22.414-22.414-22.414Z"/><path class="cls-1" d="m121.437,23.005c-5.662,0-10.267-4.606-10.267-10.267s4.606-10.267,10.267-10.267,10.267,4.606,10.267,10.267-4.606,10.267-10.267,10.267Zm0-17.645c-4.068,0-7.378,3.31-7.378,7.378s3.31,7.378,7.378,7.378,7.378-3.31,7.378-7.378-3.31-7.378-7.378-7.378Z"/><path class="cls-1" d="m130.26,56.768c-5.661,0-10.267-4.606-10.267-10.267s4.606-10.267,10.267-10.267,10.267,4.606,10.267,10.267-4.605,10.267-10.267,10.267Zm0-17.644c-4.068,0-7.378,3.309-7.378,7.377s3.31,7.378,7.378,7.378,7.377-3.309,7.377-7.378-3.309-7.377-7.377-7.377Z"/><path class="cls-1" d="m39.987,68.114c-5.662,0-10.267-4.606-10.267-10.267s4.606-10.267,10.267-10.267,10.267,4.606,10.267,10.267-4.605,10.267-10.267,10.267Zm0-17.645c-4.068,0-7.378,3.31-7.378,7.378s3.31,7.377,7.378,7.377,7.377-3.309,7.377-7.377-3.309-7.378-7.377-7.378Z"/><path class="cls-1" d="m34.058,20.534c-5.661,0-10.267-4.606-10.267-10.267S28.396,0,34.058,0s10.267,4.605,10.267,10.267-4.606,10.267-10.267,10.267Zm0-17.645c-4.068,0-7.377,3.31-7.377,7.378s3.309,7.378,7.377,7.378,7.378-3.31,7.378-7.378-3.31-7.378-7.378-7.378Z"/><path class="cls-1" d="m10.267,45.153c-5.661,0-10.267-4.606-10.267-10.267s4.606-10.267,10.267-10.267,10.266,4.606,10.266,10.267-4.605,10.267-10.266,10.267Zm0-17.645c-4.068,0-7.378,3.31-7.378,7.378s3.31,7.378,7.378,7.378,7.377-3.31,7.377-7.378-3.309-7.378-7.377-7.378Z"/><rect class="cls-1" x="46.416" y="10.843" width="2.89" height="13.737" transform="translate(10.412 52.38) rotate(-63.1)"/><rect class="cls-1" x="19.055" y="32.394" width="32.19" height="2.889" transform="translate(-2.127 2.359) rotate(-3.73)"/><rect class="cls-1" x="45.939" y="47.825" width="10.877" height="2.889" transform="translate(-19.414 41.806) rotate(-37.782)"/><rect class="cls-1" x="96.558" y="18.405" width="17.581" height="2.89" transform="translate(-.057 39.396) rotate(-21.176)"/><rect class="cls-1" x="108.552" y="28.741" width="2.89" height="24.419" transform="translate(45.255 138.852) rotate(-76.943)"/><circle class="cls-1" cx="9.654" cy="34.682" r="8.329"/><circle class="cls-1" cx="121.466" cy="12.518" r="8.471"/></g></svg>