<?xml version="1.0" encoding="utf-8"?>
<!-- Generator: Adobe Illustrator 28.1.0, SVG Export Plug-In . SVG Version: 6.00 Build 0)  -->
<svg version="1.1" id="_レイヤー_2" xmlns="http://www.w3.org/2000/svg" xmlns:xlink="http://www.w3.org/1999/xlink" x="0px"
	 y="0px" viewBox="0 0 164.6 164.6" style="enable-background:new 0 0 164.6 164.6;" xml:space="preserve">
<style type="text/css">
	.st0{fill:#0068B6;}
	.st1{fill:#FFFFFF;}
	.st2{enable-background:new    ;}
</style>
<g id="_レイヤー_1-2">
	<path class="st0" d="M82.3,0C36.9,0,0,36.8,0,82.3s36.9,82.3,82.3,82.3s82.3-36.9,82.3-82.3S127.8,0,82.3,0z M82.3,139.8
		c-31.7,0-57.5-25.7-57.5-57.5s25.7-57.5,57.5-57.5s57.5,25.7,57.5,57.5S114.1,139.8,82.3,139.8z"/>
	<circle class="st1" cx="82.3" cy="82.3" r="63.9"/>
	<circle class="st1" cx="82.3" cy="82.3" r="63.9"/>
	<g class="st2">
		<path class="st0" d="M52.8,44.9v2.5h4.9v2.4h-4.9v3.8h-3.2V42.5h8.8v2.4H52.8z"/>
		<path class="st0" d="M59.8,41.8h3v11.9h-3V41.8z"/>
		<path class="st0" d="M66.6,53.2c-0.7-0.4-1.3-0.9-1.8-1.6s-0.6-1.5-0.6-2.3c0-0.9,0.2-1.6,0.6-2.3s1-1.2,1.7-1.6
			c0.7-0.4,1.6-0.6,2.5-0.6c0.9,0,1.8,0.2,2.5,0.6s1.3,0.9,1.7,1.6c0.4,0.7,0.6,1.4,0.6,2.3c0,0.9-0.2,1.6-0.6,2.3s-1,1.2-1.7,1.6
			c-0.7,0.4-1.6,0.6-2.5,0.6C68.2,53.8,67.4,53.6,66.6,53.2z M70.4,50.9c0.3-0.4,0.5-0.9,0.5-1.5c0-0.6-0.2-1.1-0.5-1.5
			c-0.3-0.4-0.8-0.5-1.3-0.5c-0.5,0-1,0.2-1.3,0.5c-0.3,0.4-0.5,0.9-0.5,1.5c0,0.7,0.2,1.2,0.5,1.5c0.3,0.4,0.8,0.6,1.3,0.6
			C69.7,51.4,70.1,51.2,70.4,50.9z"/>
		<path class="st0" d="M89.6,45l-3.1,8.7h-2.9L81.9,49l-1.7,4.7h-2.9L74.2,45H77l1.8,5.2l1.8-5.2h2.6l1.8,5.3l1.8-5.3H89.6z"/>
		<path class="st0" d="M97.1,53.2c-0.7-0.5-1.3-1.1-1.8-2c-0.4-0.9-0.6-1.9-0.6-3.1c0-1.2,0.2-2.2,0.6-3.1c0.4-0.9,1-1.5,1.8-2
			c0.7-0.5,1.6-0.7,2.6-0.7c0.9,0,1.8,0.2,2.5,0.7c0.7,0.5,1.3,1.1,1.8,2c0.4,0.9,0.6,1.9,0.6,3.1c0,1.2-0.2,2.2-0.6,3.1
			c-0.4,0.9-1,1.5-1.8,2c-0.7,0.5-1.6,0.7-2.5,0.7C98.7,53.9,97.8,53.7,97.1,53.2z M100.9,50.5c0.3-0.5,0.5-1.3,0.5-2.5
			c0-1.1-0.2-1.9-0.5-2.5c-0.3-0.5-0.7-0.8-1.3-0.8c-0.5,0-1,0.3-1.3,0.8s-0.5,1.3-0.5,2.5c0,1.1,0.2,1.9,0.5,2.5
			c0.3,0.5,0.7,0.8,1.3,0.8C100.2,51.3,100.6,51.1,100.9,50.5z"/>
		<path class="st0" d="M113.4,48.1c0.5,0.6,0.7,1.3,0.7,2.1c0,0.7-0.2,1.3-0.5,1.8s-0.9,1-1.6,1.4s-1.6,0.5-2.7,0.5
			c-0.8,0-1.6-0.1-2.3-0.3c-0.8-0.2-1.4-0.5-2-0.8l1.2-2.4c0.4,0.3,0.9,0.5,1.5,0.7c0.5,0.2,1.1,0.2,1.6,0.2c0.5,0,1-0.1,1.3-0.3
			c0.3-0.2,0.5-0.5,0.5-0.9c0-0.7-0.6-1.1-1.7-1.1h-1.3v-2l2-2.2h-4.4v-2.4h8.1v2l-2.3,2.5C112.2,47.2,112.9,47.5,113.4,48.1z"/>
	</g>
	<path class="st0" d="M112.2,109.7h-61c-0.5,0-1-0.4-1-1V68c0-2.1,1.7-3.8,3.8-3.8h55.3c2.1,0,3.8,1.7,3.8,3.8v40.8
		C113.2,109.3,112.7,109.7,112.2,109.7L112.2,109.7z M52.2,107.8h59V68c0-1-0.8-1.9-1.9-1.9H54c-1,0-1.9,0.8-1.9,1.9L52.2,107.8
		L52.2,107.8z"/>
	<path class="st0" d="M113.9,116.1H49.5c-3.6,0-6.5-2.9-6.5-6.5v-0.8c0-0.5,0.4-1,1-1h75.5c0.5,0,1,0.4,1,1v0.8
		C120.4,113.2,117.5,116.1,113.9,116.1L113.9,116.1z M44.9,109.7c0.1,2.5,2.1,4.4,4.6,4.4h64.4c2.5,0,4.5-2,4.6-4.4
		C118.5,109.7,44.9,109.7,44.9,109.7z"/>
	<path class="st0" d="M88.6,92.3c-0.8,0-1.6-0.3-2.2-0.9c-0.6-0.6-0.9-1.4-0.9-2.3c0-0.6,0.2-1.1,0.4-1.6h-4.2
		c-0.3,0-0.5-0.2-0.5-0.5v-4.6c0-0.3,0.2-0.5,0.5-0.5s0.5,0.2,0.5,0.5v4.1h4.7c0.2,0,0.4,0.1,0.4,0.3c0.1,0.2,0,0.4-0.1,0.5
		c-0.5,0.4-0.8,1.1-0.8,1.7c0,0.6,0.2,1.2,0.7,1.6c0.4,0.4,1,0.6,1.6,0.6c0.6,0,1.1-0.3,1.6-0.7c0.4-0.4,0.6-1,0.6-1.6
		c0-0.6-0.3-1.3-0.8-1.7c-0.2-0.1-0.2-0.3-0.1-0.5c0.1-0.2,0.2-0.3,0.4-0.3H95V74.9c0-0.6-0.5-1.1-1.1-1.1H82.2v4.1
		c0,0.3-0.2,0.5-0.5,0.5s-0.5-0.2-0.5-0.5v-4.6c0-0.3,0.2-0.5,0.5-0.5h12.2c1.2,0,2.1,0.9,2.1,2.1v12.2c0,0.3-0.2,0.5-0.5,0.5h-4.2
		c0.3,0.5,0.4,1,0.4,1.5c0,0.8-0.3,1.7-0.9,2.3C90.3,92,89.5,92.3,88.6,92.3C88.6,92.3,88.6,92.3,88.6,92.3L88.6,92.3z"/>
	<path class="st0" d="M88.6,92.8c-1,0-1.8-0.4-2.5-1c-0.7-0.7-1.1-1.6-1.1-2.6c0-0.4,0.1-0.8,0.2-1.2h-3.5c-0.5,0-0.9-0.4-0.9-0.9
		v-4.6c0-0.5,0.4-0.9,0.9-0.9s0.9,0.4,0.9,0.9v3.7h4.3c0.4,0,0.7,0.2,0.9,0.6c0.1,0.4,0,0.8-0.3,1c-0.4,0.3-0.7,0.9-0.7,1.4
		c0,0.5,0.2,0.9,0.5,1.3c0.3,0.3,0.8,0.5,1.3,0.5c0.5,0,0.9-0.2,1.3-0.6s0.5-0.8,0.5-1.3c0-0.5-0.3-1-0.7-1.3
		c-0.3-0.2-0.4-0.6-0.3-1c0.1-0.4,0.5-0.6,0.9-0.6h4.3V74.9c0-0.4-0.3-0.7-0.7-0.7H82.6v3.7c0,0.5-0.4,0.9-0.9,0.9s-0.9-0.4-0.9-0.9
		v-4.6c0-0.5,0.4-0.9,0.9-0.9h12.2c1.4,0,2.5,1.1,2.5,2.5v12.2c0,0.5-0.4,0.9-0.9,0.9H92c0.1,0.3,0.2,0.7,0.2,1.1c0,1-0.3,1.9-1,2.6
		C90.5,92.4,89.6,92.8,88.6,92.8L88.6,92.8L88.6,92.8z M81.8,82.5l-0.1,4.6l5,0l-0.4,0.7c-0.3,0.4-0.4,0.9-0.4,1.4
		c0,0.7,0.3,1.4,0.8,2c0.5,0.5,1.2,0.8,1.9,0.8v0.4l0-0.4c0.7,0,1.4-0.3,1.9-0.9c0.5-0.5,0.8-1.2,0.8-2c0-0.5-0.1-0.9-0.4-1.3
		l-0.4-0.7h4.9l0-12.2c0-0.9-0.7-1.7-1.7-1.7H81.7l0,4.6l0.1-4.5h12.1c0.9,0,1.6,0.7,1.6,1.6V87h-5.2c0.6,0.6,0.9,1.3,1,2.1
		c0,0.7-0.2,1.4-0.7,1.9c-0.5,0.5-1.2,0.8-1.9,0.8c-0.7,0-1.4-0.3-1.9-0.8c-0.5-0.5-0.8-1.2-0.8-1.9c0-0.8,0.4-1.6,1-2.1L81.8,87
		L81.8,82.5L81.8,82.5z"/>
	<path class="st0" d="M93.9,101.3H81.7c-0.3,0-0.5-0.2-0.5-0.5v-4.2c-0.5,0.3-1,0.4-1.5,0.4c-0.8,0-1.7-0.3-2.3-0.9
		c-0.6-0.6-1-1.4-1-2.2c0-0.9,0.3-1.7,0.9-2.3c0.6-0.6,1.4-0.9,2.3-0.9c0.6,0,1.1,0.2,1.6,0.4v-4.2c0-0.3,0.2-0.5,0.5-0.5h4.9
		c0.3,0,0.5,0.2,0.5,0.5s-0.2,0.5-0.5,0.5h-4.5v4.7c0,0.2-0.1,0.4-0.3,0.4c-0.2,0.1-0.4,0-0.5-0.1c-0.4-0.5-1.1-0.8-1.7-0.8
		c-0.6,0-1.2,0.2-1.6,0.7c-0.4,0.4-0.6,1-0.6,1.6c0,0.6,0.3,1.1,0.7,1.6c0.4,0.4,1,0.6,1.6,0.6c0.6,0,1.3-0.3,1.7-0.8
		c0.1-0.2,0.3-0.2,0.5-0.1c0.2,0.1,0.3,0.2,0.3,0.4v4.7h11.7c0.6,0,1.1-0.5,1.1-1.1V87.5h-4.5c-0.3,0-0.5-0.2-0.5-0.5
		s0.2-0.5,0.5-0.5h5c0.3,0,0.5,0.2,0.5,0.5v12.2C96,100.4,95,101.3,93.9,101.3L93.9,101.3z"/>
	<path class="st0" d="M93.9,101.8H81.7c-0.5,0-0.9-0.4-0.9-0.9v-3.5c-0.3,0.1-0.7,0.2-1.1,0.2c-1,0-1.9-0.3-2.6-1S76,95,76,94
		c0-1,0.3-1.9,1-2.6c1-1,2.5-1.3,3.8-0.9v-3.5c0-0.5,0.4-0.9,0.9-0.9h4.9c0.5,0,0.9,0.4,0.9,0.9S87.1,88,86.6,88h-4v4.3
		c0,0.4-0.2,0.7-0.6,0.9c-0.4,0.1-0.8,0-1-0.3c-0.7-0.8-2-0.9-2.7-0.1C78,93,77.8,93.5,77.8,94c0,0.5,0.2,0.9,0.6,1.3
		c0.4,0.3,0.8,0.5,1.3,0.5c0.5,0,1-0.3,1.3-0.7c0.2-0.3,0.6-0.4,1-0.3c0.4,0.1,0.6,0.5,0.6,0.9v4.3h11.3c0.4,0,0.7-0.3,0.7-0.7V88
		h-4.1c-0.5,0-0.9-0.4-0.9-0.9s0.4-0.9,0.9-0.9h5c0.5,0,0.9,0.4,0.9,0.9v12.2C96.4,100.6,95.3,101.8,93.9,101.8L93.9,101.8z
		 M81.7,95.9v4.9l12.2,0c0.9,0,1.7-0.7,1.7-1.7V87.1l-5,0l5,0.1v12.1c0,0.9-0.7,1.6-1.6,1.6H81.8v-5.2c-0.6,0.6-1.3,0.9-2.1,1
		c-0.7,0-1.4-0.2-1.9-0.7C77.3,95.4,77,94.7,77,94c0-0.7,0.3-1.4,0.8-1.9c0.5-0.5,1.2-0.8,1.9-0.8c0.8,0,1.6,0.4,2.1,1l0.1-5.2h4.9
		L81.7,87l0,5L81,91.6C80,91,78.5,91.2,77.7,92c-0.5,0.5-0.8,1.2-0.8,2c0,0.7,0.3,1.4,0.9,1.9c0.5,0.5,1.2,0.8,2,0.8
		c0.5,0,0.9-0.1,1.3-0.4L81.7,95.9L81.7,95.9z"/>
	<path class="st0" d="M81.7,101.3H69.5c-1.2,0-2.1-0.9-2.1-2.1V87.1c0-0.3,0.2-0.5,0.5-0.5h4.2c-0.3-0.5-0.4-1-0.4-1.5
		c0-0.8,0.3-1.7,0.9-2.3c0.6-0.6,1.4-1,2.2-1c0.9,0,1.7,0.3,2.3,0.9c0.6,0.6,0.9,1.4,0.9,2.3c0,0.6-0.2,1.1-0.4,1.6h4.2
		c0.3,0,0.5,0.2,0.5,0.5V92c0,0.3-0.2,0.5-0.5,0.5s-0.5-0.2-0.5-0.5v-4.5h-4.7c-0.2,0-0.4-0.1-0.4-0.3s0-0.4,0.1-0.5
		c0.5-0.4,0.8-1.1,0.8-1.7c0-0.6-0.2-1.2-0.7-1.6c-0.4-0.4-1-0.6-1.6-0.6c-0.6,0-1.1,0.3-1.6,0.7c-0.4,0.4-0.6,1-0.6,1.6
		c0,0.6,0.3,1.3,0.8,1.7c0.2,0.1,0.2,0.3,0.1,0.5c-0.1,0.2-0.2,0.3-0.4,0.3h-4.7v11.7c0,0.6,0.5,1.1,1.1,1.1h11.7v-4.5
		c0-0.3,0.2-0.5,0.5-0.5s0.5,0.2,0.5,0.5v5C82.2,101.1,82,101.3,81.7,101.3L81.7,101.3z"/>
	<path class="st0" d="M81.7,101.8H69.5c-1.4,0-2.5-1.1-2.5-2.5V87.1c0-0.5,0.4-0.9,0.9-0.9h3.5c-0.1-0.3-0.2-0.7-0.2-1.1
		c0-1,0.3-1.9,1-2.6c0.7-0.7,1.6-1.1,2.5-1.1c0.9,0,1.9,0.4,2.6,1c0.7,0.7,1.1,1.6,1.1,2.6c0,0.4-0.1,0.8-0.2,1.2h3.5
		c0.5,0,0.9,0.4,0.9,0.9V92c0,0.5-0.4,0.9-0.9,0.9s-0.9-0.4-0.9-0.9v-4h-4.3c-0.4,0-0.7-0.2-0.9-0.6s0-0.8,0.3-1
		c0.4-0.3,0.7-0.9,0.7-1.4c0-0.5-0.2-0.9-0.5-1.3c-0.3-0.3-0.8-0.5-1.3-0.5c-0.5,0-0.9,0.2-1.3,0.6C73.2,84.1,73,84.5,73,85
		c0,0.5,0.3,1,0.7,1.3c0.3,0.2,0.4,0.6,0.3,1c-0.1,0.4-0.5,0.6-0.9,0.6h-4.3v11.3c0,0.4,0.3,0.7,0.7,0.7h11.3v-4.1
		c0-0.5,0.4-0.9,0.9-0.9s0.9,0.4,0.9,0.9v5C82.6,101.4,82.2,101.8,81.7,101.8L81.7,101.8z M67.9,87l0,12.2c0,0.9,0.7,1.7,1.7,1.7
		h12.2c0,0,0,0,0,0v-5l-0.1,5H69.5c-0.9,0-1.6-0.7-1.6-1.6L67.9,87l5.2,0.1c-0.6-0.6-0.9-1.3-1-2.1c0-0.7,0.2-1.4,0.7-1.9
		c0.5-0.5,1.2-0.8,1.9-0.8c0.7,0,1.4,0.3,1.9,0.8c0.5,0.5,0.8,1.2,0.8,1.9c0,0.8-0.4,1.6-1,2.1l5.2,0.1V92l0.1-4.9l-5,0l0.4-0.7
		c0.3-0.4,0.4-0.9,0.4-1.4c0-0.7-0.3-1.4-0.8-2c-0.5-0.5-1.2-0.8-2-0.8c-0.7,0-1.4,0.3-1.9,0.9c-0.5,0.5-0.8,1.2-0.8,2
		c0,0.5,0.1,0.9,0.4,1.3l0.4,0.7L67.9,87L67.9,87z"/>
	<path class="st0" d="M81.7,87.5h-4.9c-0.3,0-0.5-0.2-0.5-0.5s0.2-0.5,0.5-0.5h4.5v-4.7c0-0.2,0.1-0.4,0.3-0.4s0.4,0,0.5,0.1
		c0.4,0.5,1.1,0.8,1.7,0.8c0.6,0,1.2-0.2,1.6-0.7c0.4-0.4,0.6-1,0.6-1.6c0-0.6-0.3-1.1-0.7-1.6c-0.4-0.4-1-0.6-1.6-0.6
		c-0.6,0-1.3,0.3-1.7,0.8c-0.1,0.2-0.3,0.2-0.5,0.1c-0.2-0.1-0.3-0.2-0.3-0.4v-4.7H69.5c-0.6,0-1.1,0.5-1.1,1.1v11.7h4.5
		c0.3,0,0.5,0.2,0.5,0.5s-0.2,0.5-0.5,0.5h-5c-0.3,0-0.5-0.2-0.5-0.5V74.9c0-1.2,0.9-2.1,2.1-2.1h12.2c0.3,0,0.5,0.2,0.5,0.5v4.2
		c0.5-0.3,1-0.4,1.5-0.4c0.8,0,1.7,0.3,2.3,0.9c0.6,0.6,1,1.4,1,2.2c0,0.9-0.3,1.7-0.9,2.3c-0.6,0.6-1.4,0.9-2.3,0.9
		c-0.6,0-1.1-0.2-1.6-0.4v4.2C82.2,87.3,82,87.5,81.7,87.5L81.7,87.5z"/>
	<path class="st0" d="M81.7,88h-4.9c-0.5,0-0.9-0.4-0.9-0.9s0.4-0.9,0.9-0.9h4v-4.3c0-0.4,0.2-0.7,0.6-0.9c0.4-0.1,0.8,0,1,0.3
		c0.6,0.8,2,0.9,2.7,0.1c0.3-0.3,0.5-0.8,0.5-1.3c0-0.5-0.2-0.9-0.6-1.3c-0.4-0.3-0.8-0.5-1.3-0.5c-0.5,0-1,0.3-1.3,0.7
		c-0.2,0.3-0.6,0.4-1,0.3c-0.4-0.1-0.6-0.5-0.6-0.9v-4.3H69.5c-0.4,0-0.7,0.3-0.7,0.7v11.3h4.1c0.5,0,0.9,0.4,0.9,0.9
		S73.4,88,72.9,88h-5c-0.5,0-0.9-0.4-0.9-0.9V74.9c0-1.4,1.1-2.5,2.5-2.5h12.2c0.5,0,0.9,0.4,0.9,0.9v3.5c0.3-0.1,0.7-0.2,1.1-0.2
		c1,0,1.9,0.3,2.6,1c0.7,0.7,1.1,1.6,1.1,2.5c0,1-0.3,1.9-1,2.6c-1,1-2.5,1.3-3.8,0.9v3.5C82.6,87.6,82.2,88,81.7,88L81.7,88z
		 M76.8,87l4.9,0.1c0,0,0,0,0,0v-4.9l0.7,0.4c1.1,0.6,2.5,0.5,3.4-0.4c0.5-0.5,0.8-1.2,0.8-2c0-0.7-0.3-1.4-0.9-1.9
		c-0.5-0.5-1.2-0.8-2-0.8c-0.5,0-0.9,0.1-1.3,0.4l-0.7,0.4v-4.9l-12.2,0c-0.9,0-1.7,0.7-1.7,1.7v12.2l5,0L68,87V74.9
		c0-0.9,0.7-1.6,1.6-1.6h12.1v5.2c0.6-0.6,1.3-0.9,2.1-1c0.7,0,1.4,0.2,1.9,0.7c0.5,0.5,0.8,1.2,0.8,1.9c0,0.7-0.3,1.4-0.8,1.9
		c-0.5,0.5-1.2,0.8-1.9,0.8c-0.8,0-1.6-0.4-2.1-1L81.7,87L76.8,87L76.8,87z"/>
</g>
</svg>
