<?xml version="1.0" encoding="utf-8"?>
<!-- Generator: Adobe Illustrator 28.1.0, SVG Export Plug-In . SVG Version: 6.00 Build 0)  -->
<svg version="1.1" id="_レイヤー_2" xmlns="http://www.w3.org/2000/svg" xmlns:xlink="http://www.w3.org/1999/xlink" x="0px"
	 y="0px" viewBox="0 0 164.6 164.6" style="enable-background:new 0 0 164.6 164.6;" xml:space="preserve">
<style type="text/css">
	.st0{fill:#008CDC;}
	.st1{fill:#FFFFFF;}
	.st2{enable-background:new    ;}
	.st3{fill:#0068B6;}
</style>
<g id="_レイヤー_1-2">
	<path class="st0" d="M82.3,0C36.9,0,0,36.8,0,82.3s36.9,82.3,82.3,82.3s82.3-36.9,82.3-82.3S127.8,0,82.3,0z M82.3,139.8
		c-31.7,0-57.5-25.7-57.5-57.5s25.7-57.5,57.5-57.5s57.5,25.7,57.5,57.5S114.1,139.8,82.3,139.8z"/>
	<circle class="st1" cx="82.3" cy="82.3" r="63.9"/>
	<g class="st2">
		<path class="st3" d="M54.4,44.9v2.5h4.9v2.4h-4.9v3.8h-3.2V42.5H60v2.4H54.4z"/>
		<path class="st3" d="M61.3,41.8h3v11.9h-3V41.8z"/>
		<path class="st3" d="M68.2,53.2c-0.7-0.4-1.3-0.9-1.8-1.6s-0.6-1.5-0.6-2.3c0-0.9,0.2-1.6,0.6-2.3s1-1.2,1.7-1.6
			c0.7-0.4,1.6-0.6,2.5-0.6c0.9,0,1.8,0.2,2.5,0.6s1.3,0.9,1.7,1.6c0.4,0.7,0.6,1.4,0.6,2.3c0,0.9-0.2,1.6-0.6,2.3s-1,1.2-1.7,1.6
			c-0.7,0.4-1.6,0.6-2.5,0.6C69.8,53.8,68.9,53.6,68.2,53.2z M72,50.9c0.3-0.4,0.5-0.9,0.5-1.5c0-0.6-0.2-1.1-0.5-1.5
			c-0.3-0.4-0.8-0.5-1.3-0.5c-0.5,0-1,0.2-1.3,0.5c-0.3,0.4-0.5,0.9-0.5,1.5c0,0.7,0.2,1.2,0.5,1.5c0.3,0.4,0.8,0.6,1.3,0.6
			C71.2,51.4,71.7,51.2,72,50.9z"/>
		<path class="st3" d="M91.1,45L88,53.7h-2.9L83.5,49l-1.7,4.7h-2.9L75.7,45h2.9l1.8,5.2l1.8-5.2h2.6l1.8,5.3l1.8-5.3H91.1z"/>
		<path class="st3" d="M98.7,53.2c-0.7-0.5-1.3-1.1-1.8-2c-0.4-0.9-0.6-1.9-0.6-3.1c0-1.2,0.2-2.2,0.6-3.1c0.4-0.9,1-1.5,1.8-2
			c0.7-0.5,1.6-0.7,2.6-0.7c0.9,0,1.8,0.2,2.5,0.7c0.7,0.5,1.3,1.1,1.8,2c0.4,0.9,0.6,1.9,0.6,3.1c0,1.2-0.2,2.2-0.6,3.1
			c-0.4,0.9-1,1.5-1.8,2c-0.7,0.5-1.6,0.7-2.5,0.7C100.3,53.9,99.4,53.7,98.7,53.2z M102.5,50.5c0.3-0.5,0.5-1.3,0.5-2.5
			c0-1.1-0.2-1.9-0.5-2.5s-0.7-0.8-1.3-0.8c-0.5,0-1,0.3-1.3,0.8c-0.3,0.5-0.5,1.3-0.5,2.5c0,1.1,0.2,1.9,0.5,2.5
			c0.3,0.5,0.7,0.8,1.3,0.8C101.8,51.3,102.2,51.1,102.5,50.5z"/>
		<path class="st3" d="M111.9,42.5v11.2h-3.2v-8.8h-2.1v-2.4H111.9z"/>
	</g>
	<path class="st3" d="M107.8,121.2H57.8c-0.2,0-0.4-0.1-0.6-0.3c-0.2-0.2-0.2-0.4-0.2-0.6l1.3-14.3c0.2-2.2,1.7-4.1,3.9-4.8
		l11.8-3.7c0.4-0.1,0.9,0.1,1,0.5c0.1,0.4-0.1,0.9-0.5,1l-11.8,3.7c-1.5,0.5-2.6,1.8-2.7,3.4l-1.2,13.4h48.3l-1.2-13.4
		c-0.1-1.6-1.2-2.9-2.7-3.4l-11.8-3.7c-0.4-0.1-0.7-0.6-0.5-1c0.1-0.4,0.6-0.7,1-0.5l11.8,3.7c2.1,0.7,3.6,2.5,3.9,4.8l1.3,14.3
		c0,0.2-0.1,0.4-0.2,0.6C108.3,121.1,108,121.2,107.8,121.2z"/>
	<path class="st3" d="M82.8,104.3c-0.1,0-0.3,0-0.4-0.1l-8.6-5.1c-0.4-0.2-0.5-0.7-0.3-1.1s0.7-0.5,1.1-0.3l8.2,4.9l8.2-4.9
		c0.4-0.2,0.9-0.1,1.1,0.3c0.2,0.4,0.1,0.9-0.3,1.1l-8.6,5.1C83.1,104.2,82.9,104.3,82.8,104.3z"/>
	<path class="st3" d="M84.4,108.1h-3.1c-0.3,0-0.6-0.2-0.7-0.5l-2.3-5.8c-0.2-0.4,0-0.9,0.4-1c0.4-0.2,0.9,0,1,0.4l2.1,5.3h2.1
		l2.1-5.3c0.2-0.4,0.6-0.6,1-0.4c0.4,0.2,0.6,0.6,0.4,1l-2.3,5.8C85,107.9,84.7,108.1,84.4,108.1L84.4,108.1z"/>
	<path class="st3" d="M86.6,121.2c-0.4,0-0.7-0.3-0.8-0.7l-2.2-12.5h-1.8l-2.2,12.5c-0.1,0.4-0.5,0.7-0.9,0.6
		c-0.4-0.1-0.7-0.5-0.6-0.9l2.3-13.1c0.1-0.4,0.4-0.7,0.8-0.7h3.1c0.4,0,0.7,0.3,0.8,0.7l2.3,13.1c0.1,0.4-0.2,0.8-0.6,0.9
		C86.7,121.2,86.7,121.2,86.6,121.2L86.6,121.2z"/>
	<path class="st3" d="M66.9,121.2C66.9,121.2,66.9,121.2,66.9,121.2c-0.5,0-0.8-0.4-0.8-0.9l1-9.2c0-0.4,0.4-0.8,0.9-0.7
		c0.4,0,0.8,0.4,0.7,0.9l-1,9.2C67.7,120.9,67.3,121.2,66.9,121.2L66.9,121.2z"/>
	<path class="st3" d="M98.6,121.2c-0.4,0-0.7-0.3-0.8-0.7l-1-9.2c0-0.4,0.3-0.8,0.7-0.9c0.4,0,0.8,0.3,0.9,0.7l1,9.2
		C99.5,120.8,99.2,121.2,98.6,121.2C98.7,121.2,98.7,121.2,98.6,121.2L98.6,121.2z"/>
	<path class="st3" d="M97,93.7c-0.4,0-0.8-0.4-0.8-0.8V78.6c0-7.4-6-13.4-13.4-13.4s-13.4,6-13.4,13.4v14.2c0,0.4-0.4,0.8-0.8,0.8
		s-0.8-0.4-0.8-0.8V78.6c0-8.3,6.7-15,15-15s15,6.7,15,15v14.2C97.8,93.3,97.5,93.7,97,93.7L97,93.7z"/>
	<path class="st3" d="M68.6,93.7h-3.4c-1.8,0-3.3-1.5-3.3-3.3v-6.1c0-1.8,1.5-3.3,3.3-3.3h3.4c0.4,0,0.8,0.4,0.8,0.8v11
		C69.4,93.3,69,93.7,68.6,93.7z M65.2,82.7c-0.9,0-1.7,0.8-1.7,1.7v6.1c0,0.9,0.7,1.7,1.7,1.7h2.6v-9.4
		C67.8,82.7,65.2,82.7,65.2,82.7z"/>
	<path class="st3" d="M100.4,93.7H97c-0.4,0-0.8-0.4-0.8-0.8v-11c0-0.4,0.4-0.8,0.8-0.8h3.4c1.8,0,3.3,1.5,3.3,3.3v6.1
		C103.6,92.2,102.2,93.7,100.4,93.7z M97.8,92.1h2.6c0.9,0,1.7-0.8,1.7-1.7v-6.1c0-0.9-0.8-1.7-1.7-1.7h-2.6
		C97.8,82.7,97.8,92.1,97.8,92.1z"/>
	<path class="st3" d="M82.8,99.4c-1.6,0-2.9-1.3-2.9-2.9s1.3-2.9,2.9-2.9s2.9,1.3,2.9,2.9S84.4,99.4,82.8,99.4z M82.8,95.1
		c-0.7,0-1.3,0.6-1.3,1.3s0.6,1.3,1.3,1.3s1.3-0.6,1.3-1.3S83.6,95.1,82.8,95.1z"/>
	<path class="st3" d="M84.9,97.1c-0.4,0-0.7-0.3-0.8-0.6c-0.1-0.4,0.2-0.9,0.6-0.9c4.2-0.9,7.2-4.6,7.2-8.9v-7.5
		c0-5-4.1-9.1-9.1-9.1s-9.1,4.1-9.1,9.1v7.5c0,4.2,2.8,7.8,6.9,8.8c0.4,0.1,0.7,0.5,0.6,1c-0.1,0.4-0.5,0.7-1,0.6
		c-4.8-1.2-8.1-5.4-8.1-10.4v-7.5c0-5.9,4.8-10.7,10.7-10.7s10.7,4.8,10.7,10.7v7.5c0,5-3.5,9.4-8.4,10.4C85,97.1,85,97.1,84.9,97.1
		L84.9,97.1z"/>
	<path class="st3" d="M80.6,97.3h-8.4c-2.4,0-4.4-2-4.4-4.4c0-0.4,0.4-0.8,0.8-0.8s0.8,0.4,0.8,0.8c0,1.5,1.3,2.8,2.8,2.8h8.4
		c0.4,0,0.8,0.4,0.8,0.8S81,97.3,80.6,97.3z"/>
</g>
</svg>
