<?xml version="1.0" encoding="UTF-8"?><svg id="_レイヤー_2" xmlns="http://www.w3.org/2000/svg" viewBox="0 0 75.333 58.823"><defs><style>.cls-1{fill:#0068b6;}</style></defs><g id="_レイヤー_1-2"><path class="cls-1" d="m33.733,58.823c-3.331,0-6.04-2.71-6.04-6.04s2.71-6.04,6.04-6.04,6.04,2.71,6.04,6.04-2.71,6.04-6.04,6.04Zm0-9.792c-2.069,0-3.752,1.683-3.752,3.752s1.684,3.752,3.752,3.752,3.752-1.683,3.752-3.752-1.683-3.752-3.752-3.752Z"/><path class="cls-1" d="m62.248,58.823c-3.331,0-6.041-2.71-6.041-6.04s2.71-6.04,6.041-6.04,6.04,2.71,6.04,6.04-2.709,6.04-6.04,6.04Zm0-9.792c-2.069,0-3.752,1.683-3.752,3.752s1.683,3.752,3.752,3.752,3.752-1.683,3.752-3.752-1.683-3.752-3.752-3.752Z"/><path class="cls-1" d="m72.305,44.008H22.074c-.541,0-1.008-.379-1.119-.908L12.355,2.288H1.144c-.632,0-1.144-.512-1.144-1.144S.513,0,1.144,0h12.139c.541,0,1.008.379,1.119.908l8.599,40.812h49.303c.632,0,1.144.512,1.144,1.144s-.512,1.144-1.144,1.144Z"/><path class="cls-1" d="m71.677,34.52H20.075c-.632,0-1.144-.512-1.144-1.144s.512-1.144,1.144-1.144h50.577l2.268-20.721-58.42-3.159c-.631-.034-1.115-.573-1.081-1.204.034-.631.573-1.116,1.204-1.081l59.627,3.224c.314.017.607.163.81.402.203.24.299.553.265.865l-2.512,22.942c-.064.58-.554,1.02-1.137,1.02Z"/><path class="cls-1" d="m72.923,23.148c-.013,0-.026,0-.039,0l-55.636-1.867c-.632-.021-1.126-.55-1.105-1.181.021-.632.555-1.124,1.182-1.105l55.636,1.867c.632.022,1.126.55,1.105,1.182-.021.618-.529,1.106-1.143,1.106Z"/><path class="cls-1" d="m31.596,34.52c-.587,0-1.087-.45-1.138-1.046l-2.19-25.364c-.055-.63.412-1.184,1.041-1.238.631-.058,1.184.412,1.238,1.041l2.19,25.364c.054.63-.412,1.184-1.041,1.238-.034.003-.067.005-.1.005Z"/><path class="cls-1" d="m45.718,34.52c-.632,0-1.144-.512-1.144-1.144V8.894c0-.632.512-1.144,1.144-1.144s1.144.512,1.144,1.144v24.481c0,.632-.512,1.144-1.144,1.144Z"/><path class="cls-1" d="m59.12,34.52c-.027,0-.055,0-.082-.003-.63-.045-1.105-.592-1.06-1.222l1.681-23.666c.045-.63.592-1.101,1.222-1.06.631.045,1.105.592,1.06,1.223l-1.681,23.666c-.042.603-.545,1.063-1.14,1.063Z"/></g></svg>