<?xml version="1.0" encoding="UTF-8"?><svg id="_レイヤー_2" xmlns="http://www.w3.org/2000/svg" viewBox="0 0 87.062 68.396"><defs><style>.cls-1{fill:#0068b6;}</style></defs><g id="_レイヤー_1-2"><path class="cls-1" d="m81.446,58.76H5.616c-3.097,0-5.616-2.519-5.616-5.616V5.616C0,2.519,2.518,0,5.616,0h75.83c3.097,0,5.617,2.519,5.617,5.616v47.528c0,3.097-2.52,5.616-5.617,5.616ZM5.616,2.333c-1.811,0-3.283,1.473-3.283,3.283v47.528c0,1.81,1.472,3.283,3.283,3.283h75.83c1.81,0,3.283-1.473,3.283-3.283V5.616c0-1.81-1.473-3.283-3.283-3.283H5.616Z"/><path class="cls-1" d="m49.126,68.396h-11.19c-.644,0-1.166-.522-1.166-1.166v-9.636c0-.644.523-1.166,1.166-1.166h11.19c.644,0,1.167.522,1.167,1.166v9.636c0,.644-.523,1.166-1.167,1.166Zm-10.024-2.333h8.857v-7.303h-8.857v7.303Z"/><path class="cls-1" d="m85.895,48.55H1.166c-.644,0-1.166-.522-1.166-1.166s.522-1.166,1.166-1.166h84.729c.644,0,1.167.522,1.167,1.166s-.523,1.166-1.167,1.166Z"/><path class="cls-1" d="m57.674,68.396h-28.287c-.644,0-1.166-.522-1.166-1.166s.522-1.166,1.166-1.166h28.287c.644,0,1.166.522,1.166,1.166s-.522,1.166-1.166,1.166Z"/><path class="cls-1" d="m50.93,33.009c-.286,0-.572-.104-.797-.315-.47-.44-.494-1.179-.054-1.648l13.587-14.505c.44-.47,1.179-.494,1.649-.054.47.44.494,1.179.054,1.649l-13.587,14.505c-.229.245-.54.369-.851.369Z"/><path class="cls-1" d="m45.971,33.784c-.188,0-.377-.045-.553-.14l-14.337-7.746c-.566-.306-.778-1.014-.471-1.581.305-.567,1.014-.777,1.58-.472l14.337,7.745c.567.306.778,1.014.472,1.581-.21.39-.612.612-1.027.612Z"/><path class="cls-1" d="m19.797,36.228c-.254,0-.511-.083-.725-.254-.504-.401-.588-1.135-.187-1.639l7.291-9.161c.401-.504,1.137-.588,1.638-.187.504.401.588,1.135.187,1.639l-7.291,9.161c-.23.289-.57.44-.914.44Z"/><path class="cls-1" d="m17.747,41.698c-.061,0-.123-.001-.186-.004-1.082-.048-2.08-.516-2.81-1.315-.73-.8-1.106-1.836-1.057-2.918.048-1.081.515-2.08,1.315-2.81.798-.73,1.825-1.107,2.917-1.057,1.082.048,2.08.515,2.81,1.315.731.799,1.106,1.836,1.057,2.918-.048,1.082-.515,2.08-1.315,2.81-.753.689-1.717,1.062-2.731,1.062Zm-.005-5.777c-.43,0-.84.159-1.16.451-.34.31-.538.734-.559,1.193-.021.46.139.9.449,1.239.311.34.734.538,1.194.558.473.019.9-.139,1.239-.449.339-.31.537-.734.558-1.193h0c.021-.46-.139-.9-.448-1.239-.311-.34-.735-.538-1.194-.558-.027-.001-.052-.002-.079-.002Z"/><path class="cls-1" d="m29.049,27.523c-.061,0-.124-.001-.186-.004-2.233-.1-3.969-1.999-3.868-4.232.101-2.234,2.037-3.959,4.233-3.868,2.232.101,3.967,1.999,3.867,4.232-.048,1.082-.515,2.08-1.315,2.811-.753.689-1.717,1.062-2.731,1.062Zm-.004-5.776c-.914,0-1.678.722-1.72,1.645-.042.948.695,1.754,1.643,1.797.474.018.9-.139,1.238-.449.34-.31.538-.734.559-1.193.042-.948-.695-1.755-1.642-1.797-.026-.001-.053-.002-.078-.002Z"/><path class="cls-1" d="m48.798,38.196c-.062,0-.124-.001-.186-.004-1.082-.048-2.08-.516-2.81-1.315-.731-.799-1.106-1.836-1.057-2.918.048-1.081.515-2.08,1.315-2.81.799-.73,1.832-1.109,2.917-1.057,1.082.048,2.08.515,2.81,1.315.731.799,1.106,1.835,1.057,2.918-.049,1.082-.516,2.08-1.315,2.81-.753.689-1.717,1.062-2.732,1.062Zm-.005-5.777c-.431,0-.84.159-1.16.451-.339.31-.537.734-.558,1.194-.02.46.139.899.449,1.239.31.34.734.538,1.194.558.469.021.9-.139,1.238-.449.34-.31.538-.734.559-1.193h0c.021-.46-.139-.9-.449-1.239-.31-.34-.734-.538-1.194-.559-.027,0-.053-.002-.079-.002Z"/><path class="cls-1" d="m66.677,19.091c-.062,0-.124-.001-.186-.004-2.233-.1-3.968-1.999-3.868-4.232.101-2.233,1.987-3.964,4.232-3.868,2.233.1,3.968,1.999,3.868,4.232-.048,1.082-.515,2.08-1.314,2.811-.753.688-1.717,1.062-2.731,1.062Zm-.005-5.776c-.913,0-1.678.722-1.719,1.645-.042.948.695,1.754,1.643,1.796.47.021.9-.139,1.238-.449.34-.31.538-.734.559-1.193.042-.949-.695-1.755-1.643-1.797-.026-.001-.052-.002-.078-.002Zm2.886,1.851h.008-.008Z"/><circle class="cls-1" cx="28.976" cy="23.282" r="2.635"/><circle class="cls-1" cx="66.623" cy="15" r="2.353"/></g></svg>