<?xml version="1.0" encoding="UTF-8"?><svg id="_レイヤー_2" xmlns="http://www.w3.org/2000/svg" viewBox="0 0 68.537 58.447"><defs><style>.cls-1{fill:#0068b6;}</style></defs><g id="_レイヤー_1-2"><path class="cls-1" d="m13.619,58.271H4.167c-.589,0-1.066-.477-1.066-1.066v-14.802c0-.589.477-1.066,1.066-1.066h9.452c.589,0,1.066.477,1.066,1.066v14.802c0,.588-.477,1.066-1.066,1.066Zm-8.386-2.131h7.321v-12.671h-7.321v12.671Z"/><path class="cls-1" d="m30.536,58.271h-9.452c-.589,0-1.066-.477-1.066-1.066v-23.26c0-.589.477-1.066,1.066-1.066h9.452c.588,0,1.066.477,1.066,1.066v23.26c0,.588-.477,1.066-1.066,1.066Zm-8.387-2.131h7.321v-21.129h-7.321v21.129Z"/><path class="cls-1" d="m47.453,58.271h-9.452c-.588,0-1.066-.477-1.066-1.066v-14.802c0-.589.477-1.066,1.066-1.066h9.452c.589,0,1.066.477,1.066,1.066v14.802c0,.588-.477,1.066-1.066,1.066Zm-8.387-2.131h7.321v-12.671h-7.321v12.671Z"/><path class="cls-1" d="m64.37,58.271h-9.452c-.589,0-1.066-.477-1.066-1.066v-31.719c0-.589.477-1.066,1.066-1.066h9.452c.589,0,1.066.477,1.066,1.066v31.719c0,.588-.477,1.066-1.066,1.066Zm-8.386-2.131h7.321v-29.588h-7.321v29.588Z"/><path class="cls-1" d="m44.682,30.503c-.187,0-.378-.049-.55-.154-.504-.304-.665-.959-.361-1.463L60.912.514c.304-.503.96-.665,1.463-.361.504.304.666.959.361,1.463l-17.141,28.372c-.2.331-.553.514-.914.514Z"/><path class="cls-1" d="m40.026,31.919c-.205,0-.412-.059-.595-.182l-11.297-7.626c-.488-.329-.617-.991-.287-1.48.329-.488.992-.617,1.479-.287l11.297,7.625c.488.329.616.991.287,1.48-.206.305-.542.469-.884.469Z"/><path class="cls-1" d="m11.982,33.08c-.309,0-.616-.134-.826-.392-.372-.456-.304-1.127.152-1.499l11.068-9.032c.456-.373,1.127-.304,1.499.152.372.456.304,1.127-.152,1.499l-11.068,9.032c-.198.162-.436.24-.673.24Z"/><path class="cls-1" d="m63.677,8.938c-.47,0-.9-.313-1.028-.789l-1.556-5.778-5.778,1.556c-.568.154-1.153-.183-1.306-.752-.153-.568.183-1.153.752-1.306L61.567.037c.568-.152,1.153.183,1.306.752l1.833,6.807c.153.568-.183,1.153-.752,1.306-.093.025-.186.037-.278.037Z"/><path class="cls-1" d="m67.471,58.447H1.066c-.589,0-1.066-.477-1.066-1.066s.477-1.066,1.066-1.066h66.405c.589,0,1.066.477,1.066,1.066s-.477,1.066-1.066,1.066Z"/><path class="cls-1" d="m8.893,38.294c-2.399,0-4.35-1.951-4.35-4.35s1.951-4.35,4.35-4.35,4.35,1.951,4.35,4.35-1.951,4.35-4.35,4.35Zm0-6.569c-1.223,0-2.218.995-2.218,2.219s.995,2.219,2.218,2.219,2.219-.995,2.219-2.219-.995-2.219-2.219-2.219Z"/><path class="cls-1" d="m25.81,25.559c-2.399,0-4.35-1.951-4.35-4.35s1.951-4.35,4.35-4.35,4.35,1.951,4.35,4.35-1.951,4.35-4.35,4.35Zm0-6.569c-1.223,0-2.218.995-2.218,2.218s.995,2.219,2.218,2.219,2.219-.995,2.219-2.219-.995-2.218-2.219-2.218Z"/><path class="cls-1" d="m42.727,37.072c-2.399,0-4.35-1.951-4.35-4.35s1.951-4.35,4.35-4.35,4.35,1.951,4.35,4.35-1.951,4.35-4.35,4.35Zm0-6.569c-1.223,0-2.219.995-2.219,2.219s.995,2.219,2.219,2.219,2.219-.995,2.219-2.219-.995-2.219-2.219-2.219Z"/></g></svg>