<?xml version="1.0" encoding="UTF-8"?><svg id="_レイヤー_2" xmlns="http://www.w3.org/2000/svg" viewBox="0 0 88.838 59.6"><defs><style>.cls-1{fill:#0068b6;}</style></defs><g id="_レイヤー_1-2"><path class="cls-1" d="m66.321,42.336H22.517c-.614,0-1.112-.498-1.112-1.112V12.396c0-.614.498-1.112,1.112-1.112h43.804c.614,0,1.112.498,1.112,1.112v28.828c0,.614-.498,1.112-1.112,1.112Zm-42.692-2.224h41.58V13.508H23.629v26.605Z"/><path class="cls-1" d="m44.419,33.466c-.268,0-.537-.096-.749-.29L21.769,13.218c-.34-.309-.454-.795-.288-1.223.166-.428.578-.71,1.037-.71h43.804c.459,0,.871.282,1.037.71.166.428.051.914-.288,1.223l-21.902,19.958c-.212.193-.48.29-.749.29ZM25.388,13.508l19.031,17.342,19.031-17.342H25.388Z"/><path class="cls-1" d="m66.321,42.336H22.517c-.479,0-.903-.306-1.055-.76-.151-.454.005-.954.388-1.241l17.355-13.014c.491-.368,1.188-.269,1.557.223.368.491.269,1.188-.223,1.557l-14.686,11.012h37.132l-14.49-10.866c-.491-.368-.591-1.065-.222-1.557.369-.491,1.065-.591,1.557-.222l17.16,12.867c.383.288.539.787.388,1.241-.151.454-.576.76-1.055.76Z"/><path class="cls-1" d="m79.406,52.279H9.432c-.614,0-1.112-.498-1.112-1.112V4.348c0-2.398,1.95-4.348,4.348-4.348h63.501c2.398,0,4.348,1.951,4.348,4.348v46.819c0,.614-.498,1.112-1.112,1.112Zm-68.862-2.224h67.75V4.348c0-1.171-.953-2.124-2.125-2.124H12.668c-1.171,0-2.124.953-2.124,2.124v45.707Z"/><path class="cls-1" d="m81.367,59.6H7.471c-4.119,0-7.471-3.352-7.471-7.471v-.962c0-.614.498-1.112,1.112-1.112h86.615c.614,0,1.112.498,1.112,1.112v.962c0,4.119-3.351,7.471-7.471,7.471ZM2.226,52.279c.08,2.824,2.402,5.098,5.245,5.098h73.896c2.843,0,5.166-2.273,5.245-5.098H2.226Z"/></g></svg>