<?xml version="1.0" encoding="UTF-8"?><svg id="_レイヤー_2" xmlns="http://www.w3.org/2000/svg" viewBox="0 0 28.58 28.562"><defs><style>.cls-1{fill:#006abb;}</style></defs><g id="_レイヤー_1-2"><path class="cls-1" d="m21.704,28.562c-.401,0-1.013-.064-1.871-.195-.86-.132-1.921-.457-3.152-.968-1.221-.506-2.619-1.272-4.156-2.276-1.539-1.006-3.197-2.404-4.929-4.155-1.372-1.353-2.529-2.67-3.435-3.911-.904-1.238-1.645-2.404-2.2-3.465-.555-1.061-.979-2.041-1.259-2.911-.279-.869-.472-1.631-.572-2.266C.024,7.763-.016,7.255.006,6.865c.018-.325.028-.512.029-.559,0-.021.002-.047.005-.068.046-.321.149-.65.307-.977.162-.338.368-.621.611-.84L4.823.555c.368-.368.801-.555,1.286-.555.363,0,.69.108.971.32.239.178.447.404.616.67.007.011.014.023.02.035l3.125,5.928c.229.406.296.867.193,1.356-.098.464-.31.862-.632,1.184l-1.406,1.406c-.003.006-.005.013-.007.021-.006.017-.01.031-.013.041.076.345.231.746.464,1.195.223.446.573.997,1.042,1.645.47.649,1.149,1.408,2.018,2.257.858.878,1.623,1.563,2.282,2.042.658.48,1.211.834,1.642,1.055.515.263.786.351.923.378l.271.055c.009-.003.018-.006.029-.009.007-.003.015-.005.021-.008l1.636-1.666c.008-.009.017-.016.025-.024.443-.392.967-.591,1.556-.591.379,0,.701.067.96.2.04.011.078.026.109.045l5.637,3.329c.537.332.859.765.965,1.294.002.011.004.022.005.033.078.597-.112,1.145-.55,1.584l-3.885,3.856c-.2.222-.482.428-.821.591-.326.158-.655.261-.978.307-.023.003-.047.005-.07.005-.009,0-.055.006-.125.013-.114.01-.256.017-.43.017Z"/></g></svg>