<?xml version="1.0" encoding="UTF-8"?><svg id="_レイヤー_2" xmlns="http://www.w3.org/2000/svg" viewBox="0 0 67.928 67.929"><defs><style>.cls-1{fill:#0068b6;}</style></defs><g id="_レイヤー_1-2"><path class="cls-1" d="m28.836,57.112c-9.936,0-18.02-8.084-18.02-18.02s8.084-18.02,18.02-18.02,18.021,8.084,18.021,18.02-8.084,18.02-18.021,18.02Zm0-33.886c-8.748,0-15.865,7.117-15.865,15.866s7.117,15.866,15.865,15.866,15.867-7.118,15.867-15.866-7.118-15.866-15.867-15.866Z"/><path class="cls-1" d="m28.836,46.292c-3.969,0-7.199-3.23-7.199-7.2s3.23-7.2,7.199-7.2,7.2,3.23,7.2,7.2-3.23,7.2-7.2,7.2Zm0-12.245c-2.781,0-5.045,2.263-5.045,5.045s2.263,5.046,5.045,5.046,5.046-2.263,5.046-5.046-2.264-5.045-5.046-5.045Z"/><path class="cls-1" d="m28.836,67.929c-15.901,0-28.836-12.936-28.836-28.837S12.936,10.255,28.836,10.255s28.837,12.936,28.837,28.837-12.936,28.837-28.837,28.837Zm0-55.519c-14.712,0-26.682,11.969-26.682,26.682s11.969,26.682,26.682,26.682,26.683-11.97,26.683-26.682-11.969-26.682-26.683-26.682Z"/><path class="cls-1" d="m28.836,40.169c-.276,0-.551-.105-.762-.315-.421-.421-.421-1.103,0-1.523L60.261,6.144c.421-.421,1.103-.421,1.523,0s.421,1.103,0,1.523L29.598,39.854c-.21.21-.486.315-.762.315Z"/><path class="cls-1" d="m52.364,16.641c-.595,0-1.077-.482-1.077-1.077V6.062c0-.595.482-1.077,1.077-1.077s1.077.482,1.077,1.077v9.502c0,.595-.483,1.077-1.077,1.077Z"/><path class="cls-1" d="m57.349,11.657c-.595,0-1.077-.482-1.077-1.078V1.077c0-.595.483-1.077,1.077-1.077s1.077.482,1.077,1.077v9.502c0,.595-.483,1.078-1.077,1.078Z"/><path class="cls-1" d="m61.866,16.641h-9.502c-.595,0-1.077-.482-1.077-1.077s.482-1.077,1.077-1.077h9.502c.595,0,1.077.482,1.077,1.077s-.483,1.077-1.077,1.077Z"/><path class="cls-1" d="m66.851,11.657h-9.502c-.595,0-1.077-.482-1.077-1.078s.483-1.077,1.077-1.077h9.502c.595,0,1.078.482,1.078,1.077s-.483,1.078-1.078,1.078Z"/><circle class="cls-1" cx="28.879" cy="39.097" r="5.506"/></g></svg>