<?xml version="1.0" encoding="UTF-8"?><svg id="_レイヤー_2" xmlns="http://www.w3.org/2000/svg" viewBox="0 0 58.038 38.802"><defs><style>.cls-1{fill:#fff;}.cls-2{fill:#0068b6;}</style></defs><g id="_レイヤー_1-2"><rect class="cls-2" x=".654" y=".656" width="56.661" height="37.258"/><path class="cls-1" d="m57.151,38.802H.887c-.49,0-.887-.397-.887-.887V.887c0-.49.397-.887.887-.887h56.264c.49,0,.887.397.887.887v37.028c0,.49-.397.887-.887.887Zm-55.377-1.773h54.491V1.773H1.773v35.255Z"/><path class="cls-1" d="m29.019,27.408c-.214,0-.428-.077-.597-.231L.289,1.542C.019,1.295-.072.908.06.567c.132-.341.46-.567.827-.567h56.264c.366,0,.695.225.827.567.132.341.041.729-.23.976l-28.132,25.634c-.169.154-.383.231-.597.231ZM3.176,1.773l25.843,23.548L54.862,1.773H3.176Z"/><path class="cls-1" d="m57.151,38.802H.887c-.382,0-.721-.244-.841-.606-.121-.362.004-.76.309-.99l22.292-16.716c.392-.293.947-.214,1.241.178.294.392.214.948-.178,1.242L3.547,37.028h50.944l-19.912-14.931c-.392-.294-.471-.85-.178-1.241.294-.392.85-.471,1.241-.178l22.041,16.527c.305.229.43.628.309.99-.12.362-.459.606-.841.606Z"/></g></svg>