<?xml version="1.0" encoding="UTF-8"?><svg id="_レイヤー_2" xmlns="http://www.w3.org/2000/svg" viewBox="0 0 60.871 67.876"><defs><style>.cls-1{fill:#0068b6;}</style></defs><g id="_レイヤー_1-2"><path class="cls-1" d="m59.934,67.875H.937c-.264,0-.515-.111-.693-.306-.177-.195-.265-.455-.24-.718l1.564-16.806c.244-2.626,2.028-4.833,4.545-5.623l13.861-4.348c.493-.155,1.019.12,1.174.613.155.494-.12,1.019-.613,1.174l-13.861,4.348c-1.794.563-3.066,2.136-3.24,4.008l-1.468,15.782h56.941l-1.469-15.782c-.174-1.872-1.446-3.446-3.24-4.008l-13.861-4.348c-.494-.155-.768-.681-.613-1.174.155-.494.681-.768,1.174-.613l13.86,4.348c2.517.789,4.301,2.996,4.545,5.623l1.564,16.806c.024.262-.063.523-.241.718-.177.195-.429.306-.692.306Z"/><path class="cls-1" d="m30.435,47.927c-.165,0-.329-.044-.476-.13l-10.175-6.004c-.446-.263-.594-.837-.331-1.283.263-.446.837-.594,1.283-.331l9.699,5.723,9.699-5.723c.446-.263,1.02-.115,1.283.331.263.446.115,1.02-.331,1.283l-10.175,6.004c-.147.087-.311.13-.476.13Z"/><path class="cls-1" d="m32.285,52.399h-3.699c-.385,0-.731-.235-.872-.594l-2.697-6.856c-.189-.481.047-1.025.529-1.215.482-.189,1.026.047,1.215.529l2.463,6.262h2.423l2.463-6.262c.189-.482.733-.718,1.215-.529.482.189.718.733.529,1.215l-2.697,6.856c-.141.358-.487.594-.872.594Z"/><path class="cls-1" d="m34.98,67.875c-.447,0-.842-.321-.922-.776l-2.562-14.7h-2.123l-2.561,14.7c-.089.51-.575.851-1.084.762-.51-.089-.851-.574-.762-1.084l2.697-15.476c.078-.448.467-.776.923-.776h3.699c.455,0,.845.328.923.776l2.697,15.476c.089.51-.252.995-.762,1.084-.054.009-.108.014-.162.014Z"/><path class="cls-1" d="m11.758,67.875c-.032,0-.065-.002-.099-.005-.514-.054-.888-.515-.834-1.029l1.132-10.805c.054-.514.515-.888,1.029-.834.514.054.888.515.834,1.029l-1.132,10.805c-.051.481-.457.84-.931.84Z"/><path class="cls-1" d="m49.112,67.875c-.474,0-.88-.358-.931-.84l-1.132-10.805c-.054-.514.319-.975.834-1.029.515-.054.975.319,1.029.834l1.132,10.805c.054.515-.319.975-.834,1.029-.033.003-.066.005-.099.005Z"/><path class="cls-1" d="m47.207,35.417c-.517,0-.937-.419-.937-.937v-16.772c0-8.731-7.103-15.834-15.834-15.834s-15.835,7.103-15.835,15.834v16.772c0,.517-.419.937-.937.937s-.937-.419-.937-.937v-16.772C12.727,7.944,20.671,0,30.435,0s17.708,7.944,17.708,17.708v16.772c0,.517-.419.937-.937.937Z"/><path class="cls-1" d="m13.664,35.417h-3.956c-2.12,0-3.844-1.724-3.844-3.843v-7.138c0-2.12,1.724-3.843,3.844-3.843h3.956c.518,0,.937.419.937.937v12.951c0,.517-.419.937-.937.937Zm-3.956-12.951c-1.086,0-1.97.884-1.97,1.97v7.138c0,1.086.884,1.97,1.97,1.97h3.02v-11.078h-3.02Z"/><path class="cls-1" d="m51.163,35.417h-3.957c-.517,0-.937-.419-.937-.937v-12.951c0-.517.419-.937.937-.937h3.957c2.119,0,3.844,1.724,3.844,3.843v7.138c0,2.12-1.724,3.843-3.844,3.843Zm-3.02-1.874h3.02c1.086,0,1.97-.884,1.97-1.97v-7.138c0-1.086-.884-1.97-1.97-1.97h-3.02v11.078Z"/><path class="cls-1" d="m30.461,42.129c-1.91,0-3.464-1.554-3.464-3.464s1.554-3.464,3.464-3.464,3.464,1.554,3.464,3.464-1.554,3.464-3.464,3.464Zm0-5.054c-.877,0-1.59.713-1.59,1.59s.713,1.59,1.59,1.59,1.59-.713,1.59-1.59-.713-1.59-1.59-1.59Z"/><path class="cls-1" d="m32.955,39.452c-.432,0-.82-.3-.915-.74-.109-.506.213-1.004.719-1.113,4.897-1.055,8.451-5.462,8.451-10.479v-8.802c0-5.911-4.809-10.719-10.72-10.719s-10.719,4.808-10.719,10.719v8.802c0,4.938,3.342,9.216,8.127,10.404.502.125.808.633.683,1.135-.125.502-.633.808-1.135.683-5.622-1.396-9.549-6.422-9.549-12.223v-8.802c0-6.944,5.649-12.593,12.593-12.593s12.593,5.649,12.593,12.593v8.802c0,5.894-4.176,11.071-9.93,12.311-.066.014-.133.021-.198.021Z"/><path class="cls-1" d="m27.836,39.659h-9.93c-2.856,0-5.179-2.323-5.179-5.179,0-.517.419-.937.937-.937s.937.419.937.937c0,1.823,1.483,3.306,3.306,3.306h9.93c.517,0,.937.419.937.937s-.42.937-.937.937Z"/><polygon class="cls-1" points="26.804 44.886 30.334 46.862 34.357 45.239 32.663 51.733 35.904 66.778 25.745 66.98 28.498 51.521 26.804 44.886"/></g></svg>