<?xml version="1.0" encoding="UTF-8"?><svg id="_レイヤー_2" xmlns="http://www.w3.org/2000/svg" xmlns:xlink="http://www.w3.org/1999/xlink" viewBox="0 0 142.85 136.299"><defs><style>.cls-1{fill:#fff;}.cls-2{fill:#dc4435;}.cls-3{fill:#5e6267;}.cls-4{stroke-width:.787px;}.cls-4,.cls-5{stroke:#5e6267;stroke-miterlimit:10;}.cls-4,.cls-5,.cls-6,.cls-7,.cls-8{fill:none;}.cls-5{stroke-width:.788px;}.cls-9{fill:#35a053;}.cls-10{fill:#f0b617;}.cls-7{clip-path:url(#clippath);}.cls-8{clip-path:url(#clippath-1);}.cls-11{fill:#4678bc;}</style><clipPath id="clippath"><rect class="cls-6" x="0" y="0" width="142.85" height="136.299"/></clipPath><clipPath id="clippath-1"><rect class="cls-6" x="0" y="0" width="142.85" height="136.299"/></clipPath></defs><g id="_レイヤー_1-2"><path class="cls-1" d="m139.27,135.905H3.622c-1.739,0-3.149-1.41-3.149-3.149V3.543C.473,1.804,1.883.395,3.622.395h135.649c1.739,0,3.149,1.41,3.149,3.149v129.213c0,1.739-1.41,3.149-3.149,3.149h0Z"/><g class="cls-7"><path class="cls-5" d="m139.27,135.905H3.622c-1.739,0-3.149-1.41-3.149-3.149V3.543C.473,1.804,1.883.395,3.622.395h135.649c1.739,0,3.149,1.41,3.149,3.149v129.213c0,1.739-1.41,3.149-3.149,3.149h0Z"/><path class="cls-1" d="m139.308,135.904H3.542c-1.739,0-3.149-1.409-3.149-3.149V3.543C.394,1.804,1.803.394,3.542.394h135.766c1.739,0,3.149,1.409,3.149,3.149v129.213c0,1.739-1.41,3.149-3.149,3.149h0Z"/><path class="cls-3" d="m.394,108.235v22.794c0,3.448,1.244,4.874,4.874,4.874h132.314c3.839,0,5.694,0,4.874-4.874v-22.794H.394Z"/></g><path class="cls-11" d="m92.467,43.551c0-1.529-.243-2.995-.49-4.404h-20.063v8.319h11.255c-.501,2.689-1.775,4.973-4.054,6.509v5.421h6.965c4.054-3.749,6.387-9.291,6.387-15.845h0Z"/><path class="cls-9" d="m71.852,64.593c5.794,0,10.673-1.909,14.228-5.198l-6.965-5.421c-1.918,1.293-4.379,2.054-7.263,2.054-5.587,0-10.327-3.78-12.02-8.873h-7.162v5.574c3.533,7.034,10.793,11.863,19.182,11.863h0Z"/><path class="cls-10" d="m59.832,47.156c-.43-1.294-.666-2.671-.666-4.094s.236-2.801.666-4.094v-5.574h-7.162c-1.46,2.908-2.287,6.191-2.287,9.669s.827,6.761,2.287,9.668l7.162-5.574h0Z"/><path class="cls-2" d="m71.852,30.093c3.154,0,5.981,1.09,8.211,3.219l6.153-6.171c-3.721-3.478-8.573-5.612-14.365-5.612-8.389,0-15.649,4.829-19.182,11.863l7.162,5.574c1.693-5.094,6.433-8.873,12.02-8.873h0Z"/><g class="cls-8"><path class="cls-4" d="m139.308,135.904H3.542c-1.739,0-3.149-1.409-3.149-3.149V3.543C.394,1.804,1.803.394,3.542.394h135.766c1.739,0,3.149,1.409,3.149,3.149v129.213c0,1.739-1.41,3.149-3.149,3.149h0Z"/></g><path class="cls-3" d="m25.833,86.889c-.808-.465-1.45-1.107-1.925-1.925-.475-.817-.713-1.721-.713-2.709s.238-1.891.713-2.709c.475-.818,1.117-1.459,1.925-1.925.808-.465,1.691-.698,2.652-.698.751,0,1.456.132,2.117.399.661.266,1.205.642,1.633,1.126l-.87.87c-.323-.399-.737-.706-1.241-.92-.504-.213-1.046-.32-1.625-.32-.722,0-1.395.173-2.017.52-.623.348-1.122.836-1.497,1.468-.375.633-.563,1.362-.563,2.189s.188,1.557.563,2.189c.375.632.877,1.121,1.504,1.468.627.347,1.297.52,2.01.52.684,0,1.257-.107,1.718-.32.46-.214.857-.497,1.19-.848.247-.267.446-.587.599-.963.152-.375.247-.791.285-1.247h-3.778v-1.126h4.904c.048.267.072.513.072.742,0,.627-.1,1.238-.299,1.831-.2.594-.519,1.115-.955,1.562-.941,1.016-2.191,1.525-3.749,1.525-.96,0-1.844-.233-2.652-.698Z"/><path class="cls-3" d="m28.485,87.711c-.978,0-1.891-.241-2.714-.715h0c-.823-.474-1.486-1.137-1.97-1.971-.485-.832-.73-1.764-.73-2.771s.245-1.938.73-2.771c.483-.831,1.146-1.495,1.97-1.97.824-.474,1.736-.715,2.714-.715.765,0,1.493.137,2.163.408.675.272,1.239.661,1.68,1.159l.077.088-1.051,1.052-.087-.107c-.308-.382-.71-.68-1.192-.884-.487-.207-1.017-.311-1.576-.311-.698,0-1.356.17-1.957.504-.601.335-1.089.814-1.451,1.422-.362.612-.546,1.326-.546,2.126s.184,1.515.546,2.125c.363.61.853,1.089,1.458,1.423.605.335,1.261.504,1.95.504.662,0,1.223-.104,1.666-.309.444-.206.832-.483,1.152-.821.235-.254.429-.565.574-.924.131-.324.22-.685.263-1.076h-3.765v-1.376h5.133l.019.102c.049.274.073.531.073.764,0,.638-.103,1.267-.306,1.871-.205.608-.536,1.15-.984,1.608-.959,1.036-2.251,1.563-3.839,1.563Zm0-10.663c-.934,0-1.805.229-2.589.682-.786.454-1.419,1.085-1.88,1.879-.462.796-.696,1.685-.696,2.646s.234,1.852.696,2.646c.462.795,1.094,1.427,1.88,1.879h0c.785.453,1.656.682,2.589.682,1.515,0,2.746-.5,3.658-1.485.425-.434.736-.943.928-1.517.195-.578.293-1.181.293-1.792,0-.19-.018-.397-.052-.617h-4.674v.877h3.789l-.011.135c-.04.467-.138.899-.294,1.283-.157.386-.366.723-.623,1.001-.343.362-.756.656-1.229.876-.476.22-1.072.332-1.771.332-.731,0-1.428-.18-2.07-.536-.644-.356-1.166-.865-1.551-1.514-.385-.649-.581-1.406-.581-2.252s.195-1.603.581-2.252c.384-.647.904-1.157,1.543-1.514.638-.355,1.337-.535,2.078-.535.593,0,1.156.111,1.674.33.475.202.878.488,1.2.851l.69-.69c-.402-.427-.908-.765-1.507-1.006-.641-.259-1.337-.39-2.07-.39Z"/><path class="cls-3" d="m36.489,87.074c-.57-.342-1.015-.807-1.333-1.397-.318-.589-.478-1.241-.478-1.953s.159-1.363.478-1.953c.318-.589.763-1.054,1.333-1.397.57-.342,1.212-.513,1.925-.513s1.354.171,1.924.513c.571.343,1.014.808,1.334,1.397.318.59.478,1.241.478,1.953s-.16,1.364-.478,1.953c-.319.59-.763,1.055-1.334,1.397-.57.343-1.212.513-1.924.513s-1.355-.17-1.925-.513Zm3.172-.919c.385-.224.694-.544.927-.963.233-.418.349-.907.349-1.468s-.116-1.05-.349-1.468c-.233-.418-.542-.739-.927-.962-.384-.224-.801-.335-1.247-.335s-.865.111-1.255.335c-.39.223-.701.544-.934.962-.233.419-.349.907-.349,1.468s.116,1.051.349,1.468c.233.419.544.739.934.963.389.223.808.335,1.255.335s.863-.112,1.247-.335Z"/><path class="cls-3" d="m38.414,87.711c-.733,0-1.403-.178-1.989-.53-.587-.353-1.051-.838-1.378-1.445-.327-.605-.493-1.282-.493-2.013s.165-1.407.493-2.013c.327-.605.791-1.091,1.378-1.445.588-.352,1.258-.531,1.989-.531s1.401.178,1.988.531c.587.353,1.05.84,1.379,1.445.327.607.493,1.284.493,2.013s-.165,1.407-.493,2.013c-.328.607-.792,1.093-1.379,1.445-.586.352-1.255.53-1.988.53Zm0-7.727c-.686,0-1.312.166-1.861.496-.549.329-.982.784-1.288,1.349-.307.569-.462,1.207-.462,1.894s.156,1.326.462,1.894c.306.567.739,1.021,1.288,1.349h0c.547.329,1.173.496,1.861.496s1.313-.167,1.86-.496c.548-.328.982-.782,1.288-1.349.307-.568.462-1.205.462-1.894s-.156-1.324-.462-1.894c-.307-.566-.74-1.02-1.288-1.349-.548-.329-1.174-.496-1.86-.496Zm0,6.629c-.467,0-.91-.118-1.317-.351-.409-.235-.739-.575-.981-1.011-.243-.434-.365-.948-.365-1.529s.123-1.093.365-1.529c.243-.437.573-.777.981-1.01.812-.467,1.824-.465,2.626,0,.402.233.729.572.973,1.01.242.435.365.949.365,1.529s-.123,1.094-.365,1.529c-.243.436-.57.776-.973,1.011h0c-.402.233-.843.351-1.309.351Zm0-5.531c-.424,0-.825.107-1.192.318-.368.21-.666.518-.887.914-.221.398-.334.871-.334,1.408s.113,1.011.334,1.408c.22.395.519.704.887.915.738.423,1.649.423,2.377,0h0c.363-.211.66-.519.881-.915.221-.397.333-.87.333-1.408s-.112-1.009-.333-1.408c-.222-.396-.518-.705-.88-.914-.363-.211-.761-.318-1.185-.318Z"/><path class="cls-3" d="m44.972,87.074c-.57-.342-1.015-.807-1.333-1.397-.319-.589-.478-1.241-.478-1.953s.159-1.363.478-1.953c.318-.589.763-1.054,1.333-1.397.571-.342,1.212-.513,1.925-.513s1.354.171,1.924.513c.57.343,1.015.808,1.333,1.397.318.59.478,1.241.478,1.953s-.16,1.364-.478,1.953c-.319.59-.763,1.055-1.333,1.397-.57.343-1.212.513-1.924.513s-1.354-.17-1.925-.513Zm3.172-.919c.385-.224.694-.544.927-.963.233-.418.349-.907.349-1.468s-.117-1.05-.349-1.468c-.233-.418-.542-.739-.927-.962-.384-.224-.801-.335-1.247-.335s-.865.111-1.255.335c-.39.223-.701.544-.934.962-.233.419-.35.907-.35,1.468s.117,1.051.35,1.468c.233.419.544.739.934.963.389.223.808.335,1.255.335s.863-.112,1.247-.335Z"/><path class="cls-3" d="m46.897,87.711c-.733,0-1.403-.178-1.989-.53-.587-.353-1.051-.838-1.378-1.445-.327-.605-.493-1.282-.493-2.013s.165-1.407.493-2.013c.327-.605.791-1.091,1.378-1.445.588-.352,1.257-.531,1.989-.531s1.401.178,1.988.531c.587.353,1.051.84,1.379,1.445.327.607.493,1.284.493,2.013s-.165,1.407-.493,2.013c-.328.607-.792,1.093-1.379,1.445-.586.352-1.255.53-1.988.53Zm0-7.727c-.686,0-1.312.166-1.861.496-.549.329-.982.784-1.288,1.349-.307.569-.462,1.207-.462,1.894s.156,1.326.462,1.894c.306.567.739,1.021,1.288,1.349h0c.547.329,1.173.496,1.861.496s1.313-.167,1.86-.496c.548-.328.981-.782,1.288-1.349.307-.568.463-1.205.463-1.894s-.156-1.324-.463-1.894c-.307-.566-.74-1.02-1.288-1.349-.548-.329-1.174-.496-1.86-.496Zm0,6.629c-.467,0-.909-.118-1.317-.351-.408-.235-.738-.575-.981-1.011-.243-.434-.365-.948-.365-1.529s.123-1.093.365-1.529c.243-.437.573-.777.981-1.01.812-.467,1.825-.465,2.627,0,.402.233.729.572.973,1.01.242.435.365.949.365,1.529s-.123,1.094-.365,1.529c-.243.436-.571.776-.973,1.011h0c-.403.233-.843.351-1.31.351Zm0-5.531c-.424,0-.825.107-1.192.318-.368.21-.666.518-.887.914-.221.398-.334.871-.334,1.408s.113,1.011.334,1.408c.22.395.519.704.887.915.738.423,1.649.423,2.377,0h0c.363-.211.66-.519.881-.915.221-.397.333-.87.333-1.408s-.112-1.009-.333-1.408c-.222-.396-.518-.705-.88-.914-.363-.211-.762-.318-1.185-.318Z"/><path class="cls-3" d="m53.105,90.068c-.556-.399-.929-.879-1.119-1.44l1.098-.47c.162.418.43.758.805,1.019.375.261.82.392,1.333.392.751,0,1.333-.21,1.746-.629.413-.42.62-1.017.62-1.795v-.812h-.057c-.238.37-.573.672-1.005.905-.432.233-.924.349-1.475.349-.627,0-1.2-.164-1.718-.49-.518-.327-.929-.783-1.234-1.37-.304-.586-.456-1.254-.456-2.004,0-.74.152-1.405.456-1.996.304-.591.715-1.051,1.234-1.377.517-.327,1.09-.491,1.718-.491.551,0,1.043.117,1.475.349.433.233.768.539,1.005.919h.057v-1.041h1.155v6.986c0,1.169-.324,2.06-.969,2.674-.647.613-1.497.919-2.552.919-.855,0-1.561-.2-2.117-.599Zm3.307-3.911c.356-.222.642-.54.855-.956.214-.415.321-.907.321-1.477,0-.579-.107-1.076-.321-1.491-.214-.415-.499-.731-.855-.948-.356-.217-.753-.325-1.19-.325s-.836.111-1.198.333c-.361.222-.649.54-.863.955-.213.416-.321.907-.321,1.477s.107,1.064.321,1.485c.214.42.502.738.863.955.361.217.761.326,1.198.326s.834-.111,1.19-.333Z"/><path class="cls-3" d="m55.222,90.791c-.878,0-1.615-.209-2.19-.622-.575-.413-.967-.918-1.164-1.502l-.037-.109,1.322-.567.047.121c.152.392.407.716.761.962.353.245.778.37,1.262.37.712,0,1.269-.199,1.658-.592.387-.393.584-.968.584-1.708v-.508c-.23.281-.525.519-.878.711-.448.241-.965.363-1.535.363-.648,0-1.248-.171-1.784-.509-.536-.338-.965-.815-1.278-1.418-.312-.601-.47-1.295-.47-2.061,0-.757.158-1.447.47-2.053.314-.609.744-1.089,1.278-1.424.535-.339,1.135-.51,1.784-.51.569,0,1.085.123,1.534.364.354.191.648.431.879.718v-.855h1.404v7.11c0,1.199-.339,2.128-1.008,2.764-.668.633-1.555.953-2.638.953Zm-3.079-2.095c.191.488.539.914,1.034,1.271.532.381,1.22.575,2.045.575,1.016,0,1.847-.298,2.466-.885.617-.586.93-1.456.93-2.583v-6.861h-.905v1.041h-.251l-.037-.059c-.225-.36-.547-.654-.958-.875-.413-.222-.889-.335-1.416-.335-.601,0-1.156.159-1.651.471-.496.312-.896.759-1.189,1.329-.294.57-.443,1.222-.443,1.938,0,.727.149,1.382.442,1.946.292.564.692,1.008,1.19,1.322.495.312,1.05.47,1.651.47.529,0,1.005-.112,1.416-.334.411-.222.734-.512.96-.863l.037-.057h.25v.937c0,.807-.22,1.441-.656,1.883-.436.442-1.053.666-1.835.666-.536,0-1.008-.139-1.404-.415-.358-.249-.627-.572-.801-.958l-.874.375Zm3.079-2.082c-.458,0-.882-.116-1.262-.344-.38-.229-.686-.567-.91-1.006-.222-.436-.334-.955-.334-1.541s.112-1.102.334-1.534c.223-.433.529-.771.909-1.004.379-.234.804-.352,1.263-.352s.881.116,1.255.344c.375.228.678.564.902.997.222.432.335.953.335,1.549,0,.587-.113,1.103-.335,1.534-.223.433-.526.771-.901,1.005-.374.233-.797.351-1.256.351Zm0-5.531c-.412,0-.792.106-1.133.314-.34.209-.614.514-.817.907-.204.396-.307.873-.307,1.419s.103,1.027.307,1.428c.202.396.477.701.816.905.34.204.721.309,1.133.309s.79-.106,1.124-.314c.335-.208.608-.514.81-.908.204-.395.307-.872.307-1.419,0-.556-.103-1.038-.307-1.434-.202-.393-.474-.695-.809-.9-.335-.204-.713-.307-1.126-.307Z"/><path class="cls-3" d="m60.526,77.151h1.212v10.208h-1.212v-10.208Z"/><path class="cls-3" d="m61.862,87.484h-1.461v-10.457h1.461v10.457Zm-1.212-.249h.962v-9.958h-.962v9.958Z"/><path class="cls-3" d="m64.902,87.088c-.551-.333-.982-.792-1.29-1.376-.309-.585-.463-1.242-.463-1.974,0-.703.145-1.349.435-1.939.29-.589.701-1.06,1.234-1.411.532-.351,1.15-.527,1.853-.527.713,0,1.33.16,1.853.478.522.318.924.758,1.204,1.318.28.561.421,1.202.421,1.925,0,.142-.014.266-.043.37h-5.746c.029.552.162,1.017.399,1.397.238.381.539.666.906.856.365.19.749.285,1.148.285.931,0,1.649-.437,2.153-1.312l1.026.499c-.313.59-.739,1.055-1.276,1.397-.537.343-1.186.513-1.946.513-.694,0-1.317-.167-1.868-.499Zm3.964-4.135c-.02-.304-.105-.607-.257-.912-.152-.304-.392-.561-.72-.769-.328-.209-.739-.314-1.234-.314-.57,0-1.052.183-1.447.548-.394.366-.654.848-.777,1.447h4.434Z"/><path class="cls-3" d="m66.77,87.711c-.713,0-1.363-.173-1.932-.516h0c-.568-.344-1.018-.823-1.336-1.424-.317-.601-.478-1.284-.478-2.033,0-.718.15-1.389.447-1.994.299-.607.729-1.098,1.277-1.46.55-.364,1.198-.548,1.922-.548.732,0,1.377.167,1.918.497.541.329.961.79,1.251,1.369.288.575.434,1.241.434,1.98,0,.154-.016.289-.047.403l-.025.091h-5.707c.041.471.166.877.371,1.206.225.36.513.633.857.811.347.18.714.272,1.091.272.891,0,1.56-.409,2.045-1.249l.058-.1,1.247.605-.061.114c-.322.605-.766,1.091-1.32,1.444-.553.353-1.231.532-2.013.532Zm-1.803-.73c.529.32,1.136.481,1.803.481.734,0,1.366-.167,1.879-.494.482-.307.875-.723,1.171-1.238l-.806-.391c-.522.846-1.262,1.274-2.201,1.274-.417,0-.823-.1-1.205-.299-.385-.199-.705-.502-.954-.901-.248-.396-.388-.886-.418-1.456l-.007-.131h5.777c.012-.073.019-.155.019-.245,0-.699-.137-1.328-.408-1.869-.268-.536-.658-.963-1.158-1.268-.501-.305-1.103-.459-1.788-.459-.675,0-1.275.17-1.785.507-.511.337-.911.795-1.19,1.362-.28.57-.422,1.203-.422,1.884,0,.708.151,1.352.449,1.916.296.561.715,1.008,1.244,1.327h0Zm4.032-3.903h-4.72l.031-.15c.128-.621.402-1.129.815-1.513.417-.386.932-.581,1.531-.581.517,0,.954.112,1.301.333.345.219.602.495.764.819.159.318.25.642.27.96l.009.132Zm-4.41-.249h4.14c-.032-.242-.11-.488-.231-.732-.141-.282-.369-.525-.675-.72-.306-.195-.698-.294-1.167-.294-.535,0-.993.173-1.362.515-.34.315-.577.73-.705,1.231Z"/><path class="cls-3" d="m74.539,77.151h3.436c.57,0,1.098.129,1.583.385.484.257.871.615,1.162,1.077.29.46.435.981.435,1.561s-.145,1.1-.435,1.562c-.29.461-.678.819-1.162,1.076-.485.257-1.013.385-1.583.385h-2.238v4.163h-1.198v-10.208Zm3.465,4.89c.38,0,.715-.089,1.005-.271.289-.18.515-.413.677-.698.162-.285.242-.585.242-.899s-.081-.613-.242-.898c-.162-.285-.388-.518-.677-.699-.29-.18-.625-.271-1.005-.271h-2.267v3.735h2.267Z"/><path class="cls-3" d="m75.861,87.484h-1.447v-10.457h3.561c.588,0,1.14.134,1.641.399.502.267.908.644,1.208,1.121.302.478.455,1.026.455,1.627s-.153,1.149-.455,1.628c-.3.476-.706.853-1.208,1.12-.499.265-1.051.399-1.641.399h-2.114v4.163Zm-1.198-.249h.948v-4.163h2.363c.548,0,1.061-.125,1.524-.37.463-.246.838-.593,1.115-1.032.276-.439.416-.942.416-1.495s-.14-1.057-.416-1.495c-.277-.439-.651-.787-1.115-1.033-.464-.245-.978-.37-1.524-.37h-3.312v9.958Zm3.34-5.069h-2.392v-3.984h2.392c.401,0,.762.097,1.071.289.307.193.548.442.718.744.172.303.259.625.259.959s-.087.657-.259.96c-.17.302-.413.552-.718.743-.308.192-.668.289-1.071.289Zm-2.143-.249h2.143c.356,0,.671-.085.939-.252.271-.168.484-.388.635-.653.15-.265.226-.547.226-.837s-.076-.572-.226-.836c-.151-.265-.364-.485-.635-.655-.269-.166-.585-.251-.939-.251h-2.143v3.486Z"/><path class="cls-3" d="m83.593,87.273c-.419-.208-.741-.497-.97-.863-.228-.365-.342-.782-.342-1.247,0-.77.29-1.371.869-1.803.579-.432,1.312-.648,2.195-.648.437,0,.843.048,1.219.142.375.096.663.205.863.328v-.442c0-.542-.191-.977-.57-1.305-.38-.328-.86-.492-1.44-.492-.409,0-.784.088-1.127.264-.342.175-.612.421-.812.734l-.912-.684c.285-.437.677-.779,1.176-1.026.499-.247,1.052-.371,1.661-.371.988,0,1.765.259,2.331.777.565.518.848,1.224.848,2.117v4.605h-1.155v-1.041h-.057c-.209.351-.523.651-.941.899-.418.246-.889.37-1.412.37-.532,0-1.008-.104-1.425-.314Zm2.681-1.069c.351-.209.632-.49.841-.841.208-.351.313-.736.313-1.155-.228-.152-.509-.276-.841-.371-.333-.094-.684-.142-1.055-.142-.665,0-1.166.137-1.503.414-.338.276-.506.632-.506,1.069,0,.399.152.723.455.969.305.247.689.371,1.155.371.409,0,.789-.104,1.141-.314Z"/><path class="cls-3" d="m85.018,87.711c-.55,0-1.049-.11-1.481-.327h0c-.436-.216-.779-.522-1.02-.908-.239-.383-.36-.826-.36-1.313,0-.807.31-1.448.919-1.903.599-.446,1.363-.673,2.271-.673.444,0,.864.048,1.249.146.287.073.521.152.708.241v-.234c0-.508-.172-.904-.528-1.21-.354-.307-.811-.462-1.358-.462-.387,0-.747.084-1.069.25-.32.163-.577.396-.764.69l-.072.113-1.114-.836.064-.097c.296-.454.708-.814,1.225-1.07.514-.254,1.091-.384,1.717-.384,1.015,0,1.828.273,2.415.81.59.54.889,1.283.889,2.208v4.73h-1.404v-.849c-.207.262-.479.494-.81.689-.437.257-.933.387-1.475.387Zm.328-4.875c-.853,0-1.566.21-2.121.624-.552.411-.82.968-.82,1.703,0,.44.109.838.323,1.181.216.347.526.621.919.817h0c.398.2.859.301,1.37.301.497,0,.95-.119,1.349-.352.397-.236.699-.523.897-.855l.036-.061h.253v1.041h.905v-4.481c0-.852-.272-1.533-.808-2.025-.538-.494-1.295-.744-2.246-.744-.587,0-1.127.121-1.606.358-.439.217-.795.515-1.061.886l.713.534c.202-.28.466-.504.785-.667.357-.184.756-.277,1.183-.277.608,0,1.121.175,1.522.522.407.352.613.823.613,1.399v.666l-.19-.118c-.187-.116-.465-.221-.828-.314-.365-.092-.764-.138-1.188-.138Zm-.214,3.806c-.493,0-.907-.134-1.234-.399-.333-.27-.502-.628-.502-1.065,0-.475.186-.866.552-1.165.358-.293.89-.442,1.582-.442.38,0,.746.05,1.089.147.345.099.64.229.876.386l.055.037v.067c0,.438-.111.848-.331,1.218-.219.368-.517.666-.885.885h0c-.369.22-.775.331-1.204.331Zm.399-2.823c-.634,0-1.113.13-1.424.386-.31.253-.46.571-.46.973,0,.363.134.649.41.873.28.227.642.343,1.076.343.384,0,.747-.099,1.078-.296.331-.198.6-.467.797-.797.185-.313.284-.657.295-1.024-.205-.128-.458-.235-.75-.318-.322-.091-.665-.137-1.021-.137Z"/><path class="cls-3" d="m90.065,80.202h1.156v1.156h.056c.171-.428.46-.76.87-.998.409-.238.856-.358,1.341-.358.208,0,.384.015.526.043v1.241c-.162-.038-.38-.056-.655-.056-.618,0-1.119.204-1.504.612-.384.409-.577.941-.577,1.596v4.035h-1.212v-7.271Zm7.378,7.24c-.252-.096-.464-.227-.635-.391-.19-.184-.332-.397-.428-.639-.095-.242-.142-.537-.142-.886v-4.34h-1.269v-1.098h1.269v-2.052h1.211v2.052h1.768v1.098h-1.768v4.051c0,.408.076.71.229.904.18.214.441.321.784.321.275,0,.541-.081.798-.243v1.183c-.143.066-.287.114-.435.142-.147.029-.335.043-.563.043-.295,0-.568-.049-.82-.145Z"/><path class="cls-3" d="m98.262,87.711c-.308,0-.598-.052-.864-.153-.266-.102-.494-.242-.677-.419-.202-.195-.354-.425-.456-.682-.1-.254-.151-.568-.151-.932v-4.215h-1.269v-1.348h1.269v-2.052h1.46v2.052h1.768v1.348h-1.768v3.926c0,.379.068.656.202.827.155.183.379.274.686.274.25,0,.496-.075.732-.223l.191-.121v1.489l-.072.033c-.156.072-.308.122-.464.152-.152.03-.345.045-.586.045Zm-3.168-6.65h1.269v4.464c0,.333.045.615.133.84.089.225.223.424.398.595.158.152.358.275.593.364.238.091.499.137.775.137.222,0,.403-.014.538-.041.113-.022.223-.055.335-.101v-.89c-.218.103-.444.156-.674.156-.38,0-.675-.123-.879-.366-.174-.221-.258-.541-.258-.983v-4.175h1.768v-.849h-1.768v-2.052h-.962v2.052h-1.269v.849Zm-3.693,6.536h-1.462v-7.52h1.405v.874c.182-.285.429-.52.739-.7.428-.248.9-.374,1.403-.374.214,0,.4.015.551.045l.1.02v1.5l-.153-.036c-.151-.036-.361-.054-.627-.054-.587,0-1.05.188-1.414.573-.36.384-.543.892-.543,1.511v4.16Zm-1.212-.249h.963v-3.91c0-.684.205-1.251.611-1.682.407-.432.944-.651,1.595-.651.209,0,.385.011.531.031v-.985c-.116-.016-.25-.024-.402-.024-.46,0-.889.115-1.279.341-.386.225-.654.531-.816.937l-.031.078h-.266v-1.156h-.906v7.022Z"/><path class="cls-3" d="m100.6,80.088h1.156v1.07h.057c.199-.361.518-.668.955-.92.437-.251.903-.378,1.397-.378.874,0,1.542.254,2.003.762.462.509.692,1.2.692,2.075v4.662h-1.212v-4.477c0-.675-.162-1.163-.485-1.468-.323-.304-.765-.455-1.326-.455-.389,0-.739.109-1.048.327-.309.219-.549.506-.72.863-.171.356-.257.729-.257,1.12v4.091h-1.212v-7.271Z"/><path class="cls-3" d="m106.984,87.484h-1.462v-4.601c0-.635-.15-1.098-.446-1.378-.298-.28-.715-.422-1.24-.422-.361,0-.69.102-.976.305-.291.205-.519.48-.68.814-.162.338-.244.697-.244,1.066v4.216h-1.461v-7.52h1.405v.865c.205-.266.481-.499.825-.698.456-.262.946-.394,1.46-.394.907,0,1.612.271,2.095.803.481.531.725,1.257.725,2.159v4.786Zm-1.212-.249h.963v-4.537c0-.838-.222-1.508-.66-1.991-.433-.479-1.077-.722-1.91-.722-.468,0-.918.122-1.335.361-.415.24-.72.533-.908.873l-.035.064h-.255v-1.07h-.907v7.022h.963v-3.967c0-.407.091-.802.27-1.173.178-.373.433-.68.759-.91.329-.233.706-.351,1.12-.351.591,0,1.066.165,1.412.49.347.328.524.852.524,1.559v4.352Z"/><path class="cls-3" d="m109.966,87.088c-.551-.333-.981-.792-1.29-1.376-.309-.585-.464-1.242-.464-1.974,0-.703.145-1.349.435-1.939.289-.589.7-1.06,1.233-1.411.532-.351,1.15-.527,1.854-.527.713,0,1.33.16,1.853.478.523.318.925.758,1.205,1.318.28.561.421,1.202.421,1.925,0,.142-.015.266-.043.37h-5.746c.028.552.162,1.017.399,1.397.237.381.539.666.905.856.365.19.748.285,1.147.285.932,0,1.649-.437,2.153-1.312l1.027.499c-.314.59-.74,1.055-1.276,1.397-.537.343-1.186.513-1.946.513-.693,0-1.316-.167-1.868-.499Zm3.964-4.135c-.02-.304-.105-.607-.257-.912-.152-.304-.391-.561-.719-.769-.328-.209-.739-.314-1.234-.314-.571,0-1.053.183-1.447.548-.394.366-.653.848-.777,1.447h4.434Z"/><path class="cls-3" d="m111.834,87.711c-.713,0-1.363-.173-1.932-.516h0c-.569-.344-1.018-.823-1.336-1.424-.318-.602-.478-1.285-.478-2.033,0-.718.151-1.39.448-1.994.298-.607.727-1.098,1.276-1.46.552-.364,1.198-.548,1.923-.548.732,0,1.377.167,1.918.497.541.329.962.79,1.251,1.369.288.577.434,1.243.434,1.98,0,.152-.016.287-.047.402l-.025.093h-5.708c.04.471.165.876.372,1.206.224.36.512.633.857.811.347.18.713.272,1.089.272.892,0,1.561-.409,2.045-1.249l.059-.1,1.247.605-.06.114c-.323.607-.767,1.091-1.319,1.444-.554.353-1.232.532-2.013.532Zm-1.803-.73c.529.32,1.136.481,1.803.481.733,0,1.366-.167,1.879-.494.481-.307.874-.723,1.171-1.238l-.806-.391c-.523.846-1.263,1.274-2.202,1.274-.418,0-.823-.1-1.204-.299-.385-.199-.705-.502-.954-.901-.247-.397-.388-.887-.418-1.456l-.007-.131h5.777c.012-.073.019-.156.019-.245,0-.698-.137-1.326-.408-1.869-.268-.536-.657-.962-1.159-1.268-.501-.305-1.102-.459-1.788-.459-.675,0-1.275.17-1.785.507-.512.337-.912.795-1.19,1.361-.28.571-.423,1.204-.423,1.885,0,.707.151,1.351.449,1.916.297.561.716,1.008,1.244,1.327h0Zm4.032-3.903h-4.719l.031-.15c.128-.621.402-1.13.814-1.513.417-.386.932-.581,1.532-.581.517,0,.954.112,1.301.333.345.219.602.495.763.819.16.318.25.642.271.96l.008.132Zm-4.41-.249h4.14c-.032-.242-.11-.488-.232-.732-.141-.283-.368-.525-.675-.72-.305-.195-.698-.294-1.166-.294-.535,0-.993.173-1.362.515-.34.315-.576.73-.705,1.231Z"/><path class="cls-3" d="m116.61,80.088h1.156v1.169h.057c.143-.399.419-.732.826-.998.409-.266.837-.399,1.283-.399.333,0,.618.052.856.157v1.298c-.305-.152-.647-.229-1.027-.229-.352,0-.675.1-.969.3-.295.201-.531.469-.706.808-.176.338-.264.702-.264,1.092v4.073h-1.212v-7.271Z"/><path class="cls-3" d="m117.946,87.484h-1.462v-7.52h1.405v.872c.166-.261.396-.489.69-.68.428-.279.883-.42,1.351-.42.348,0,.652.057.905.168l.075.032v1.581l-.18-.09c-.287-.143-.615-.216-.972-.216-.324,0-.627.093-.899.278-.277.188-.501.445-.665.762-.167.317-.25.666-.25,1.035v4.197Zm-1.212-.249h.963v-3.948c0-.41.093-.797.279-1.15.183-.354.434-.642.746-.854.314-.213.664-.321,1.039-.321.324,0,.627.055.902.162v-1.022c-.206-.077-.452-.116-.731-.116-.42,0-.828.127-1.215.379-.383.249-.644.565-.778.935l-.029.083h-.269v-1.169h-.906v7.022Z"/><path class="cls-1" d="m35.361,117.573h2.844c.481,0,.927.107,1.336.321.409.214.734.512.975.895.241.382.361.814.361,1.295s-.121.914-.361,1.296c-.241.383-.566.68-.975.895-.409.213-.854.32-1.336.32h-1.559v3.188h-1.284v-8.21Zm2.867,3.807c.283,0,.528-.063.734-.189.207-.126.363-.289.47-.488.107-.198.161-.405.161-.619s-.054-.42-.161-.619c-.107-.199-.263-.358-.47-.481-.206-.123-.451-.184-.734-.184h-1.582v2.58h1.582Z"/><path class="cls-1" d="m41.954,117.573h2.889c.489,0,.937.107,1.342.321.405.214.724.512.958.895.233.382.35.814.35,1.295,0,.551-.178,1.04-.533,1.468-.356.428-.801.715-1.336.86l-.012.057,2.248,3.244v.069h-1.49l-2.167-3.21h-.963v3.21h-1.284v-8.21Zm2.855,3.807c.382,0,.707-.122.975-.367.267-.244.401-.558.401-.94,0-.214-.053-.421-.16-.619-.107-.199-.26-.361-.459-.488-.199-.125-.436-.189-.711-.189h-1.617v2.603h1.571Z"/><path class="cls-1" d="m48.742,117.573h4.987v1.227h-3.703v2.271h3.337v1.215h-3.337v2.271h3.703v1.227h-4.987v-8.21Z"/><path class="cls-1" d="m55.093,117.573h1.743l2.362,6.226h.068l2.362-6.226h1.743v8.21h-1.273v-4.598l.068-1.479h-.068l-2.351,6.077h-1.031l-2.35-6.077h-.069l.069,1.479v4.598h-1.273v-8.21Z"/><path class="cls-1" d="m65.022,117.573h1.284v8.21h-1.284v-8.21Z"/><path class="cls-1" d="m67.946,117.573h4.988v1.227h-3.703v2.271h3.336v1.215h-3.336v2.271h3.703v1.227h-4.988v-8.21Z"/><path class="cls-1" d="m74.298,117.573h2.889c.491,0,.937.107,1.342.321.405.214.725.512.958.895.234.382.349.814.349,1.295,0,.551-.177,1.04-.532,1.468-.356.428-.802.715-1.336.86l-.012.057,2.247,3.244v.069h-1.492l-2.165-3.21h-.964v3.21h-1.284v-8.21Zm2.855,3.807c.382,0,.707-.122.974-.367.269-.244.401-.558.401-.94,0-.214-.052-.421-.16-.619-.107-.199-.261-.361-.459-.488-.199-.125-.434-.189-.711-.189h-1.616v2.603h1.571Z"/><path class="cls-1" d="m83.148,124.59c.244-.245.726-.727,1.445-1.45.718-.723,1.197-1.214,1.433-1.474.322-.344.541-.622.659-.837.119-.214.178-.47.178-.768s-.115-.558-.345-.78c-.229-.222-.538-.332-.928-.332-.36,0-.652.105-.877.314-.226.21-.373.453-.442.728l-1.146-.47c.076-.275.219-.546.429-.814.21-.268.492-.493.843-.677.351-.183.757-.275,1.215-.275.496,0,.938.101,1.324.303.386.202.684.478.895.826.21.348.315.732.315,1.152,0,.452-.117.885-.351,1.302-.233.417-.529.804-.888,1.164-.153.145-.539.528-1.159,1.147l-.94.939.022.046h3.418v1.147h-5.103v-1.193Z"/><path class="cls-1" d="m90.692,125.421c-.489-.363-.865-.856-1.129-1.479-.264-.623-.395-1.316-.395-2.081,0-.772.131-1.47.395-2.093.264-.622.641-1.114,1.129-1.473.489-.359,1.055-.538,1.697-.538s1.205.179,1.691.538c.485.359.86.851,1.124,1.473.264.623.395,1.321.395,2.093,0,.764-.131,1.458-.395,2.081-.264.623-.641,1.116-1.13,1.479-.49.363-1.052.544-1.685.544-.643,0-1.208-.181-1.697-.544Zm2.723-1.032c.294-.256.52-.604.677-1.043.156-.44.235-.935.235-1.485s-.079-1.047-.235-1.49c-.157-.443-.383-.792-.677-1.044-.295-.252-.637-.378-1.026-.378-.397,0-.742.125-1.032.378-.29.252-.514.601-.671,1.044-.157.443-.234.939-.234,1.49s.078,1.045.234,1.485c.157.439.381.787.671,1.043.29.256.635.385,1.032.385.389,0,.731-.128,1.026-.385Z"/><path class="cls-1" d="m96.391,124.59c.244-.245.726-.727,1.445-1.45.719-.723,1.197-1.214,1.433-1.474.321-.344.54-.622.659-.837.119-.214.178-.47.178-.768s-.115-.558-.345-.78c-.229-.222-.538-.332-.928-.332-.36,0-.652.105-.877.314-.226.21-.373.453-.442.728l-1.146-.47c.076-.275.219-.546.43-.814.21-.268.492-.493.843-.677.352-.183.757-.275,1.215-.275.497,0,.939.101,1.324.303.387.202.684.478.895.826.21.348.315.732.315,1.152,0,.452-.117.885-.351,1.302-.233.417-.529.804-.888,1.164-.153.145-.539.528-1.159,1.147l-.939.939.022.046h3.417v1.147h-5.103v-1.193Z"/><path class="cls-1" d="m102.386,124.59c.244-.245.726-.727,1.445-1.45.719-.723,1.197-1.214,1.433-1.474.321-.344.54-.622.659-.837.119-.214.178-.47.178-.768s-.115-.558-.344-.78c-.229-.222-.539-.332-.928-.332-.36,0-.652.105-.877.314-.226.21-.373.453-.442.728l-1.146-.47c.076-.275.219-.546.43-.814.21-.268.492-.493.843-.677.352-.183.757-.275,1.215-.275.497,0,.939.101,1.324.303.387.202.684.478.895.826.21.348.315.732.315,1.152,0,.452-.117.885-.351,1.302-.233.417-.529.804-.888,1.164-.153.145-.539.528-1.159,1.147l-.939.939.022.046h3.417v1.147h-5.102v-1.193Z"/></g></svg>