<?xml version="1.0" encoding="UTF-8"?><svg id="_レイヤー_2" xmlns="http://www.w3.org/2000/svg" viewBox="0 0 142.718 54.116"><defs><style>.cls-1{fill:#fff;}.cls-2{fill:#bc1a2d;}.cls-3{fill:#595757;}.cls-4{fill:gray;}.cls-5{fill:#e73534;}.cls-6{fill:#bd192d;}.cls-7{fill:#8d1c30;}.cls-8{fill:#6c1322;}</style></defs><g id="_レイヤー_1-2"><polygon class="cls-1" points="142.718 53.586 11.589 53.586 3.656 28.414 10.499 12.846 7.73 .531 142.718 .531 142.718 53.586"/><path class="cls-4" d="m142.454.795v52.527H11.783L3.938,28.429l6.804-15.477.035-.079-.019-.085L8.06.795h134.394m.264-.264H7.73l2.769,12.316-6.843,15.567,7.933,25.172h131.129V.531h0Z"/><g id="_セールスパートナー"><path class="cls-3" d="m82.839,44.268c-.248,1.586-.793,2.318-2.041,3.007l-.504-.635c1.124-.469,1.414-1.117,1.552-1.593l-2.641.221v2.145c0,.621.062.717.876.717h1.421c.393,0,.835-.034,1.214-.138v.807c-.276.055-.89.076-1.18.076h-1.607c-1.283,0-1.51-.476-1.51-1.414v-2.131l-1.441.117-.062-.745,1.504-.11v-1.51h.787v1.455l3.635-.269Z"/><path class="cls-3" d="m89.644,45.544v.834h-5.514v-.834h5.514Z"/><path class="cls-3" d="m92.351,45.033c0,2.897-.979,3.78-1.324,4.09l-.6-.6c.317-.255,1.124-.883,1.124-3.338v-1.918h.8v1.766Zm1.862,2.952c1.586-.379,1.945-2.318,2.014-2.669l.703.304c-.634,3.035-2.835,3.221-3.49,3.276v-5.835h.773v4.925Z"/><path class="cls-3" d="m97.627,48.268c1.476-.538,3.214-2.042,3.98-4.139h-3.587v-.752h4.635c-.096.414-.338,1.504-1.324,2.863.807.648,1.594,1.324,2.332,2.048l-.648.655c-.78-.917-1.835-1.849-2.152-2.111-.8.924-1.669,1.641-2.759,2.083l-.476-.648Z"/><path class="cls-3" d="m105.063,48.372c1.076-1.166,1.414-3.035,1.517-4.932l.787.062c-.221,3.131-.848,4.407-1.655,5.421l-.648-.552Zm4.635-4.952c.138,1.593.545,3.449,1.71,4.959l-.704.545c-1.138-1.455-1.607-3.518-1.758-5.415l.752-.09Zm1.904.014c0,.4-.324.717-.718.717-.4,0-.717-.317-.717-.717s.324-.717.717-.717.718.317.718.717Zm-1.049,0c0,.186.145.331.331.331.18,0,.331-.145.331-.331s-.151-.331-.331-.331-.331.145-.331.331Z"/><path class="cls-3" d="m117.845,45.544v.834h-5.514v-.834h5.514Z"/><path class="cls-3" d="m120.983,42.998v1.766c1.676.476,2.986,1.228,3.449,1.497l-.373.793c-.772-.462-2.132-1.228-3.076-1.469v3.504h-.828v-6.091h.828Z"/><path class="cls-3" d="m128.176,44.523v-1.448h.807v1.448h2.497v.738h-2.525v.124c0,1.538-.71,2.938-2.697,3.6l-.421-.621c1.593-.524,2.324-1.469,2.324-2.807v-.297h-2.614v-.738h2.628Z"/><path class="cls-3" d="m138.245,45.544v.834h-5.514v-.834h5.514Z"/></g><path class="cls-3" d="m65.373,6.695h5.026c-.174.785-1.024,2.061-2.049,3.079.281.341.371.455.683.904l-.767.563c-.485-.809-1.354-1.797-2.204-2.504l.713-.533c.467.383.671.569,1.018.946.491-.473,1.066-1.21,1.288-1.665h-3.708v-.791Z"/><path class="cls-3" d="m70.666,8.264h4.872v.851h-4.872v-.851Z"/><path class="cls-3" d="m78.326,6.156c-.078.354-.108.455-.263.94h3.312v.791h-1.228c-.048,1.474-.318,2.192-1.013,2.702-.377.287-1.162.581-1.851.683l-.491-.791c1.935-.27,2.432-.791,2.492-2.594h-1.533c-.318.623-.539.91-1.054,1.378l-.581-.671c.671-.503,1.156-1.444,1.306-2.51l.905.072Z"/><path class="cls-3" d="m81.999,7.893h5.08v.773h-1.959c-.006.923-.192,1.468-.653,1.887-.341.311-.916.599-1.516.761l-.042.012-.545-.845c1.39-.186,1.899-.683,1.857-1.815h-2.222v-.773Zm.593-1.528h3.893v.767h-3.893v-.767Z"/><path class="cls-3" d="m91.565,7.252l-.036.036-.03.036c-.365.419-.731.761-1.186,1.114v2.851h-.791v-2.324c-.539.317-.905.485-1.665.755l-.479-.665.024-.006c1.462-.389,2.576-1.084,3.462-2.168l.018-.018.683.389Z"/><path class="cls-3" d="m92.794,6.371c.815.401,1.216.647,1.809,1.126l-.671.701c-.623-.539-1.066-.827-1.767-1.162l.629-.665Zm4.211,1.276c-.767,2.324-1.881,3.223-4.373,3.516l-.365-.839c2.288-.156,3.366-1.042,3.953-3.271l.785.593Z"/><path class="cls-3" d="m102.049,6.779c-.108,1.228-.461,2.282-1.007,2.977-.575.749-1.402,1.198-2.893,1.563l-.515-.803c.916-.18,1.617-.425,2.043-.719.689-.437,1.156-1.21,1.348-2.222h-1.671c-.443.797-.749,1.162-1.45,1.725l-.593-.665c.94-.749,1.36-1.372,1.677-2.51l.946.054c-.066.27-.09.347-.192.599h2.145c-.108-.288-.204-.497-.353-.809l.557-.132c.108.168.257.509.359.815l-.419.126h.018Zm-.821-.916c.114.174.27.473.377.743l-.551.138c-.12-.276-.293-.605-.395-.755l.569-.126Z"/><path class="cls-3" d="m103.918,6.377c.437.647.821,1.39,1.054,2.067l-.845.359c-.335-.821-.587-1.318-1.036-2.061l.827-.365Zm3.894.156c-.102,1.743-.389,2.797-.952,3.456-.509.629-1.533,1.096-2.719,1.24l-.461-.851c2.426-.186,3.133-1.054,3.229-3.989l.905.144Z"/><path class="cls-3" d="m108.765,6.168h.899v3.163h-.899v-3.163Zm3.732-.024v2.396c-.024,1.366-.245,1.821-1.132,2.3-.467.233-1.036.353-1.887.395l-.383-.863c.851-.036,1.276-.102,1.677-.252.689-.288.827-.581.839-1.761v-2.216h.886Z"/><path class="cls-3" d="m113.204,10.169h2.684l.12-1.959h-2.354v-.725h3.205l-.174,2.684h.875v.725h-4.355v-.725Z"/><path class="cls-3" d="m117.79,8.264h4.872v.851h-4.872v-.851Z"/><path class="cls-3" d="m123.881,7.528c.605.264,1.102.563,1.593.964l-.557.665c-.545-.443-.988-.719-1.593-.982l.557-.647Zm4.457.347c-.497,1.198-.91,1.803-1.575,2.312-.677.521-1.755.881-2.893.964l-.413-.857c2.402-.102,3.331-.767,4.181-3.013l.701.593Zm-3.672-1.611c.695.335,1.084.575,1.557.97l-.557.647c-.557-.461-.767-.599-1.51-1l.509-.617Z"/><path class="cls-3" d="m129.063,10.337h2.905v-.904h-2.749v-.695h2.749v-.773h-2.887v-.713h3.672v3.798h-3.69v-.713Z"/><path class="cls-3" d="m134.263,6.371c.815.401,1.216.647,1.809,1.126l-.671.701c-.623-.539-1.066-.827-1.767-1.162l.629-.665Zm4.211,1.276c-.767,2.324-1.881,3.223-4.373,3.516l-.365-.839c2.288-.156,3.366-1.042,3.953-3.271l.785.593Z"/><path class="cls-5" d="m47.242,12.347c-.114.027-.532.171-.655.205-.012.386-.074,2.111-.074,2.111-.034.804-.383,1.335-1.307,1.689l-.333-.082c.451-.268.648-.503.705-.698.092-.253.138-.84.138-1.922,0,0-.01-.816-.03-1.092-.138-.023-.706-.161-.881-.2l-.008-.257c.362.011,1.151.022,1.462.022s.689-.016,1.007-.022l-.024.245Z"/><path class="cls-5" d="m61.98,12.872c-.067.016-.261.06-.431.096-.011.279.022,2.328.025,2.818,0,.07-.079.106-.142.042-.444-.434-1.857-2.034-2.328-2.615,0,.363.018,1.821.022,2.092.177.049.587.147.662.162l.017.291c-.357-.004-1.537-.002-1.559,0l.005-.283c.152-.064.297-.117.435-.171.019-.171.016-2.189.017-2.319-.117-.01-.349-.017-.51-.024v-.351c.194-.004.792-.002,1.12,0,.408.463,1.385,1.553,1.88,2.107.005-.468-.027-1.563-.034-1.752-.084-.015-.276-.034-.488-.078l-.028-.276c.084.008.617.016.716.016s.543-.026.635-.034l-.016.278Z"/><path class="cls-5" d="m53.603,13.692c0,.388-.362.549-.756.613v.274c.832-.084,1.362-.415,1.362-.901v-.023c0-.566-.376-1.058-1.263-1.075,0,0-.319-.012-.504-.012h-1.195l.052.311c.167.018.387.036.527.046.013.389.052,1.993.026,2.448-.095.021-.409.084-.529.114l-.03.272c.119-.007,1.833-.007,1.959,0l-.015-.235c-.122-.032-.563-.112-.675-.14-.015-.107-.046-2.377-.039-2.476.178,0,.504.008.645.046.34.09.436.456.436.686"/><path class="cls-5" d="m30.487,6.417c-.226.022-1.163.232-1.479.299-.337.09-3.576,2.624-3.779,3.209-.045.203,0,2.382,0,2.382l1.831.123-.065.604c-.263-.018-1.962-.015-3.027-.015-.54,0-2.188.06-2.744.044l.069-.576c.348.029.877-.026,1.202-.112.325-.086.557-.215.557-.54v-1.89c-.113-.338-2.806-3.728-3.504-4.268-.202-.068-1.53-.213-1.845-.28l.066-.568h6.146l-.088.522c-.27.068-1.571.093-1.909.182.877,1.306,2.266,2.986,2.716,3.639.247-.36,2.603-2.009,2.67-2.526-.337-.067-1.456-.229-1.635-.229l-.107-.578h5.307l-.384.578Z"/><path class="cls-5" d="m43.579,11.344c-.968-.058-2.668-.034-3.67,0l.059-.513c.151-.015.942-.141,1.143-.169v-1.753c-.482,0-3.175.058-3.6.167v1.575s1.16.134,1.431.162l-.062.532c-1.056-.059-3.159-.061-4.157-.003l.065-.571c.313-.008,1.152-.105,1.347-.135.031-.391.045-1.008.045-1.655v-.799c0-.27-.014-1.053-.03-1.324-.23,0-1.193-.091-1.464-.106l.066-.505c.869.049,3.548.047,4.286.002l-.076.471c-.21.011-1.161.152-1.452.153v1.398h3.6v-2.042c-.265-.028-.914-.172-1.2-.186l.056-.47c.602.044,2.982.037,3.619,0l-.044.493c-.196.016-.894.135-1.124.15v4.463s1.017.124,1.228.154l-.067.513Z"/><path class="cls-5" d="m61.738,11.871l-.664.027.128-1.123.662.032.619-.023-.13,1.1-.614-.012Zm.729-2.013h-.968v-5.083h2.196l-.198.764-1.031,4.32Z"/><path class="cls-5" d="m47.788,10.803c-.08.002-.16.007-.239.011-.079-.004-.159-.009-.239-.011-.814-.022-2.385-.487-2.385-1.889v-.141c0-1.403,1.571-1.867,2.385-1.889.081-.002.161-.007.239-.011.079.004.159.008.239.011.815.022,2.386.487,2.386,1.889v.141c0,1.402-1.571,1.867-2.386,1.889m3.77-1.992c0-1.612-1.545-2.59-3.895-2.639,0,0-.084,0-.114,0s-.114,0-.114,0c-2.494.052-3.874,1.036-3.874,2.647,0,.008-.001.016-.001.024,0,.008,0,.015.001.024.016,1.517,1.523,2.597,3.874,2.646,0,0,.084,0,.114,0,.03,0,.114,0,.114,0,2.35-.049,3.867-1.065,3.895-2.64,0-.008,0-.055,0-.063"/><path class="cls-5" d="m56.686,10.285c-.121.008-.24.012-.358.013-.118,0-.238-.005-.358-.013-.889-.061-2.501-.607-2.535-2.114.033-1.508,1.646-2.03,2.535-2.09.12-.008.24-.012.358-.013.119.001.237.005.358.013.889.061,2.502.582,2.535,2.09-.033,1.507-1.646,2.053-2.535,2.114m4.049-2.112c0-.01-.001-.03-.001-.03-.059-1.686-1.684-2.775-4.299-2.831,0,0-.071-.002-.107-.002-.035,0-.107.002-.107.002-2.616.055-4.247,1.071-4.299,2.831v.056c.052,1.76,1.683,2.8,4.299,2.855,0,0,.072.002.107.002.037,0,.107-.002.107-.002,2.615-.055,4.247-1.095,4.299-2.855,0,0,.001-.017.001-.026"/><path class="cls-5" d="m30.46,9.939c.086-.227.851-1.853.851-1.853l.72,1.853h-1.57Zm3.939,2.13c-.273-.447-1.301-2.981-1.761-4.127l.844-.132.101-.433h-1.284v.004c-.487.007-2.474-.011-2.693-.024l-.037.451,1.021.244s-1.494,2.952-1.792,3.378c-.265.058-.914.214-1.157.242l-.07.545c.201-.028,2.808-.014,3.049,0l.056-.492-.908-.215s.413-.858.469-.958c.298-.057,1.992-.083,1.992-.083l.604,1.639s-.718.11-1.002.124l-.063.538c.213,0,3.654-.014,3.754,0l.057-.483c-.255-.014-.938-.176-1.18-.219"/><path class="cls-5" d="m57.496,15.391c-.34-.71-.911-2.104-1.064-2.48l.407-.055.028-.272-1.682.059-.006.228.436.075c-.287.629-1.029,2.237-1.159,2.426-.112.04-.251.083-.386.132l-.027.255c.386-.021,1.219-.007,1.35,0l.006-.229-.417-.119s.26-.629.354-.819c.325-.004,1.181.004,1.181.004l.318.835s-.296.063-.517.105l-.038.223c.116,0,1.637-.007,1.691,0l.03-.264c-.14-.03-.505-.104-.505-.104Zm-2.049-1.079c.068-.166.507-1.195.507-1.195l.465,1.199-.972-.004Z"/><path class="cls-5" d="m50.452,15.391c-.213-.444-.793-1.831-1.057-2.481l.44-.079.012-.247-1.707.058-.003.226.436.075c-.288.629-1.034,2.239-1.162,2.428-.141.052-.265.09-.387.132l-.027.255c.381-.013,1.219-.007,1.349,0l.006-.229-.417-.119s.26-.629.354-.819c.325-.005,1.181.004,1.181.004l.319.834s-.297.063-.517.105l-.038.224c.115,0,1.637-.008,1.691,0l.029-.264c-.14-.03-.504-.104-.504-.104Zm-2.049-1.079c.067-.166.507-1.196.507-1.196l.465,1.199-.972-.004Z"/><g id="_リボン"><path class="cls-2" d="m6.447,28.974c2.005-2.847,4.195-5.882,5.2-7.013.363-.409.656-.768.903-1.103.124-.11.252-.233.374-.366.542-.588.333-1.82.333-2.353v-8.235c0-3.137-1.37-4.602-2.946-8.316-.167-.395-.444-1.047-.672-1.588H0s.003.006.004.008l9.095,14.086-3.386,4.334s0,.002.001.003c-.883,1.13-1.708,2.183-2.322,2.967l-1.034,1.323c-.007.008-.015.015-.022.022-.542.588-.333,1.82-.333,2.353v8.235c0,3.137,1.37,4.602,2.946,8.316,1.388,3.271,5.252,12.468,5.252,12.468h14.723S9.684,33.247,6.447,28.974Z"/><path class="cls-8" d="m12.655,8.482c-.011-.126-.026-.245-.048-.353-.609,1.333-3.179,4.251-4.014,5.181l.506.783,1.782-2.281s1.465-1.941,1.774-3.331Z"/><path class="cls-8" d="m5.994,28.385c.102.129.257.33.453.59.198-.282.386-.548.537-.763-.544-.727-.94-1.252-1.141-1.505-1.324-1.672-2.45-2.921-2.914-4.016-.749,1.04,1.058,3.16,3.064,5.693Z"/></g><g id="_星3"><polyline class="cls-7" points="75.801 27.427 70.329 31.55 72.418 38.095 66.834 34.046 61.233 38.095 63.34 31.55 57.849 27.427 64.671 27.427 66.834 20.771 68.979 27.427 75.801 27.427"/><polyline class="cls-6" points="75.7 27.427 64.647 27.427 61.233 38.02 75.7 27.427"/><polyline class="cls-7" points="98.087 27.427 92.614 31.55 94.703 38.095 89.12 34.046 83.518 38.095 85.626 31.55 80.135 27.427 86.957 27.427 89.12 20.771 91.264 27.427 98.087 27.427"/><polyline class="cls-6" points="97.985 27.427 86.933 27.427 83.518 38.02 97.985 27.427"/></g></g></svg>