<?xml version="1.0" encoding="UTF-8"?><svg id="_レイヤー_2" xmlns="http://www.w3.org/2000/svg" viewBox="0 0 291.313 50.871"><defs><style>.cls-1{fill:#006abb;}.cls-2{fill:#4d4948;}</style></defs><g id="_レイヤー_1-2"><path class="cls-2" d="m133.639,35.657h-14.439c-.335,0-.608-.227-.608-.504v-13.051c0-.277-.274-.504-.608-.504h-3.639c-.335,0-.608.227-.608.504v16.306c0,.277.274.504.608.504h19.294c.335,0,.608-.227.608-.504v-2.246c0-.277-.274-.504-.608-.504Z"/><path class="cls-2" d="m170.61,21.597h-3.638c-.335,0-.608.227-.608.504v13.051c0,.277-.274.504-.608.504h-12.619c-.335,0-.608-.227-.608-.504v-13.051c0-.277-.274-.504-.608-.504h-3.639c-.335,0-.608.227-.608.504v12.717c0,1.416.299,2.402.863,3.006.072.1.148.186.23.249.081.062.191.12.316.174.774.434,2.011.664,3.769.664h13.189c1.758,0,2.995-.23,3.769-.664.125-.054.235-.112.316-.174.082-.063.158-.15.23-.249.563-.604.863-1.589.863-3.006v-12.717c0-.277-.274-.504-.608-.504Z"/><path class="cls-2" d="m248.191,35.657h-15.491c-.335,0-.608-.227-.608-.504v-3.286c0-.277.274-.504.608-.504h8.411c.335,0,.608-.227.608-.504v-1.944c0-.277-.274-.504-.608-.504h-8.411c-.335,0-.608-.227-.608-.504v-2.85c0-.277.274-.504.608-.504h15.289c.335,0,.608-.227.608-.504v-1.944c0-.277-.274-.504-.608-.504h-20.144c-.335,0-.608.227-.608.504v16.306c0,.277.274.504.608.504h20.346c.335,0,.608-.227.608-.504v-2.246c0-.277-.274-.504-.608-.504Z"/><path class="cls-2" d="m290.704,21.597h-2.667c-.335,0-.774.18-.977.401l-8.891,9.667c-.203.221-.537.222-.743.003l-9.083-9.673c-.206-.219-.647-.398-.982-.398h-2.708c-.335,0-.608.227-.608.504v16.306c0,.277.274.504.608.504h2.708c.335,0,.608-.227.608-.504v-9.695c0-.277-.008-.731-.018-1.009l-.057-.838c-.026-.277.075-.299.223-.051l.646.907c.186.231.503.601.703.823l7.119,7.884c.201.222.583.404.85.404s.65-.181.851-.403l7.117-7.852c.201-.222.51-.596.686-.832l.615-.934c.153-.247.253-.222.221.054l-.079.839c-.015.277-.026.731-.026,1.008v9.695c0,.277.274.504.608.504h3.275c.335,0,.608-.227.608-.504v-16.306c0-.277-.274-.504-.608-.504Z"/><path class="cls-2" d="m209.744,29.18c-.083-.062-.194-.12-.321-.174-.787-.434-2.032-.664-3.794-.664h-12.448c-.335,0-.608-.227-.608-.504v-2.716c0-.277.274-.504.608-.504h12.498c.335,0,.608.227.608.504v.971c0,.277.266.452.592.389l2.57-.503h0c1.199-.235,1.071-1.361,1.071-1.361-.119-1.032-.477-1.781-1.098-2.214-.087-.061-.201-.117-.33-.17-.798-.415-2.012-.636-3.695-.636h-11.854c-1.759,0-2.995.231-3.77.665-.125.054-.235.112-.316.174-.083.063-.159.15-.231.25-.564.603-.862,1.588-.862,3.005v1.913c0,1.417.298,2.402.862,3.005.072.1.148.186.231.25.082.063.191.121.317.175.774.434,2.01.663,3.769.663h12.419c.335,0,.608.227.608.504v2.951c0,.277-.274.504-.608.504h-13.551c-.335,0-.608-.227-.608-.504v-1.038c0-.277-.268-.458-.595-.402l-2.342.403c-1.515.261-1.298,1.541-1.298,1.541.101,1.014.395,1.755.876,2.23.058.072.119.137.184.186.083.062.194.12.32.174.785.434,2.027.664,3.786.664h12.904c1.758,0,3.001-.23,3.786-.664.127-.054.238-.112.321-.174.084-.063.162-.15.234-.25.574-.604.878-1.589.878-3.005v-2.383c0-1.417-.305-2.403-.88-3.006-.073-.099-.15-.186-.234-.249Z"/><path class="cls-2" d="m95.255,21.597h-17.273c-.335,0-.608.227-.608.504v16.306c0,.277.274.504.608.504h3.558c.335,0,.608-.227.608-.504v-5.736c0-.277.274-.504.608-.504h12.499c3.129,0,4.693-1.118,4.693-3.356v-3.858c0-2.237-1.565-3.356-4.693-3.356Zm0,5.718c0,.277-.046.728-.102,1.002,0,0-.1.49-.505.693-.048.022-.112.039-.171.058-.328.088-.799.115-.799.115-.334.018-.881.033-1.215.033h-9.706c-.335,0-.608-.227-.608-.504v-3.656c0-.277.274-.504.608-.504h9.706c.335,0,.881.015,1.215.032,0,0,.471.026.799.114.06.018.124.036.172.058.404.205.505.694.505.694.056.273.102.724.102,1.002v.865Z"/><path class="cls-2" d="m27.111,40.035c-11.392,3.877-20.059,4.349-21.04.607-1.107-4.225,7.939-12.421,21.04-19.549v-2.06C10.448,27.795-1.268,38.177.11,43.433c1.227,4.681,12.469,3.877,27.001-1.336v-2.062Z"/><path class="cls-1" d="m71.719,9.907c-1.261-4.81-13.092-3.83-28.204,1.775v-6.437l-7.601-2.622v33.961c-1.322.584-2.626,1.131-3.907,1.64V1.275l-3.694-1.275v45.626l3.694,1.275v-6.677c1.285-.522,2.589-1.075,3.907-1.658v9.683l7.601,2.622v-15.936c17.301-8.888,29.615-19.646,28.204-25.028Zm-28.204,22.993V13.718c11.986-4.261,21.227-4.893,22.242-1.02,1.141,4.354-8.492,12.928-22.242,20.201Z"/></g></svg>