<?xml version="1.0" encoding="UTF-8"?><svg id="_レイヤー_2" xmlns="http://www.w3.org/2000/svg" viewBox="0 0 238.797 41.7"><defs><style>.cls-1{fill:#fff;}</style></defs><g id="_指示書"><path class="cls-1" d="m109.548,29.229h-11.836c-.274,0-.499-.186-.499-.413v-10.698c0-.227-.224-.414-.499-.414h-2.983c-.274,0-.499.186-.499.414v13.366c0,.227.224.413.499.413h15.816c.274,0,.499-.186.499-.413v-1.841c0-.227-.224-.414-.499-.414Z"/><path class="cls-1" d="m139.854,17.704h-2.982c-.274,0-.499.186-.499.414v10.698c0,.227-.224.413-.499.413h-10.344c-.274,0-.499-.186-.499-.413v-10.698c0-.227-.224-.414-.499-.414h-2.983c-.274,0-.499.186-.499.414v10.424c0,1.161.245,1.969.707,2.464.059.082.121.153.189.204.067.051.157.098.259.143.635.356,1.648.544,3.09.544h10.812c1.441,0,2.455-.189,3.09-.544.103-.045.193-.092.259-.143.068-.052.13-.123.189-.204.462-.495.707-1.303.707-2.464v-10.424c0-.227-.224-.414-.499-.414Z"/><path class="cls-1" d="m203.449,29.229h-12.698c-.274,0-.499-.186-.499-.413v-2.694c0-.227.224-.414.499-.414h6.895c.274,0,.499-.186.499-.413v-1.593c0-.227-.224-.414-.499-.414h-6.895c-.274,0-.499-.186-.499-.413v-2.336c0-.227.224-.414.499-.414h12.532c.274,0,.499-.186.499-.413v-1.594c0-.227-.224-.414-.499-.414h-16.513c-.274,0-.499.186-.499.414v13.366c0,.227.224.413.499.413h16.678c.274,0,.499-.186.499-.413v-1.841c0-.227-.224-.414-.499-.414Z"/><path class="cls-1" d="m238.298,17.704h-2.186c-.274,0-.635.148-.801.329l-7.288,7.924c-.166.181-.44.182-.609.003l-7.446-7.93c-.169-.179-.531-.326-.805-.326h-2.22c-.274,0-.499.186-.499.414v13.366c0,.227.224.413.499.413h2.22c.274,0,.499-.186.499-.413v-7.948c0-.227-.007-.6-.015-.827l-.047-.687c-.021-.227.061-.245.183-.042l.529.744c.153.189.412.492.576.674l5.836,6.462c.164.182.478.331.697.331s.533-.149.698-.331l5.834-6.436c.165-.182.418-.489.562-.682l.504-.766c.126-.202.207-.182.181.044l-.064.688c-.012.227-.022.599-.022.827v7.948c0,.227.224.413.499.413h2.684c.274,0,.499-.186.499-.413v-13.366c0-.227-.224-.414-.499-.414Z"/><path class="cls-1" d="m171.933,23.92c-.068-.051-.159-.098-.263-.143-.645-.356-1.665-.545-3.11-.545h-10.204c-.274,0-.499-.186-.499-.413v-2.227c0-.227.224-.414.499-.414h10.245c.274,0,.499.186.499.414v.796c0,.227.218.371.485.319l2.107-.412h0c.982-.192.878-1.116.878-1.116-.098-.846-.391-1.46-.9-1.815-.071-.05-.165-.096-.27-.139-.654-.34-1.649-.521-3.029-.521h-9.717c-1.442,0-2.455.189-3.09.545-.103.045-.192.092-.259.143-.068.052-.13.123-.189.205-.462.495-.707,1.302-.707,2.463v1.568c0,1.161.244,1.969.707,2.463.059.082.121.153.189.205.067.051.157.099.26.143.635.356,1.648.544,3.089.544h10.18c.274,0,.499.186.499.414v2.419c0,.227-.224.413-.499.413h-11.108c-.274,0-.499-.186-.499-.413v-.851c0-.227-.22-.376-.488-.329l-1.92.331c-1.242.214-1.064,1.263-1.064,1.263.083.832.324,1.439.718,1.828.048.059.097.112.151.152.068.051.159.098.263.143.643.356,1.661.544,3.104.544h10.578c1.441,0,2.46-.189,3.103-.544.104-.045.195-.092.263-.143.069-.052.132-.123.192-.205.47-.495.72-1.303.72-2.464v-1.953c0-1.162-.25-1.97-.722-2.464-.06-.082-.123-.152-.192-.204Z"/><path class="cls-1" d="m78.083,17.704h-14.159c-.274,0-.499.186-.499.414v13.366c0,.227.224.413.499.413h2.916c.274,0,.499-.186.499-.413v-4.702c0-.227.224-.414.499-.414h10.246c2.565,0,3.847-.917,3.847-2.751v-3.163c0-1.834-1.283-2.751-3.847-2.751Zm0,4.687c0,.227-.038.597-.084.821,0,0-.082.402-.414.568-.039.018-.092.032-.141.047-.269.073-.655.094-.655.094-.274.015-.722.027-.996.027h-7.957c-.274,0-.499-.186-.499-.413v-2.997c0-.227.224-.414.499-.414h7.957c.274,0,.722.012.996.026,0,0,.386.021.655.094.049.015.101.029.141.047.331.168.414.569.414.569.046.224.084.594.084.821v.709Z"/><path class="cls-1" d="m22.224,32.818c-9.339,3.178-16.443,3.565-17.247.497-.908-3.463,6.508-10.182,17.247-16.025v-1.689C8.564,22.784-1.039,31.295.09,35.604c1.006,3.837,10.221,3.178,22.134-1.095v-1.691Z"/><path class="cls-1" d="m58.79,8.121c-1.033-3.943-10.732-3.14-23.12,1.455v-5.276l-6.23-2.15v27.839c-1.084.479-2.152.927-3.202,1.345V1.045l-3.028-1.045v37.401l3.028,1.045v-5.473c1.054-.428,2.122-.881,3.202-1.359v7.937l6.23,2.15v-13.063c14.182-7.285,24.276-16.104,23.12-20.516Zm-23.12,18.848v-15.724c9.825-3.493,17.4-4.011,18.233-.836.935,3.569-6.961,10.597-18.233,16.56Z"/></g></svg>