<?xml version="1.0" encoding="UTF-8"?><svg id="_レイヤー_2" xmlns="http://www.w3.org/2000/svg" viewBox="0 0 1434.414 125.65"><defs><style>.cls-1{fill:none;stroke:#0068b6;stroke-miterlimit:10;}</style></defs><g id="_レイヤー_1-2"><path class="cls-1" d="m19.111,18.65h35.4l-18.515,105H.596L19.111,18.65Z"/><path class="cls-1" d="m146.538,49.25c5.075,6.101,6.528,15.3,4.359,27.6l-8.252,46.8h-33.9l7.221-40.95c1.657-9.398-.865-14.1-7.563-14.1-3.802,0-7.111,1.327-9.927,3.975-2.818,2.65-4.729,6.825-5.733,12.525l-6.797,38.55h-33.9l14.468-82.05h32.25l-1.429,8.1c3.764-3.199,7.888-5.599,12.37-7.2,4.481-1.598,9.173-2.4,14.073-2.4,10.1,0,17.688,3.052,22.761,9.15Z"/><path class="cls-1" d="m251.838,49.25c5.075,6.101,6.528,15.3,4.359,27.6l-8.252,46.8h-33.9l7.221-40.95c1.657-9.398-.865-14.1-7.563-14.1-3.802,0-7.111,1.327-9.927,3.975-2.818,2.65-4.728,6.825-5.733,12.525l-6.797,38.55h-33.9l14.468-82.05h32.25l-1.429,8.1c3.764-3.199,7.888-5.599,12.37-7.2,4.481-1.598,9.173-2.4,14.073-2.4,10.1,0,17.688,3.052,22.761,9.15Z"/><path class="cls-1" d="m282.169,119.675c-6.608-3.649-11.392-8.7-14.354-15.15-2.964-6.45-3.721-13.774-2.274-21.975,1.445-8.199,4.785-15.525,10.024-21.975,5.236-6.45,11.797-11.475,19.684-15.075,7.884-3.6,16.376-5.4,25.478-5.4,9.199,0,17.105,1.8,23.722,5.4,6.615,3.6,11.379,8.625,14.293,15.075,2.912,6.45,3.645,13.776,2.199,21.975-1.446,8.201-4.762,15.525-9.949,21.975-5.188,6.45-11.729,11.501-19.622,15.15-7.896,3.651-16.44,5.475-25.64,5.475-9.102,0-16.955-1.823-23.561-5.475Zm38.569-25.2c3-2.85,4.953-6.825,5.853-11.925s.344-9.049-1.661-11.85c-2.007-2.798-4.959-4.2-8.858-4.2s-7.349,1.402-10.342,4.2c-2.994,2.801-4.939,6.75-5.839,11.85s-.352,9.075,1.647,11.925c1.996,2.85,4.946,4.275,8.847,4.275s7.35-1.425,10.354-4.275Z"/><path class="cls-1" d="m470.161,41.6l-47.468,82.05h-35.101l-18.532-82.05h34.8l8.75,43.95,25.45-43.95h32.101Z"/><path class="cls-1" d="m543.72,49.775c6.461,6.45,8.513,16.376,6.149,29.775l-7.775,44.1h-31.5l1.904-10.8c-5.347,8.201-13.82,12.3-25.419,12.3-6.502,0-11.828-1.125-15.98-3.375-4.154-2.25-7.067-5.299-8.737-9.15-1.672-3.848-2.083-8.175-1.236-12.975,1.429-8.1,5.611-14.25,12.554-18.45,6.939-4.2,16.71-6.3,29.311-6.3h13.65c.026-6.398-4.559-9.6-13.758-9.6-3.701,0-7.553.577-11.554,1.725-4.005,1.15-7.531,2.726-10.583,4.725l-6.86-22.35c5.211-2.899,11.287-5.175,18.229-6.825,6.94-1.65,13.712-2.475,20.312-2.475,14.4,0,24.83,3.225,31.294,9.675Zm-36.051,53.025c2.128-1.298,3.874-3.248,5.232-5.85l1.005-5.7h-8.399c-6.9,0-10.757,2.302-11.567,6.9-.335,1.901.111,3.476,1.342,4.725,1.228,1.252,3.094,1.875,5.595,1.875,2.399,0,4.664-.649,6.793-1.951Z"/><path class="cls-1" d="m617.744,120.8c-5.61,2.899-12.818,4.35-21.616,4.35-11.501,0-19.862-2.774-25.083-8.325-5.223-5.55-6.854-13.875-4.896-24.975l3.702-21h-11.25l4.364-24.75h11.25l4.047-22.95h33.9l-4.047,22.95h16.8l-4.364,24.75h-16.8l-3.649,20.7c-.441,2.501-.136,4.451.918,5.85,1.051,1.401,2.63,2.1,4.729,2.1,2.899,0,5.582-.75,8.048-2.25l3.946,23.55Z"/><path class="cls-1" d="m640.259,41.6h33.9l-14.468,82.05h-33.9l14.468-82.05Zm4.198-11.475c-3.178-3.248-4.325-7.374-3.443-12.375.882-4.999,3.484-9.125,7.808-12.375,4.322-3.248,9.534-4.875,15.635-4.875,6.199,0,10.876,1.552,14.029,4.65,3.152,3.101,4.299,7.102,3.435,12-.917,5.201-3.522,9.476-7.812,12.825-4.291,3.352-9.537,5.025-15.736,5.025-6.101,0-10.738-1.625-13.915-4.875Z"/><path class="cls-1" d="m780.508,41.6l-47.468,82.05h-35.101l-18.532-82.05h34.8l8.75,43.95,25.45-43.95h32.101Z"/><path class="cls-1" d="m863.985,90.5h-57.001c.653,3.101,2.234,5.475,4.745,7.125,2.507,1.65,5.863,2.475,10.063,2.475,3.6,0,6.702-.45,9.312-1.351,2.607-.9,5.556-2.449,8.845-4.65l14.553,17.85c-9.554,8.801-22.277,13.2-38.178,13.2-9.899,0-18.278-1.823-25.135-5.475-6.856-3.649-11.762-8.724-14.716-15.225-2.955-6.499-3.716-13.8-2.287-21.9,1.445-8.199,4.762-15.525,9.949-21.975s11.623-11.475,19.309-15.075c7.685-3.6,15.927-5.4,24.728-5.4,8.299,0,15.583,1.65,21.852,4.95,6.267,3.3,10.862,8.151,13.785,14.55,2.921,6.401,3.597,14.051,2.027,22.95-.089.501-.705,3.15-1.852,7.95Zm-48.789-24.45c-2.637,1.901-4.613,4.601-5.929,8.1h26.4c-.102-3.398-1.13-6.075-3.084-8.025-1.958-1.95-4.686-2.925-8.185-2.925s-6.568.951-9.203,2.85Z"/><path class="cls-1" d="m1021.596,78.8c2.622,4.401,3.389,9.701,2.296,15.9-1.623,9.202-6.68,16.327-15.169,21.375-8.491,5.051-19.936,7.575-34.335,7.575h-59.101l18.515-105h56.101c13.999,0,24.133,2.5,30.401,7.5,6.267,5.001,8.672,11.65,7.208,19.95-.864,4.901-2.866,9.3-6.003,13.2-3.139,3.9-7.317,7.05-12.541,9.45,5.793,2.302,10.003,5.651,12.628,10.05Zm-32.689,11.85c.97-5.498-2.445-8.25-10.245-8.25h-21.3l-2.909,16.5h21.3c7.8,0,12.185-2.75,13.154-8.25Zm-24.668-47.25l-2.751,15.6h16.5c7.699,0,12.008-2.599,12.925-7.8.917-5.198-2.475-7.799-10.174-7.799h-16.5Z"/><path class="cls-1" d="m1103.72,40.1l-5.29,30c-2.629-.398-5.095-.6-7.395-.6-11.602,0-18.44,5.902-20.521,17.7l-6.427,36.45h-33.9l14.468-82.05h32.25l-1.561,8.85c7.217-6.9,16.676-10.35,28.375-10.35Z"/><path class="cls-1" d="m1181.362,49.775c6.461,6.45,8.513,16.376,6.149,29.775l-7.775,44.1h-31.5l1.904-10.8c-5.347,8.201-13.82,12.3-25.419,12.3-6.502,0-11.828-1.125-15.98-3.375-4.154-2.25-7.067-5.299-8.737-9.15-1.672-3.848-2.083-8.175-1.236-12.975,1.429-8.1,5.611-14.25,12.554-18.45,6.939-4.2,16.71-6.3,29.311-6.3h13.65c.026-6.398-4.559-9.6-13.758-9.6-3.701,0-7.553.577-11.554,1.725-4.005,1.15-7.531,2.726-10.583,4.725l-6.86-22.35c5.211-2.899,11.287-5.175,18.229-6.825,6.94-1.65,13.712-2.475,20.312-2.475,14.4,0,24.83,3.225,31.294,9.675Zm-36.051,53.025c2.128-1.298,3.874-3.248,5.232-5.85l1.005-5.7h-8.399c-6.9,0-10.757,2.302-11.567,6.9-.335,1.901.111,3.476,1.342,4.725,1.228,1.252,3.094,1.875,5.595,1.875,2.399,0,4.664-.649,6.793-1.951Z"/><path class="cls-1" d="m1208.903,41.6h33.9l-14.468,82.05h-33.9l14.468-82.05Zm4.198-11.475c-3.178-3.248-4.325-7.374-3.443-12.375.882-4.999,3.484-9.125,7.808-12.375,4.322-3.248,9.534-4.875,15.635-4.875,6.199,0,10.876,1.552,14.029,4.65,3.152,3.101,4.299,7.102,3.435,12-.917,5.201-3.522,9.476-7.812,12.825-4.291,3.352-9.537,5.025-15.736,5.025-6.101,0-10.738-1.625-13.915-4.875Z"/><path class="cls-1" d="m1337.827,49.25c5.075,6.101,6.528,15.3,4.359,27.6l-8.252,46.8h-33.9l7.221-40.95c1.657-9.398-.865-14.1-7.563-14.1-3.802,0-7.111,1.327-9.927,3.975-2.818,2.65-4.729,6.825-5.733,12.525l-6.797,38.55h-33.9l14.468-82.05h32.25l-1.429,8.1c3.764-3.199,7.888-5.599,12.37-7.2,4.481-1.598,9.173-2.4,14.073-2.4,10.1,0,17.688,3.052,22.761,9.15Z"/><path class="cls-1" d="m1360.166,122.9c-6.537-1.5-11.692-3.45-15.469-5.85l13.241-22.35c3.393,2.302,7.575,4.102,12.548,5.4,4.969,1.301,9.905,1.95,14.806,1.95,3.9,0,6.681-.324,8.348-.975,1.663-.649,2.611-1.625,2.841-2.925.229-1.298-.588-2.198-2.449-2.7-1.861-.5-4.95-.999-9.261-1.5-6.56-.799-12.079-1.823-16.558-3.075-4.481-1.249-8.179-3.675-11.093-7.275-2.916-3.6-3.782-8.75-2.601-15.45.935-5.3,3.37-10.05,7.313-14.25,3.939-4.2,9.304-7.549,16.096-10.05,6.791-2.499,14.636-3.75,23.538-3.75,6.199,0,12.171.577,17.92,1.725,5.745,1.15,10.527,2.826,14.339,5.025l-13.241,22.35c-6.495-3.999-14.042-6-22.642-6-7.401,0-11.329,1.301-11.788,3.9-.229,1.301.605,2.227,2.511,2.775,1.902.551,4.96,1.076,9.173,1.575,6.557.801,12.049,1.852,16.469,3.15,4.421,1.301,8.089,3.75,11.005,7.35,2.913,3.6,3.781,8.752,2.6,15.45-.898,5.1-3.319,9.75-7.259,13.95-3.942,4.2-9.333,7.552-16.172,10.05-6.842,2.499-14.813,3.75-23.912,3.75-7,0-13.769-.75-20.303-2.25Z"/></g></svg>