<?xml version="1.0" encoding="UTF-8"?>
<svg id="_レイヤー_2" data-name="レイヤー 2" xmlns="http://www.w3.org/2000/svg" viewBox="0 0 694.24 39.23">
  <defs>
    <style>
      .cls-1 {
        stroke-width: 0px;
      }
    </style>
  </defs>
  <g id="_レイヤー_1-2" data-name="レイヤー 1">
    <g>
      <path class="cls-1" d="M3.72,6.76c1.2.16,2.56.32,5.28.32.96,0,1.76-.04,2.6-.08.72-2.96,1.16-4.56,1.48-5.8l6.96,1.52c.32.08.64.24.64.6,0,.44-.44.52-1,.64-.16.48-.2.64-.76,2.24,5.32-.72,8.16-1.64,9.68-2.12l.84,6.36c-3.88,1.16-8.08,1.8-12.16,2.24-.12.72-.2,1.2-.28,1.76.64-.08,1.76-.24,3.48-.24,6.8,0,14.88,3.12,14.88,11.44,0,9.04-8.12,11.52-14.4,12.64-1.08-2.8-2.72-4.68-2.92-4.88-2.24,1.08-2.6,1.28-4.48,2.6-.32-.68-.4-.88-.6-1.28-3.12,1.88-5.44,2.12-6.76,2.12-3.88,0-6.2-2.56-6.2-6.4,0-3.56,1.44-6.72,3.36-9.04,1-1.24,2.84-3.12,6.92-5.04.08-1.6.2-2.44.28-3.16-1.84.08-2.2.12-3.28.12-1.68,0-2.56-.08-3.68-.2l.12-6.36ZM10.36,23.36c-2.12,1.84-3.6,4.4-3.6,6.28,0,.36.12.96.84.96,1.08,0,2.76-1.08,3.52-1.64-.28-1.36-.56-2.88-.76-5.6ZM16.6,24.32c1.48-1.96,2.32-3.68,2.76-4.64-1.6,0-2.6.28-3.24.44.08,1.68.2,2.56.48,4.2ZM18.28,30.75c.16.4.32.76.64,1.48,3.32-.6,9.08-1.64,9.08-6.68,0-2-1.04-3.24-2.68-4.2-1.4,2.88-4.56,7.12-7.04,9.4Z"/>
      <path class="cls-1" d="M40.2,7.76c1.12.12,1.76.16,3.2.16,1.68,0,3.48-.08,5.16-.24.92-3.72,1.16-5.44,1.32-6.64l7.12,1.8c.48.12.72.2.72.56s-.24.44-.88.68c-.12.36-.56,1.84-.72,2.4,2.88-.72,3.64-1,4.72-1.36-.04.72-.08,1.2-.08,3.08,0,2.2.04,3,.12,3.8-2.4.56-4.4.96-6.8,1.32-1.6,4.8-5.32,14.32-8.2,18.88-1.52-.84-4.88-2.48-6.64-3.04,2.56-3.68,5.8-10.12,7.48-15-1.96.16-3.6.24-5.88.36l-.64-6.76ZM67.4,18.12c-1.12,1.12-1.24,2.44-1.24,4,0,1.68.16,2.88.24,3.72,2.4,1,6.12,3,8.6,5.2-.92,1.04-3.04,3.64-4.24,5.4-3.04-2.76-3.52-3.08-4.48-3.6-.28,1.28-1.08,5.04-7.96,5.04-5,0-9.84-2.04-9.84-6.84,0-2.52,1.68-7.12,9-7.12.92,0,1.44.08,2.08.2,0-.32-.16-2.8-.16-2.92,0-2,.92-4.36,2.44-5.92l5.56,2.84ZM57.48,29.52c-1.28,0-2.44.48-2.44,1.4,0,1.04,1.28,1.4,2.36,1.4.8,0,2.44-.16,2.56-2.2-.56-.24-1.32-.6-2.48-.6ZM64.84,7.64c3.32.88,8.08,3.16,10.84,5.12-1,1.36-3.24,5-3.68,5.76-2.36-1.84-7.08-4.28-10.4-5.2l3.24-5.68Z"/>
      <path class="cls-1" d="M97.64,2.6c.44.08.76.16.76.6,0,.52-.48.56-.8.6-.28,1.32-.56,2.44-.96,3.76,3.44-.56,5.4-1.28,6.48-1.68l.44,6.8c-2.56.84-5.76,1.36-8.6,1.76-2.6,9-6.44,17.72-10,23.52-2.64-1.8-5.96-3.08-6.84-3.4,3.8-5.08,7.64-13.36,9.32-19.12-1.88.16-3.28.24-6.76.28l-.4-7.16c1.4.2,2.36.2,2.92.2,2.16,0,4.24-.2,5.88-.32.44-2.52.68-5,.92-7.24l7.64,1.4ZM101,26.64c-1.12,1.4-1.12,2.12-1.12,2.24,0,.72.56,1,1.24,1.16,1.6.32,3.72.4,4.56.4,3,0,5.68-.44,8.56-1.36-.12,3.84-.04,5.52.08,7.36-2.76.48-5.6.6-8.4.6-8.16,0-12.44-1.76-12.44-6.44,0-2.08.76-3.92,1.8-5.72l5.72,1.76ZM98.68,15.48c3.56-.6,8.2-.6,8.92-.6,3.6,0,5.16.2,6.04.36-.2,3.16-.24,3.8-.32,6.96-1.6-.4-3.4-.64-6-.64-.68,0-3.56,0-8.64.64v-6.72Z"/>
      <path class="cls-1" d="M136.8,30.71c8.68-1.36,11.24-7.52,11.24-11.8,0-1.2,0-8.2-8.36-9.24-.6,11.92-6.2,25.04-11.56,25.04-3.36,0-9.32-4.92-9.32-13.16,0-9.2,7.76-18.4,19.52-18.4,9.56,0,16.92,6.04,16.92,15.68,0,3.04-.48,8.16-6.04,13.56-2.96,2.92-6.28,4.04-8.36,4.72-.36-.72-2.16-3.96-4.04-6.4ZM125.4,21.56c0,2.84,1.36,5,2.2,5,1.44,0,4.52-8.04,4.92-15.88-3.08,1.12-7.12,6.12-7.12,10.88Z"/>
      <path class="cls-1" d="M190.16,12.88c.24.2.48.44.48.76s-.32.56-.72.56c-.32,0-.64-.08-1.04-.2-7,4.24-15.84,6.52-20.24,7.24v5.56c0,2.88,1.04,2.88,6.64,2.88,3.92,0,12.28-.2,15.88-.8-.56,2.12-.88,4.56-1.12,7.36-2.52.08-5.36.16-7.92.16-14.04,0-14.8-.24-16.2-.64-3.36-.96-4.96-2.8-4.96-8.2V2.44l7.76.44c.52.04.92.04.92.52s-.52.72-1,.96v10.08c6.92-1.52,12.88-4.2,15.44-6.52l6.08,4.96ZM186.88,3.12c1.44,1.16,3.16,2.88,4.16,4.04-.16.16-2.4,2.28-2.68,2.6-.8-.88-2.76-2.88-4.2-4.04l2.72-2.6ZM190.6.04c1.04.88,3.12,2.84,4,3.92-1.52,1.36-1.8,1.6-2.72,2.64-.68-.8-2.32-2.6-4.08-3.96l2.8-2.6Z"/>
      <path class="cls-1" d="M201.12,10.24c1.96.84,5.76,2.52,9.92,5.36-1.32,1.64-2.72,3.92-4,6.04-3.36-2.56-7.36-4.52-9.68-5.48l3.76-5.92ZM199.12,30.47c11.56-2.64,23.68-11.8,29.36-20.36.36.72,2.16,4.24,4.32,6.44-3.12,4.6-12.4,14.68-28.92,20.76-.08.32-.24.92-.72.92-.32,0-.44-.24-.68-.72l-3.36-7.04ZM205.44,1.08c3.16,1,7.56,3,10.36,4.64-1.04,1.36-3.16,4.72-3.8,6-2.04-1.32-6.36-3.84-10.2-5.16l3.64-5.48ZM224,3.4c.8.68,2.92,2.64,4.2,4.28-1.44,1.12-1.92,1.56-3.16,2.68-1.08-1.4-2.68-3.16-4.24-4.48l3.2-2.48ZM227.92.32c1.2,1,3.08,2.88,4.2,4.28-1.32,1-2.32,1.84-3.04,2.52-.64-.84-1.8-2.32-4.16-4.4l3-2.4Z"/>
      <path class="cls-1" d="M259.68,9.56c1.52,0,2.24-.32,2.8-.6l3.68,3.68c-.4.32-.92.68-1.84,1.68-5.48,5.76-5.88,6.16-8.52,8.36v15.24h-7.44v-10.28c-3.56,2.12-6.56,3.56-10.32,4.8-1.04-2.24-2.44-4.56-3.76-6.32,8.76-2.4,15.4-6.44,19.16-10.08h-14.52v-6.48h15.56c-.4-.2-5.52-2.8-9.68-3.76l3.36-5.2c4.24,1.08,8.32,2.76,10.92,4.04-1.32,1.64-1.96,2.76-3.08,4.92h3.68ZM260.4,20.44c2.44,1.36,7.72,4.84,9.92,6.88-1.2,1.2-3.52,4.48-4.08,5.4-2.32-2.36-7.44-5.92-10.08-7.4l4.24-4.88Z"/>
      <path class="cls-1" d="M276.68,10.92V4h20.28c.32,0,2,0,3-.44l3.52,3.24c-.6.8-1.04,1.72-1.44,2.72-1.76,4.2-2.8,6.72-5.04,10.28,2.04,1.4,9.08,6.96,12,10.32-1.36,1.36-4.16,4.6-5.32,6.12-3.28-4.52-8.12-9-10.76-10.92-2.6,3-8.32,8.56-15,11.44-2.24-3.48-3.76-4.96-5.16-6.2,5.52-1.84,16.8-7.64,20.6-19.64h-16.68Z"/>
      <path class="cls-1" d="M330.16,30.71c8.68-1.36,11.24-7.52,11.24-11.8,0-1.2,0-8.2-8.36-9.24-.6,11.92-6.2,25.04-11.56,25.04-3.36,0-9.32-4.92-9.32-13.16,0-9.2,7.76-18.4,19.52-18.4,9.56,0,16.92,6.04,16.92,15.68,0,3.04-.48,8.16-6.04,13.56-2.96,2.92-6.28,4.04-8.36,4.72-.36-.72-2.16-3.96-4.04-6.4ZM318.76,21.56c0,2.84,1.36,5,2.2,5,1.44,0,4.52-8.04,4.92-15.88-3.08,1.12-7.12,6.12-7.12,10.88Z"/>
      <path class="cls-1" d="M387.24,16.64c.28.12.44.36.44.72,0,.52-.68.6-1.36.6-1.72,3.92-3.08,6.72-5.04,9.68.24.36,1.64,2.36,2.2,2.36s1.2-3.04,1.32-3.68c1.76,2.08,3.6,3.24,4.88,3.84-.44,2.24-1.16,4.4-2.44,6.28-.84,1.28-1.68,1.72-3,1.72-1.12,0-3.32-.24-7.2-5.16-2.04,2.16-4.28,3.96-6.76,5.56-2.12-2.48-2.52-2.92-5.28-4.24,3.32-1.72,6.12-4.32,8.56-7.16-2.52-5.84-2.96-9.4-3.56-14.16h-9.28v3.12h8.92c.08,3.24.04,9.64-.8,13.72-.24,1.2-1.04,4.4-6.32,4.4-.52,0-.88-.04-1.64-.12-.12-1.04-.24-2.28-1.2-4.72-1.08,5.28-2.24,7.4-2.84,8.52-1.48-1-4.36-2.24-6.24-2.64,2.64-4.24,3.2-10.84,3.28-11.92.24-2.64.2-6.28.2-9.4v-6.84h15.48c-.12-3.28-.12-4.36-.16-5.72l6.96.24c.32,0,.92.04.92.64,0,.4-.6.72-1,.88-.08,1-.12,2.08-.08,3.96h3.52c-1.44-1.72-1.8-2.12-2.6-2.84l4.4-3.12c1.6,1.4,2.72,2.6,4.36,4.64-1.16.76-1.52,1.04-1.92,1.32h4.64v5.88h-11.96c.44,3.24,1.04,5.68,1.52,7.48,1.68-3.12,2.36-5.28,2.68-6.4l6.4,2.56ZM360.52,21.72c-.12,3.4-.48,5.64-.56,6.16.4.04.84.12,1.44.12,1.04,0,2.04-.2,1.96-6.28h-2.84Z"/>
      <path class="cls-1" d="M426.2,25.88c.24.16.4.4.4.68,0,.44-.4.56-1.2.48-1.24,1.2-2.6,2.28-3.96,3.32,4.04,1.92,6.6,2.36,7.96,2.6-.76.6-3.04,2.52-4.28,5.28-3.8-.92-9.36-3.76-12.56-6.76-.2,1.6-.28,2.24-.2,3.36-4,.8-5.16,1-16.88,2.92-.16.32-.36.8-.76.8-.32,0-.6-.4-.72-.8l-1.6-5.56c1-.08,1.72-.16,5-.56v-6.92h-5.4v-5.04h6.32V1.84h27.2v4.88h-20.68v1.48h18.4v4.24h-18.4v1.48h18.4v4.2h-18.4v1.56h23.96v5.04h-4.32l1.72,1.16ZM410.8,29.59c-1.64-2-2.6-3.72-3.2-4.88h-3.6v6l6.8-1.12ZM414.44,24.72c.72.96,1.4,1.72,2.12,2.36,1.12-.92,1.84-1.68,2.52-2.36h-4.64Z"/>
      <path class="cls-1" d="M451.92,2.28c.36.08.84.16.84.64,0,.6-.72.68-1.08.72-.2.36-.68,1.24-1,1.88,2.6-.28,5.92-.76,8.24-1.6l-.12,6.44c-2.8.64-3.08.68-11.72,1.52l-1.6,2.64c1.44-.8,3.08-1.2,4.76-1.2,1.52,0,3.96.76,5.4,3.08,6.4-3.08,6.72-3.24,8-4.08l2.56,6.92c-4.88,1.48-6.96,2.2-9.08,3.12.16,1.72.16,3.8.16,4.4,0,1.04-.04,1.8-.08,2.44-1.44.04-5.84.16-6.96.2.12-.88.24-1.76.28-3.72-1.96,1.2-3.96,2.6-3.96,3.92,0,1.64,4.24,1.76,5.76,1.76.96,0,7.04,0,12.2-1.64-.52,2.28-.52,6.12-.52,6.92-3.48.68-7.04.88-10.6.88-3.28,0-13.84,0-13.84-7.2,0-5.16,7.4-9.36,10.2-10.84-.76-1.16-2.2-1.16-2.4-1.16-4.24,0-7.44,4.84-9.36,7.92l-6.2-3.68c2.76-2.96,5.68-6.88,7.8-10.28-2.4.04-3.92-.04-5.2-.08l.12-6.52c2.56.44,5.88.52,8.44.4,1.16-2.32,1.6-3.56,2.08-5.04l6.88,1.24Z"/>
      <path class="cls-1" d="M491.36,2.04l7.6.32c.32,0,.8.04.8.52,0,.44-.48.68-.88.88v5.8h6.76v7.16h-6.76c-.16,5.24-.76,10.6-4.76,15.28-.84.96-3.56,4.12-8.32,6.2-2.08-2.64-4.84-4.76-5.72-5.4,5.96-2.24,8.8-6.12,9.52-7.36,1.68-2.84,1.72-4.88,1.88-8.72h-6.76v8.44h-7.36v-8.44h-7.04v-7.16h7.04V2.32l7.12.28c.6.04,1.04.04,1.04.56,0,.44-.4.64-.8.84v5.56h6.64V2.04Z"/>
      <path class="cls-1" d="M523.08,21.48c.28.16.52.28.52.64,0,.48-.56.56-1.12.64-1.84,3.32-4.76,7.48-7.68,10.4-1.52-1.52-4.12-3.44-5.88-4.48,2.88-2.36,6.24-6.52,8.12-10.6l6.04,3.4ZM524.52,2l7.48.32c.56.04.76.24.76.56,0,.4-.32.56-.84.84v6h13.08v6.72h-13.08v14.6c0,4.84-1.92,6.36-7.84,6.36-1,0-1.68-.08-2.32-.12-.08-.72-.44-3.76-2.16-7.2,2.12.4,3.4.4,3.48.4,1.44,0,1.44-.96,1.44-1.96v-12.08h-13.12v-6.72h13.12V2ZM538.96,17.8c2.52,2.64,6.16,7,7.92,10.04-2.44,1.92-3.36,2.64-5.64,4.72-1.64-3.48-5.24-8.36-7.48-10.72l5.2-4.04ZM542.92,7.88c-2.16,0-3.92-1.76-3.92-3.96s1.76-3.92,3.92-3.92,3.92,1.76,3.92,3.92-1.76,3.96-3.92,3.96ZM542.92,2.12c-1,0-1.84.8-1.84,1.8s.84,1.84,1.84,1.84,1.84-.8,1.84-1.84-.84-1.8-1.84-1.8Z"/>
      <path class="cls-1" d="M585.48,16.2v7.2h-34.79v-7.2h34.79Z"/>
      <path class="cls-1" d="M604.64,11.68c4.56,2.12,10.88,5.72,14.48,9.04-1.08,1.56-3.28,4.96-4.24,6.44-4.28-4.16-10.36-7.48-12.28-8.4v18.8h-7.72V1.84l7.6.24c.52,0,.92,0,.92.48,0,.4-.48.68-.8.84v11.52l2.04-3.24Z"/>
      <path class="cls-1" d="M644.04,1.68c.44.04.92.08.92.56s-.4.64-.8.8c-.08,1.16-.12,1.72-.16,2.52,2-.04,10.92-.32,12.72-.44-.08,1.24-.08,2.68-.08,3.6,0,1.92.04,2.32.12,3.12-1.84-.04-7.12-.16-7.84-.16-.32,0-2.52.04-5,.12,0,3,0,3.32.08,4.52,1.64,2.04,2.24,5.16,2.24,7.84,0,5.96-3.32,11.76-10,15.08-1.6-2-4-3.8-5.64-4.8,1.08-.36,6-1.96,7.56-5.28-.32.28-1.12,1-3.28,1-6.52,0-6.52-6.84-6.52-7.8,0-4.88,3.04-8.6,7.96-8.6.36,0,.56.04.84.08,0-.64,0-.76-.04-1.84-3.72.08-9.64.48-15.92,1.44l-.36-7c1.48.04,2.32.08,16.08-.56-.12-2.76-.32-3.96-.48-4.8l7.6.6ZM634.64,22.16c0,2.16,1.12,2.84,1.88,2.84,1.36,0,1.88-1.76,1.88-3.28,0-1.68-.76-2.4-1.76-2.4s-2,.96-2,2.84Z"/>
      <path class="cls-1" d="M688.52,6.24c-1.96,1.32-7.88,6.48-9.68,8.44.8-.28,1.76-.64,3.84-.64,6.76,0,11.56,4.6,11.56,10.76,0,7.32-6.6,12.76-15.32,12.76-3.16,0-10.4-1-10.4-7.08,0-4.44,4.24-6.4,7.72-6.4,3.8,0,7.6,2.2,8.72,5.32,1.64-.8,2.24-2.84,2.24-4.28,0-1.08-.4-5.44-6.32-5.44-4.64,0-9.12,1.92-15.84,9.88l-5-5.52c5.56-4,13.16-11.56,15.28-14.32-4.04.92-9,1.24-9.88,1.28l-.96-6.88c.76.04,1.6.08,2.92.08,4,0,12-.48,17.16-2.68l3.96,4.72ZM676.12,29.4c-1.28,0-1.44.76-1.44,1.12,0,1.4,2.12,1.72,3.24,1.72.8,0,1.32-.08,1.68-.16-.4-1.68-1.76-2.68-3.48-2.68Z"/>
    </g>
  </g>
</svg>