<?xml version="1.0" encoding="UTF-8"?>
<svg id="_レイヤー_2" data-name="レイヤー 2" xmlns="http://www.w3.org/2000/svg" viewBox="0 0 855.6 176.88">
  <defs>
    <style>
      .cls-1, .cls-2 {
        stroke-width: 0px;
      }

      .cls-2 {
        fill: #0068b6;
      }
    </style>
  </defs>
  <g id="_レイヤー_1-2" data-name="レイヤー 1">
    <g>
      <path class="cls-2" d="M22.56,34c3.76,2.56,4.64,3.28,11.04,8.88,3.68-3.52,9.44-10,13.92-16.48H.72v-13.36h55.6c.16,0,2.56,0,6.08-1.44l8.48,9.28c-.64.72-2.32,2.64-3.68,4.48-5.04,6.8-16.48,20.4-23.84,27.76,4.48,4.8,6.4,7.44,7.84,9.52-1.84,1.52-9.04,7.92-11.76,10.48-8.48-15.12-23.52-26.96-26.4-29.04l9.52-10.08Z"/>
      <path class="cls-2" d="M139.47,32.72v14.4h-66.12v-14.4h66.12Z"/>
      <path class="cls-2" d="M173.44,33.04c-3.92,6-8,11.92-13.04,16.96-3.44-3.28-9.04-6.88-12.56-8.72,14-12.88,22.16-31.2,24.16-39.6l14.72,5.04c.56.16,1.28.48,1.28,1.2,0,1.04-1.28,1.28-2.56,1.52-.96,2.32-1.76,4.4-4.24,9.6h39.52v14h-18.96c-1.2,28.88-19.6,40.4-25.76,44.24-2.96-3.2-9.36-7.84-12.64-9.84,21.76-10.32,22.72-27.36,23.2-34.4h-13.12Z"/>
      <path class="cls-2" d="M229.6,40.08v-13.36h68.96v13.36h-25.36c-.88,22.08-14.8,31.76-27.12,36.08-3.04-4.32-6.72-8.24-10.32-11.44,7.04-2,22.08-6.96,22.72-24.64h-28.88ZM287.76,6.24v12.96h-47.12V6.24h47.12Z"/>
      <path class="cls-2" d="M343.44,75.04h-13.12v-28.32c-10.32,6-14.56,7.68-16.88,8.48-1.92-3.2-5.52-8-8.72-10.88,16.32-4.48,31.84-13.84,43.84-28.56l10.48,7.84c.48.4.64.64.64,1.04,0,.96-1.04.88-2.4.8-5.52,5.92-9.28,9.2-13.84,12.8v36.8Z"/>
      <path class="cls-2" d="M374.32,5.68c7.2,3.6,15.52,8.56,20.4,13.04-3.68,4.16-7.12,9.6-8.64,12.24-5.84-5.36-13.12-10-20.24-13.28l8.48-12ZM367.28,60c23.68-4.8,47.68-23.12,59.36-43.52,4.16,6.88,6.08,9.6,8.8,12.8-11.52,18.48-32.96,35.6-57.52,44.4-.08.88-.24,2.08-1.44,2.08-.8,0-1.12-.64-1.44-1.28l-7.76-14.48Z"/>
      <path class="cls-2" d="M493.12,15.28c.4,0,2.24,0,5.36-1.2l7.68,6.08c-1.2,1.76-1.52,2.4-7.04,16-8.08,19.76-23.76,35.12-37.28,41.2-2.16-2.4-9.92-9.44-12-10.8,9.36-4.16,27.2-12.24,36.64-37.92h-19.92c-6.72,9.28-11.36,14-16.56,18.64-2.8-2.8-8.08-7.04-11.76-9.36,6-4.32,19.68-17.68,26.72-35.52l13.44,5.44c1.12.48,1.44.88,1.44,1.52,0,1.12-1.44,1.36-2.24,1.44-1.28,2.32-1.76,3.2-2.48,4.48h18ZM490.88.96c2.08,1.84,5.92,5.6,7.84,8.08-1.6,1.04-4.96,3.36-6.48,4.8-.88-.96-3.92-4.64-8.08-8.16l6.72-4.72ZM503.52,0c2.96,2.8,6,6.24,8,8.96-1.92,1.12-4.88,3.28-6.88,4.64-.64-.96-3.6-5.6-7.52-9.12l6.4-4.48Z"/>
      <path class="cls-2" d="M534.8,9.28c1.12.4,1.6.56,1.6,1.28,0,1.12-1.28,1.44-2.24,1.68-5.12,14.88-5.12,29.44-5.12,31.2,0,2.96.24,4.96.48,6.88.56-.96,3.04-5.36,3.52-6.24.96,1.28,2.32,3.2,6.56,6.64-2.64,4.72-6.64,14.08-6.4,20.8l-12.8,2.48c-3.76-10.24-5.04-25.68-5.04-33.44,0-14.4,2.64-25.12,5.36-36.16l14.08,4.88ZM556.96,46.48c-.96,1.68-1.84,4.64-1.84,5.92,0,3.28,2.4,4.08,10.72,4.08,6.08,0,13.28-.64,19.2-2.24-.64,4.4-.88,11.28-.8,14.4-4,.64-8.88,1.04-17.52,1.04-12,0-16.64-1.2-20.16-3.52-3.04-2.08-4.88-6.24-4.88-9.6s.8-6.32,3.12-12.56l12.16,2.48ZM545.52,11.92c2.16.16,4.88.32,9.36.32,10.64,0,18.8-.8,25.44-2.56.08,4.88.48,10.32.88,13.84-7.68,1.68-19.76,2.08-27.92,2.08-1.44,0-4.24,0-7.76-.32v-13.36Z"/>
      <path class="cls-2" d="M618.96,36.8c0,1.6.32,23.76-2.72,32.88-2.08,6.08-7.2,7.12-17.12,7.2-.4-5.2-2.08-8.96-4.64-13.28,4.24.56,4.72.64,6.16.64,2.64,0,4.08-.48,4.56-3.12.56-2.8,1.04-7.6,1.12-12.8h-2.8c-.24,1.68-.48,2.8-.72,4.08-3.84-.8-7.12-1.28-12.08-1.6,3.36-11.44,3.76-27.04,3.84-30.72l9.52,1.28h2.16v-5.92h-13.28V4.16h25.68v27.84h-13.04c-.16,1.52-.16,2.4-.48,4.8h13.84ZM656.96,3.92c1.92,2.48,7.04,9.2,11.6,18.16-2.8,1.28-7.12,3.36-10.64,5.52-.96-2.08-1.44-3.12-2.48-5.04-2.16.32-3.6.48-7.12.88,2.08.16,2.72.24,2.72,1.28,0,.96-1.04,1.28-1.68,1.52v3.12h15.52v24.64h-5.36c2.48,3.68,7.44,13.84,9.04,17.84-4,1.52-6.64,2.8-10.16,4.8-1.2-3.52-1.36-3.92-1.84-5.2-10.96,1.36-30.24,3.52-32.16,3.68-.24.72-.64,1.92-1.84,1.92-.48,0-.96-.4-1.12-1.2l-2.16-12c2.48,0,11.76-.48,17.6-.72v-8.8h-4.16v2.96h-11.04v-27.92h15.2v-4.72c-2.72.24-8.96.96-12.72,1.36-.08.48-.32,1.52-1.52,1.52-.72,0-1.04-.56-1.2-1.52l-1.68-11.28c2.08,0,3.68,0,8.16-.16,2.8-7.36,3.44-10.56,3.84-12.56l13.68,1.52c.64.08,1.44.32,1.44,1.2,0,1.36-1.44,1.6-2.4,1.76-.96,2.08-1.2,2.64-3.6,7.28,1.44-.16,7.52-.64,8.72-.72-1.2-1.92-2-2.96-2.88-4.08l10.24-5.04ZM632.72,38.8v5.76h4.16v-5.76h-4.16ZM658.08,54h-9.44v8.4c.88-.08,3.44-.24,4.24-.32-.96-2-1.52-2.96-2.56-4.72l7.76-3.36ZM649.36,38.8v5.76h4.24v-5.76h-4.24Z"/>
      <path class="cls-2" d="M716.16,3.76c1.04.08,1.76.24,1.76,1.2,0,1.04-.72,1.36-2.24,1.92-.24,6.8-.24,7.6-.4,9.92h30.88c0,8.88-.16,35.68-3.04,46.64-1.68,6.24-3.76,13.2-21.28,13.2-1.12,0-1.84,0-2.64-.08-.56-4.08-1.36-7.44-5.2-15.28,4.24,1.04,9.52,1.04,10.08,1.04,3.52,0,5.28-.88,6.32-8.32.8-6.16,1.12-17.76.96-24h-16.4c-1.36,13.92-4.72,23.28-10.72,30.96-2.72,3.44-9.84,11.84-19.6,16.32-3.04-4.4-5.68-7.04-10.32-10.72,21.68-9.76,25.12-25.36,26.24-36.56h-23.6v-13.2h23.92c0-2.08-.08-11.04-.08-13.68l15.36.64Z"/>
      <path class="cls-1" d="M754.72,15.84c2.24.24,3.52.32,6.4.32,3.36,0,6.96-.16,10.32-.48,1.84-7.44,2.32-10.88,2.64-13.28l14.24,3.6c.96.24,1.44.4,1.44,1.12s-.48.88-1.76,1.36c-.24.72-1.12,3.68-1.44,4.8,5.76-1.44,7.28-2,9.44-2.72-.08,1.44-.16,2.4-.16,6.16,0,4.4.08,6,.24,7.6-4.8,1.12-8.8,1.92-13.6,2.64-3.2,9.6-10.64,28.64-16.4,37.76-3.04-1.68-9.76-4.96-13.28-6.08,5.12-7.36,11.6-20.24,14.96-30-3.92.32-7.2.48-11.76.72l-1.28-13.52ZM809.12,36.56c-2.24,2.24-2.48,4.88-2.48,8,0,3.36.32,5.76.48,7.44,4.8,2,12.24,6,17.2,10.4-1.84,2.08-6.08,7.28-8.48,10.8-6.08-5.52-7.04-6.16-8.96-7.2-.56,2.56-2.16,10.08-15.92,10.08-10,0-19.68-4.08-19.68-13.68,0-5.04,3.36-14.24,18-14.24,1.84,0,2.88.16,4.16.4,0-.64-.32-5.6-.32-5.84,0-4,1.84-8.72,4.88-11.84l11.12,5.68ZM789.28,59.36c-2.56,0-4.88.96-4.88,2.8,0,2.08,2.56,2.8,4.72,2.8,1.6,0,4.88-.32,5.12-4.4-1.12-.48-2.64-1.2-4.96-1.2ZM804,15.6c6.64,1.76,16.16,6.32,21.68,10.24-2,2.72-6.48,10-7.36,11.52-4.72-3.68-14.16-8.56-20.8-10.4l6.48-11.36Z"/>
      <path class="cls-1" d="M838.96,52.24c7.04,4.32,13.36,9.84,16.64,13.04l-9.68,9.84c-6.08-7.84-11.92-11.76-15.36-14.08l8.4-8.8Z"/>
      <path class="cls-1" d="M0,140.08v-13.28h69.04v13.28h-25.6c-.32,5.36-.88,14.96-8.8,24.32-6,7.2-13.52,10.08-17.84,11.68-2.16-3.28-6.64-8.24-10.64-11.44,14.16-3.6,22-12.16,22.48-24.56H0ZM56.72,106.24v12.96H10.96v-12.96h45.76ZM63.04,110c1.76,1.6,6,5.92,7.76,8.4-1.6,1.52-3.68,3.68-5.44,5.76-1.92-2.72-5.36-6.4-7.92-8.8l5.6-5.36ZM67.12,100c2.64,2.4,5.6,5.44,7.76,8.32-1.92,1.68-3.52,3.36-5.12,5.44-1.84-2.32-5.84-6.56-8-8.4l5.36-5.36Z"/>
      <path class="cls-1" d="M108.16,134.32v16.4h-14.56v-16.4h-14.32v-14.16h14.32v-15.04l14.08.48c1.28.08,2.16.08,2.16,1.12,0,.88-.8,1.28-1.68,1.68v11.76h12.96v-15.76l15.04.64c.48,0,1.76.08,1.76,1.04s-1.04,1.28-1.92,1.6v12.48h14.16v14.16h-14.16c-.16,7.36-.64,31.36-25.44,42.56-3.04-3.84-7.76-8.16-11.6-10.72,17.12-7.6,22.08-16.88,22.32-31.84h-13.12ZM142.32,106.4c4.16,4.64,5.68,6.72,6.88,8.48-1.36,1.04-2.56,2-5.36,4.96-3.36-4.48-5.36-6.88-7.12-8.8l5.6-4.64ZM148.56,100.08c2.4,2.56,5.2,5.52,6.88,8-1.92,1.44-3.52,2.88-5.28,4.8-1.52-2.08-4.08-5.36-6.88-8.16l5.28-4.64Z"/>
      <path class="cls-1" d="M205.2,175.2h-15.6v-35.84c-10.48,5.68-15.44,8.24-22.24,10.8-2.24-4-6-9.12-10.16-12.88,17.2-4,42.8-19.52,54.48-35.36l12.64,9.28c.64.48.88.8.88,1.28,0,1.44-1.76,1.36-3.04,1.2-2.08,2.48-5.84,6.88-16.96,15.44v46.08Z"/>
      <path class="cls-1" d="M243.2,105.68c7.2,3.6,15.52,8.56,20.4,13.04-3.68,4.16-7.12,9.6-8.64,12.24-5.84-5.36-13.12-10-20.24-13.28l8.48-12ZM236.16,160c23.68-4.8,47.68-23.12,59.36-43.52,4.16,6.88,6.08,9.6,8.8,12.8-11.52,18.48-32.96,35.6-57.52,44.4-.08.88-.24,2.08-1.44,2.08-.8,0-1.12-.64-1.44-1.28l-7.76-14.48Z"/>
      <path class="cls-1" d="M337.68,115.6c1.2.32,1.84.48,1.84,1.36s-.96,1.28-1.92,1.6c-6,26.16-10.8,36.72-20.48,50.64-4.96-2.8-9.44-5.04-14.32-6.56,12.16-14.48,18.72-36.32,19.84-51.12l15.04,4.08ZM357.44,109.68c5.12,6.4,18.56,28.96,24,49.52-5.92,2.8-6.24,3.04-14.48,7.36-4.24-21.12-15.52-41.12-21.68-48.72l12.16-8.16ZM372.56,118.72c-4.32,0-7.84-3.52-7.84-7.92s3.52-7.84,7.84-7.84,7.84,3.52,7.84,7.84-3.52,7.92-7.84,7.92ZM372.56,107.2c-2,0-3.68,1.6-3.68,3.6s1.68,3.68,3.68,3.68,3.68-1.6,3.68-3.68-1.68-3.6-3.68-3.6Z"/>
      <path class="cls-1" d="M452.43,132.72v14.4h-66.12v-14.4h66.12Z"/>
      <path class="cls-1" d="M482.88,123.68c9.12,4.24,21.76,11.44,28.96,18.08-2.16,3.12-6.56,9.92-8.48,12.88-8.56-8.32-20.72-14.96-24.56-16.8v37.6h-15.44v-71.44l15.2.48c1.04,0,1.84,0,1.84.96,0,.8-.96,1.36-1.6,1.68v23.04l4.08-6.48Z"/>
      <path class="cls-1" d="M546.96,103.92l15.92.48c.96,0,1.84.16,1.84,1.04,0,.96-1.2,1.52-1.84,1.76v12.8h24.4v14h-24.96c-.48,7.44-1.76,29.44-28.56,42.48-2.32-2.88-7.28-8.16-11.6-11.28,5.92-2.32,23.52-9.44,24.8-31.2h-30.24v-14h30.24v-16.08Z"/>
      <path class="cls-1" d="M661.15,132.72v14.4h-66.12v-14.4h66.12Z"/>
      <path class="cls-1" d="M689.52,163.44c0,6.32-5.12,11.44-11.44,11.44s-11.44-5.12-11.44-11.44,5.2-11.44,11.44-11.44,11.44,5.04,11.44,11.44ZM672,163.44c0,3.36,2.72,6.08,6.08,6.08s6.08-2.72,6.08-6.08-2.72-6.08-6.08-6.08-6.08,2.64-6.08,6.08Z"/>
    </g>
  </g>
</svg>